<?xml version="1.0" standalone="no"?>
<!DOCTYPE svg PUBLIC "-//W3C//DTD SVG 20010904//EN"
 "http://www.w3.org/TR/2001/REC-SVG-20010904/DTD/svg10.dtd">
<svg version="1.0" xmlns="http://www.w3.org/2000/svg"
 width="1120.000000pt" height="1120.000000pt" viewBox="0 0 1120.000000 1120.000000"
 preserveAspectRatio="xMidYMid meet">
<metadata>
Created by potrace 1.14, written by Peter Selinger 2001-2017
</metadata>
<g transform="translate(0.000000,1120.000000) scale(0.100000,-0.100000)"
fill="#000000" stroke="none">
<path d="M7279 10541 c8 -13 8 -22 1 -26 -6 -4 -7 -12 -3 -18 12 -19 12 -36 2
-43 -6 -4 -6 -11 1 -19 7 -9 7 -15 1 -19 -9 -6 -7 -43 3 -53 3 -3 1 -15 -4
-27 -4 -13 -4 -29 0 -36 5 -8 5 -19 -1 -26 -6 -8 -7 -14 0 -18 6 -4 6 -18 1
-36 -5 -17 -6 -30 -2 -30 9 0 8 -58 -1 -66 -3 -4 -2 -15 4 -25 7 -14 6 -19 -2
-19 -8 0 -8 -4 -1 -13 7 -8 7 -18 2 -27 -5 -8 -6 -19 -3 -24 10 -15 10 -56 0
-56 -4 0 -3 -9 3 -20 8 -14 8 -26 0 -40 -8 -14 -8 -20 0 -20 6 0 8 -5 5 -11
-10 -16 -12 -79 -2 -79 4 0 3 -8 -2 -18 -6 -11 -6 -24 0 -34 6 -11 5 -19 -1
-23 -8 -5 -8 -11 0 -20 8 -10 8 -19 0 -34 -7 -15 -7 -21 0 -21 8 0 8 -6 0 -20
-8 -14 -8 -20 0 -20 8 0 8 -6 0 -20 -8 -14 -8 -20 0 -20 6 0 8 -5 5 -11 -10
-16 -12 -79 -2 -79 4 0 3 -8 -2 -18 -6 -11 -6 -24 0 -34 6 -11 5 -19 -1 -23
-8 -5 -8 -11 0 -20 8 -10 8 -19 0 -34 -8 -15 -8 -21 0 -21 6 0 8 -5 5 -11 -9
-13 -12 -79 -5 -79 7 0 5 -59 -3 -66 -3 -4 -2 -15 4 -25 7 -14 6 -19 -2 -19
-8 0 -8 -4 -1 -13 7 -8 7 -18 2 -27 -5 -8 -6 -19 -3 -24 10 -15 10 -56 0 -56
-4 0 -3 -9 3 -19 7 -13 7 -22 0 -26 -6 -4 -7 -13 -1 -23 5 -9 5 -26 1 -37 -4
-11 -4 -28 1 -37 6 -10 5 -19 -1 -23 -8 -5 -8 -11 0 -20 8 -10 8 -19 0 -34 -8
-15 -8 -21 0 -21 6 0 8 -5 4 -11 -4 -7 -7 -21 -8 -32 -1 -18 -18 -25 -111 -50
-60 -16 -120 -30 -133 -31 l-24 -1 0 957 1 957 -52 -5 c-29 -2 -75 -7 -104
-10 l-51 -5 -1 -972 c0 -1137 1 -1010 -11 -1002 -5 3 -10 1 -10 -6 0 -7 -3
-10 -6 -7 -5 5 -35 -5 -139 -47 -11 -5 -23 -7 -27 -7 -5 1 -8 -2 -8 -6 0 -5
-6 -9 -12 -9 -7 0 -22 -3 -34 -7 l-21 -6 1 1007 c1 555 0 1014 -2 1020 -3 8
-15 11 -31 9 -14 -3 -46 -7 -71 -10 -25 -4 -54 -8 -65 -10 -11 -3 -24 -5 -30
-5 -7 -1 -10 -360 -10 -1057 l0 -1055 -132 -69 c-73 -38 -134 -66 -135 -62 -2
4 -3 497 -3 1095 l1 1088 -35 -6 c-20 -4 -40 -8 -46 -9 -5 -1 -16 -5 -23 -10
-7 -4 -15 -6 -18 -3 -3 2 -21 -1 -42 -8 l-37 -13 -3 -1135 -2 -1135 -53 -38
c-28 -21 -55 -37 -59 -36 -5 1 -8 -2 -8 -8 0 -5 -13 -16 -30 -25 -16 -8 -39
-25 -50 -37 -11 -12 -20 -18 -20 -14 0 4 -7 0 -16 -8 -8 -9 -19 -16 -22 -16
-4 0 -7 531 -7 1181 0 649 -3 1182 -6 1184 -3 2 -49 -9 -102 -26 -83 -26 -97
-33 -98 -52 0 -12 -1 -572 -2 -1244 l-2 -1222 -80 -73 c-43 -40 -103 -97 -132
-125 -29 -29 -54 -53 -55 -53 -2 0 -2 592 -1 1315 1 813 -2 1313 -8 1310 -5
-4 -17 -8 -27 -10 -9 -1 -52 -19 -94 -39 l-77 -36 0 -1381 c0 -1316 -1 -1381
-18 -1408 -10 -16 -54 -76 -98 -132 -44 -57 -84 -111 -90 -120 -5 -8 -21 -32
-33 -52 -13 -20 -25 -37 -27 -37 -1 0 -3 660 -3 1468 -1 807 -1 1482 -1 1500
l-1 32 -39 -24 c-21 -14 -42 -22 -45 -19 -3 4 -6 1 -6 -6 0 -7 -4 -9 -10 -6
-5 3 -10 2 -10 -2 0 -5 -17 -17 -37 -28 -21 -11 -43 -24 -48 -30 -7 -7 -10
-552 -10 -1634 0 -1291 -3 -1625 -12 -1629 -7 -2 -13 -8 -13 -14 0 -5 -16 -44
-36 -86 -69 -145 -92 -200 -87 -206 4 -3 2 -6 -4 -6 -9 0 -21 -27 -27 -60 -1
-3 -4 -9 -7 -15 -4 -5 -12 -28 -19 -50 -7 -22 -16 -44 -20 -50 -4 -5 -13 -31
-20 -57 -7 -27 -15 -48 -19 -48 -3 0 -6 828 -5 1840 0 1012 -1 1840 -3 1840
-7 0 -58 -35 -77 -52 -10 -10 -23 -15 -28 -12 -4 3 -8 1 -8 -5 0 -5 -17 -20
-37 -32 -21 -13 -41 -28 -45 -33 -4 -6 -8 -1169 -8 -2584 0 -2447 -1 -2572
-17 -2564 -10 5 -36 13 -58 17 -22 5 -42 9 -45 10 -77 17 -139 40 -142 54 -2
9 -4 1102 -3 2429 0 1326 -3 2412 -6 2412 -4 0 -83 -63 -99 -80 -3 -3 -27 -25
-54 -49 l-49 -44 0 -2304 0 -2303 -26 7 c-14 3 -42 14 -62 24 -20 10 -39 16
-41 13 -3 -2 -11 2 -18 11 -7 8 -18 15 -25 15 -21 0 -95 43 -95 54 0 6 -1 955
-1 2109 -1 1252 -4 2097 -10 2097 -5 0 -9 -3 -9 -7 0 -5 -26 -35 -56 -68 -31
-33 -68 -76 -82 -95 -15 -19 -33 -40 -41 -46 -9 -7 -12 -20 -8 -34 3 -13 2
-29 -4 -36 -7 -8 -7 -14 0 -18 7 -4 7 -15 1 -30 -5 -13 -6 -26 -3 -30 9 -9 11
-76 1 -82 -4 -3 -6 -10 -3 -15 6 -8 10 -153 5 -174 -1 -5 -1 -12 0 -15 6 -16
6 -68 -1 -86 -4 -12 -5 -24 -2 -28 8 -8 11 -76 3 -81 -6 -3 -6 -38 0 -55 2 -8
2 -234 0 -245 -1 -5 -1 -12 0 -15 6 -17 5 -77 -2 -87 -5 -6 -5 -14 1 -17 7 -4
7 -15 1 -30 -5 -13 -6 -26 -3 -30 8 -8 11 -76 3 -81 -5 -3 -6 -50 0 -50 6 0 5
-64 -1 -81 -4 -12 -5 -24 -2 -28 8 -8 11 -76 3 -81 -5 -3 -6 -50 0 -50 6 0 4
-57 -2 -61 -5 -3 -5 -10 -1 -17 10 -16 11 -59 2 -83 -4 -12 -5 -24 -2 -28 8
-8 11 -76 3 -81 -5 -3 -6 -50 0 -50 6 0 5 -64 -1 -81 -4 -12 -5 -25 -2 -28 10
-9 10 -70 1 -83 -5 -6 -5 -14 1 -17 7 -4 7 -15 1 -30 -5 -13 -6 -26 -3 -30 9
-9 11 -76 1 -82 -4 -3 -6 -10 -3 -15 6 -8 10 -153 5 -174 -1 -5 -1 -12 0 -15
6 -16 6 -68 -1 -86 -4 -12 -5 -24 -2 -28 8 -8 11 -76 3 -81 -6 -3 -6 -38 0
-55 2 -8 2 -234 0 -245 -1 -5 -1 -12 0 -15 6 -17 5 -77 -2 -87 -5 -6 -5 -14 1
-17 7 -4 7 -15 1 -30 -5 -13 -6 -26 -3 -30 8 -8 11 -76 3 -81 -5 -3 -6 -50 0
-50 6 0 5 -64 -1 -81 -4 -12 -5 -24 -2 -28 8 -8 11 -76 3 -81 -5 -3 -6 -50 0
-50 6 0 4 -57 -2 -61 -5 -3 -5 -10 -1 -17 10 -16 11 -59 2 -83 -4 -12 -5 -24
-2 -28 8 -8 11 -76 3 -81 -5 -3 -6 -50 0 -50 6 0 5 -64 -1 -81 -4 -12 -5 -25
-2 -28 7 -6 11 -56 5 -56 -3 0 -50 29 -71 45 -34 25 -120 119 -158 172 l-42
59 0 1574 c0 866 0 1595 -1 1619 l0 43 -35 -52 c-19 -29 -35 -56 -35 -61 0 -5
-4 -9 -10 -9 -5 0 -10 -6 -10 -13 0 -7 -9 -23 -20 -35 -12 -12 -18 -22 -14
-22 3 0 -6 -16 -20 -35 -15 -19 -23 -35 -19 -35 4 0 3 -4 -2 -8 -41 -28 -40
45 -40 -2322 0 -1769 3 -2254 13 -2258 22 -7 13 -24 -10 -19 -73 16 -338 104
-443 146 -214 87 -230 94 -307 132 -32 15 -58 26 -58 23 0 -3 -15 5 -33 18
-17 13 -34 22 -37 21 -6 -2 -64 28 -170 86 -41 23 -83 45 -92 48 -10 3 -18 9
-18 14 0 5 -4 9 -9 9 -22 0 -259 158 -396 263 -141 109 -313 274 -410 397 -60
75 -69 87 -92 114 -7 8 -13 18 -13 21 0 3 -18 30 -40 60 -22 30 -38 55 -34 55
4 0 0 8 -8 18 -54 62 -181 366 -202 482 -3 14 -5 25 -6 25 -3 0 -17 90 -26
167 -4 29 -7 81 -8 115 -1 35 -5 63 -9 63 -5 0 -5 4 -2 10 3 5 8 43 10 84 6
98 18 195 30 236 2 8 7 29 10 45 7 45 22 110 25 110 1 0 3 7 5 15 9 41 62 180
74 194 7 9 11 16 8 16 -4 0 54 119 94 190 24 43 53 85 64 92 5 4 7 8 2 8 -6 0
85 134 103 150 3 3 18 23 35 45 72 97 285 313 395 400 41 33 80 65 86 70 6 6
22 17 34 25 13 8 35 24 49 35 75 59 350 226 446 271 17 7 37 18 45 24 32 22
317 149 415 185 11 5 49 19 85 32 36 13 76 26 90 29 29 6 52 24 30 24 -8 -1
-80 -23 -160 -51 -80 -27 -149 -51 -155 -53 -40 -13 -218 -88 -301 -127 -22
-10 -45 -19 -51 -19 -6 0 -13 -3 -15 -8 -4 -9 -140 -78 -146 -74 -3 2 -8 -1
-11 -6 -3 -5 -28 -22 -56 -36 -27 -15 -84 -49 -125 -76 -41 -27 -82 -53 -90
-57 -22 -10 -267 -195 -325 -245 -190 -165 -416 -431 -521 -613 -85 -148 -154
-289 -154 -314 0 -6 -5 -11 -12 -11 -6 0 -9 -2 -6 -6 3 -3 -3 -28 -14 -57 -11
-29 -22 -62 -24 -74 -2 -12 -9 -35 -15 -50 -6 -16 -13 -39 -15 -53 -1 -14 -5
-36 -8 -50 -43 -192 -49 -418 -16 -624 4 -28 6 -54 3 -58 -2 -5 0 -8 5 -8 5 0
12 -19 16 -42 21 -135 135 -408 227 -546 16 -24 29 -45 29 -48 0 -5 41 -65 50
-74 3 -3 27 -34 54 -70 74 -101 196 -234 308 -335 106 -96 129 -116 206 -173
42 -31 79 -60 80 -64 2 -5 9 -8 16 -8 7 0 21 -9 31 -20 10 -11 24 -20 31 -20
7 0 14 -3 16 -7 7 -17 288 -193 307 -193 5 0 11 -3 13 -7 2 -5 35 -24 73 -43
39 -19 73 -39 76 -43 3 -5 10 -9 15 -9 5 -1 54 -22 109 -48 89 -42 194 -89
280 -126 266 -114 689 -236 1040 -299 160 -29 183 -33 255 -41 54 -7 85 -11
85 -14 0 0 25 -3 55 -5 30 -3 75 -7 100 -10 25 -3 77 -8 115 -11 39 -3 99 -7
135 -10 36 -3 225 -6 420 -7 319 0 416 2 585 18 145 13 203 17 233 18 17 0 32
3 32 6 0 3 17 7 38 7 20 1 53 4 72 7 19 3 62 9 95 12 33 4 67 11 76 16 9 4 19
6 22 3 5 -5 81 6 217 31 41 8 86 17 100 19 85 16 281 58 367 80 55 14 111 28
124 30 13 3 24 5 24 6 0 1 7 3 15 5 85 22 187 50 242 66 37 11 69 19 71 17 2
-2 11 3 20 11 10 7 17 11 17 8 0 -7 381 121 453 152 26 11 47 18 47 14 0 -3 6
-1 13 4 6 5 73 34 147 64 74 29 137 56 140 59 3 3 10 6 16 7 27 5 518 244 619
301 16 9 62 36 103 59 40 24 78 43 83 43 5 0 9 5 9 10 0 6 4 10 10 10 13 0
263 160 272 174 4 6 8 8 8 4 0 -7 62 36 107 72 7 6 16 10 22 10 5 0 11 3 13 8
2 4 37 32 78 61 41 30 77 58 78 63 2 4 8 8 12 8 5 0 20 10 33 23 13 12 53 44
88 72 35 27 66 52 69 55 3 3 39 34 80 70 85 73 88 76 196 181 134 130 269 275
350 378 10 13 26 31 34 41 28 31 80 99 80 104 0 3 8 14 18 25 24 26 70 94 70
105 0 5 4 12 9 15 14 9 73 98 73 110 0 6 5 11 10 11 6 0 10 6 10 13 0 7 9 23
20 35 11 12 20 25 20 29 0 5 8 20 17 33 10 14 18 31 20 39 1 8 5 17 10 20 11
8 84 151 77 151 -3 0 2 7 10 16 9 8 14 19 11 24 -3 4 2 13 10 20 8 7 12 16 9
21 -3 5 0 9 5 9 6 0 11 8 11 18 0 9 7 31 16 47 18 34 73 174 79 202 2 10 12
38 21 63 9 25 18 52 20 60 2 8 12 51 24 94 11 44 22 89 25 100 2 12 11 54 20
94 8 40 13 77 10 83 -4 5 -2 9 2 9 5 0 9 8 9 18 0 9 3 37 7 62 10 69 18 150
22 210 2 30 4 56 4 56 1 1 92 -29 204 -67 111 -38 204 -70 207 -71 9 -1 35
-10 55 -18 11 -4 45 -15 75 -25 30 -10 66 -23 80 -28 14 -5 32 -11 40 -12 8
-2 35 -10 59 -19 56 -21 54 -21 35 15 -8 17 -17 40 -19 51 -3 12 -11 28 -19
37 -7 9 -17 26 -20 38 -4 12 -25 58 -47 103 -21 44 -39 82 -39 85 0 2 -27 61
-61 132 -33 70 -70 148 -81 173 -11 25 -45 96 -74 159 -30 62 -57 124 -60 137
-3 13 -10 24 -15 24 -5 0 -9 4 -9 10 0 10 -27 71 -100 225 -23 48 -54 115 -69
149 -16 33 -45 96 -65 139 -20 42 -52 112 -72 155 -20 42 -50 106 -67 142 -17
36 -31 68 -31 72 -3 25 -17 12 -32 -29 -9 -26 -27 -74 -40 -105 -12 -31 -19
-59 -16 -62 3 -3 -1 -6 -8 -6 -7 0 -11 -3 -8 -6 4 -3 -11 -48 -32 -99 -21 -52
-41 -107 -45 -124 -4 -17 -11 -33 -16 -36 -5 -4 -9 -14 -9 -23 0 -9 -6 -29
-14 -43 -7 -15 -22 -51 -31 -80 -10 -30 -21 -58 -25 -64 -3 -5 -13 -30 -20
-55 -7 -25 -17 -49 -20 -55 -4 -5 -15 -34 -25 -64 -9 -29 -24 -65 -31 -80 -8
-14 -14 -33 -14 -42 0 -9 -3 -19 -7 -23 -5 -4 -8 -11 -9 -14 0 -4 -4 -16 -9
-27 -40 -100 -66 -171 -69 -184 -1 -9 -10 -34 -20 -56 -10 -22 -19 -44 -20
-50 -2 -5 -8 -23 -15 -40 -6 -16 -34 -91 -62 -165 -28 -74 -54 -144 -58 -155
-40 -98 -118 -305 -126 -335 -1 -3 -5 -13 -8 -22 -12 -31 -16 -48 -13 -48 2 0
19 13 37 30 19 16 37 30 41 30 4 0 13 6 20 13 7 6 67 53 133 102 130 97 150
113 170 133 8 6 17 12 22 12 4 1 24 14 43 30 19 17 37 30 41 30 14 0 -60 -270
-114 -412 -14 -36 -23 -69 -20 -72 4 -3 1 -6 -5 -6 -7 0 -12 -7 -12 -15 0 -8
-4 -23 -9 -33 -6 -9 -35 -70 -65 -134 -31 -65 -86 -167 -123 -229 -38 -61 -72
-120 -78 -130 -5 -11 -13 -19 -17 -19 -5 0 -8 -5 -8 -11 0 -11 -132 -190 -202
-274 -45 -54 -291 -301 -354 -356 -63 -54 -202 -163 -215 -167 -5 -2 -10 713
-11 1804 l-3 1808 -60 5 c-72 5 -555 6 -640 1 -33 -2 -68 -7 -77 -12 -12 -6
-18 -5 -18 2 0 6 -4 9 -9 6 -4 -3 -35 -8 -67 -11 -32 -4 -70 -8 -84 -10 -14
-2 -50 -7 -80 -10 -30 -4 -64 -9 -75 -12 -11 -2 -38 -6 -59 -8 -21 -3 -47 -7
-58 -10 -11 -4 -18 -1 -19 7 -1 7 -2 416 -3 908 l-1 895 -108 3 c-105 3 -108
2 -98 -17z m2625 -4332 c-19 -46 -52 -118 -72 -159 -20 -41 -35 -78 -34 -82 1
-5 -2 -8 -6 -8 -5 0 -14 -16 -22 -35 -8 -19 -17 -35 -21 -35 -4 0 -10 -12 -14
-27 -3 -15 -10 -30 -13 -33 -10 -7 -30 -41 -47 -76 -7 -17 -21 -36 -29 -44 -9
-7 -16 -16 -16 -21 0 -5 -16 -32 -35 -59 -19 -27 -35 -52 -35 -56 0 -3 -6 -11
-12 -19 -24 -25 -48 -55 -48 -61 0 -4 -18 -28 -98 -129 -21 -27 -130 -155
-162 -189 -62 -70 -284 -289 -355 -351 -38 -33 -82 -72 -98 -87 -17 -16 -34
-28 -38 -28 -5 0 -9 25 -9 55 0 30 -3 55 -7 54 -5 0 -60 -31 -123 -69 -63 -37
-153 -88 -200 -112 -47 -23 -86 -46 -88 -50 -2 -5 -9 -8 -16 -8 -7 0 -39 -13
-72 -29 -32 -16 -81 -39 -109 -51 -27 -12 -69 -31 -92 -42 -24 -11 -49 -21
-55 -22 -7 -1 -35 -12 -62 -24 -27 -12 -50 -22 -52 -22 -1 0 -15 -5 -31 -11
-15 -6 -29 -10 -31 -10 -1 1 -16 -6 -32 -14 -16 -8 -31 -15 -32 -15 -2 1 -10
-1 -18 -4 -92 -31 -169 -55 -185 -58 -11 -2 -22 -6 -25 -10 -3 -4 -19 -9 -35
-12 -17 -2 -30 -5 -30 -6 0 -1 -7 -3 -15 -5 -8 -2 -46 -13 -85 -25 -38 -11
-78 -22 -88 -25 -10 -2 -27 -7 -37 -10 -10 -3 -28 -8 -39 -10 -21 -5 -43 -10
-83 -21 -13 -3 -32 -7 -43 -9 -11 -2 -29 -6 -40 -8 -11 -2 -38 -8 -60 -12 -22
-5 -42 -9 -45 -10 -3 -1 -23 -5 -45 -9 -22 -4 -47 -10 -55 -13 -8 -3 -22 -7
-30 -8 -8 -1 -37 -6 -65 -10 -27 -5 -54 -10 -60 -10 -5 -1 -41 -7 -80 -13 -72
-12 -85 -14 -220 -31 -183 -24 -261 -31 -520 -48 -144 -9 -631 -9 -765 0 -58
4 -136 10 -175 12 -38 3 -88 8 -110 11 -22 3 -58 7 -80 9 -22 2 -58 6 -80 10
-22 3 -87 13 -145 21 -58 9 -179 32 -270 51 -91 19 -176 36 -190 39 -14 2 -35
6 -47 9 l-23 5 0 -501 0 -501 -122 5 c-68 4 -128 6 -133 7 -7 0 -10 182 -10
531 0 463 -2 533 -15 540 -34 18 -183 69 -188 64 -3 -3 -5 -255 -5 -561 l0
-556 -66 6 c-69 7 -144 15 -173 20 -10 1 -20 5 -24 8 -3 4 -6 282 -6 617 0
519 -2 611 -14 611 -8 0 -14 4 -14 9 0 5 -12 14 -27 20 -38 15 -127 71 -131
82 -7 17 -20 9 -21 -13 0 -13 -1 -30 -1 -38 -1 -8 0 -49 1 -90 0 -41 0 -79 -1
-85 -1 -5 -1 -12 0 -15 6 -16 6 -68 -1 -86 -4 -12 -5 -24 -2 -28 8 -8 11 -76
3 -81 -6 -3 -6 -38 0 -55 2 -8 2 -234 0 -245 -1 -5 -1 -12 0 -15 6 -17 5 -77
-2 -87 -5 -6 -5 -14 1 -17 7 -4 7 -15 1 -30 -5 -13 -6 -26 -3 -30 9 -9 11 -76
1 -82 -4 -3 -6 -10 -3 -15 8 -13 9 -164 1 -177 -3 -6 -3 -13 1 -15 7 -5 8 -26
4 -86 -1 -20 -25 -22 -63 -6 -10 4 -25 5 -33 1 -8 -3 -15 -1 -15 4 0 5 -8 9
-17 9 -17 -1 -72 7 -83 11 -3 1 -9 3 -15 4 -46 9 -44 -39 -43 801 0 768 0 784
19 772 10 -6 19 -15 19 -19 0 -6 144 -134 175 -156 6 -4 27 -19 47 -34 20 -16
41 -28 47 -28 6 0 11 -4 11 -10 0 -5 7 -10 15 -10 8 0 15 -3 15 -8 0 -4 15
-13 32 -21 18 -8 35 -17 38 -20 6 -7 175 -90 230 -114 19 -8 56 -24 82 -35 65
-30 342 -122 413 -138 6 -1 46 -11 90 -22 44 -12 94 -23 110 -26 17 -2 30 -5
30 -6 0 -2 19 -6 65 -14 19 -3 45 -8 56 -10 12 -2 37 -7 55 -10 19 -3 45 -8
59 -10 14 -3 41 -7 60 -10 19 -3 44 -8 56 -10 12 -2 45 -7 75 -11 30 -3 65 -8
79 -10 14 -2 54 -7 90 -10 36 -3 81 -8 100 -10 55 -7 197 -17 290 -21 101 -4
532 -4 610 1 247 13 297 16 310 20 8 2 49 6 90 10 41 4 89 8 105 10 17 3 55 7
85 10 56 6 75 9 145 20 22 3 54 8 70 10 17 2 44 7 60 11 17 3 41 7 55 8 14 1
31 5 38 10 7 4 16 6 18 3 3 -2 24 0 47 5 67 15 80 18 117 24 19 3 43 7 52 10
9 3 26 7 37 9 12 3 30 7 41 10 49 12 67 16 90 21 90 18 466 128 525 154 16 7
51 19 75 25 3 1 12 4 20 8 8 3 44 16 80 28 36 13 68 28 72 33 4 6 8 8 8 3 0
-4 13 -1 30 8 16 8 32 15 35 15 6 0 49 17 139 57 56 25 379 187 444 223 64 36
160 96 203 127 26 18 51 33 57 33 6 0 12 4 14 8 2 4 32 28 68 52 36 25 67 47
70 50 3 3 38 30 78 60 39 30 72 58 72 62 0 5 5 8 10 8 6 0 21 10 34 23 13 12
56 51 96 87 91 80 152 142 255 255 44 49 88 97 98 107 9 10 14 18 10 18 -4 0
0 6 9 13 22 17 138 173 138 185 0 6 4 12 8 14 19 7 162 247 210 351 33 74 22
18 -14 -64z m-5736 -2656 c0 -5 1 -15 5 -23 3 -8 17 -49 30 -90 20 -60 67
-178 114 -287 3 -9 -6 -13 -28 -14 -19 0 -52 -2 -74 -3 -22 -2 -44 1 -50 5 -7
5 -13 397 -6 417 2 6 11 1 9 -5z"/>
<path d="M2385 7933 c-4 -11 0 -11 18 -2 31 16 32 18 8 16 -11 -1 -23 -7 -26
-14z"/>
<path d="M2288 7913 c-10 -2 -18 -8 -18 -13 0 -4 9 -6 20 -3 11 3 20 9 20 14
0 5 -1 8 -2 8 -2 -1 -11 -3 -20 -6z"/>
<path d="M2245 7290 c3 -5 -2 -24 -11 -42 -26 -50 -111 -308 -145 -437 -16
-62 -32 -117 -34 -122 -3 -4 -6 -480 -6 -1056 1 -1027 1 -1050 21 -1128 45
-172 125 -421 168 -517 18 -42 19 -11 19 1635 0 979 -4 1677 -9 1677 -5 0 -6
-4 -3 -10z"/>
<path d="M8664 4206 c-130 -93 -254 -175 -369 -246 -115 -71 -149 -90 -383
-210 -59 -30 -110 -59 -113 -63 -3 -5 -8 -8 -10 -7 -2 1 -65 -27 -139 -63 -74
-35 -146 -68 -158 -72 -13 -4 -48 -18 -78 -31 -30 -13 -56 -24 -59 -24 -3 0
-27 -11 -54 -25 -49 -24 -247 -106 -266 -109 -5 -1 -15 -5 -21 -8 -6 -4 -22
-9 -36 -12 -14 -2 -40 -11 -57 -20 -17 -9 -34 -16 -38 -16 -5 0 -30 -8 -58
-17 -27 -10 -52 -18 -55 -18 -3 -1 -18 -7 -33 -13 -16 -7 -36 -12 -46 -12 -9
0 -22 -5 -29 -12 -7 -7 -12 -8 -12 -4 0 5 -7 3 -15 -4 -8 -7 -15 -9 -15 -6 0
4 -9 2 -21 -4 -11 -7 -33 -14 -47 -16 -15 -3 -48 -11 -73 -20 -25 -8 -54 -16
-65 -19 -10 -2 -57 -15 -104 -28 -81 -24 -140 -38 -157 -39 -5 0 -12 -3 -18
-8 -5 -4 -26 -11 -45 -14 -19 -3 -50 -10 -69 -15 -18 -6 -36 -10 -40 -9 -3 0
-8 -1 -11 -2 -7 -2 -29 -7 -69 -15 -19 -3 -37 -8 -41 -10 -6 -4 -43 -12 -90
-20 -14 -2 -36 -7 -50 -10 -52 -11 -86 -17 -120 -20 -19 -2 -35 -4 -35 -5 0
-1 -11 -3 -25 -5 -42 -4 -113 -16 -155 -25 -22 -5 -67 -12 -100 -15 -33 -4
-62 -9 -65 -10 -3 -2 -38 -6 -77 -10 -67 -6 -108 -12 -108 -15 0 0 -31 -3 -70
-5 -38 -3 -90 -7 -115 -10 -50 -5 -138 -11 -305 -20 -60 -3 -112 -8 -114 -11
-9 -9 -8 -1338 1 -1356 5 -10 15 -18 23 -18 7 0 15 -4 17 -8 2 -4 38 -27 81
-50 l77 -43 1 28 c0 16 0 288 0 606 0 319 2 577 3 575 2 -1 27 -36 56 -77 29
-41 56 -79 61 -85 9 -10 24 -30 89 -116 14 -18 33 -42 43 -53 19 -23 18 25 18
-608 l0 -405 57 -26 c78 -35 96 -41 105 -40 4 1 7 -3 7 -8 0 -6 9 -10 19 -10
19 0 19 13 20 413 0 226 0 416 1 421 0 5 23 -14 52 -43 29 -29 89 -87 134
-128 l81 -74 -1 -340 c-1 -188 2 -346 6 -352 3 -6 12 -12 20 -13 18 -3 140
-45 160 -55 10 -5 18 -4 20 4 2 7 4 141 4 299 -1 265 0 286 15 275 36 -26 165
-118 183 -129 10 -7 29 -21 42 -31 l24 -18 0 -244 0 -243 48 -12 c26 -6 63
-15 82 -19 19 -5 40 -9 45 -11 31 -8 32 3 31 196 -1 108 2 198 6 200 4 3 27
-6 50 -20 24 -14 81 -45 128 -69 l85 -45 0 -161 c0 -88 2 -161 5 -162 3 -1 16
-2 30 -4 14 -2 41 -6 60 -10 70 -12 105 -14 110 -5 3 4 4 62 4 129 l-2 120 32
-14 c17 -7 77 -30 133 -52 l103 -38 1 -40 c0 -22 1 -65 2 -95 l2 -55 35 -3
c19 -1 64 -3 100 -5 l65 -2 3 55 c3 70 8 85 25 72 6 -5 23 -12 37 -15 14 -3
36 -8 50 -12 14 -4 41 -10 60 -15 91 -22 95 -24 95 -61 l0 -34 100 -3 c83 -2
100 0 108 14 7 12 17 14 41 10 17 -3 40 -8 51 -10 11 -2 45 -7 75 -11 30 -4
63 -9 72 -10 196 -37 718 -50 1008 -25 8 0 8 3590 0 3590 -3 -1 -32 -20 -66
-44z"/>
<path d="M3002 2828 c0 -73 4 -141 9 -150 9 -16 115 -143 170 -202 l27 -28 0
236 c0 259 4 241 -55 239 -7 -1 -13 2 -13 6 0 3 -10 7 -22 8 -60 4 -94 9 -105
16 -8 5 -11 -27 -11 -125z"/>
<path d="M3476 2532 l1 -349 42 -41 c23 -22 46 -42 51 -44 5 -2 29 -23 55 -47
25 -24 49 -40 53 -36 11 11 9 836 -3 843 -13 8 -23 10 -120 17 l-80 7 1 -350z"/>
<path d="M3950 2309 l0 -527 33 -21 c18 -11 44 -29 56 -41 13 -11 28 -20 32
-20 4 0 20 -11 35 -25 15 -14 32 -25 39 -25 8 0 11 148 11 592 l-1 591 -102 2
-103 2 0 -528z"/>
</g>
</svg>
