<svg width="43" height="48" fill="none" xmlns="http://www.w3.org/2000/svg"><path d="M9.058 11.977a11.93 11.93 0 003.538 8.47 12.13 12.13 0 008.54 3.508 12.13 12.13 0 008.54-3.508 11.927 11.927 0 003.538-8.47c0-3.176-1.272-6.223-3.537-8.469A12.13 12.13 0 0021.137 0a12.13 12.13 0 00-8.541 3.508 11.927 11.927 0 00-3.538 8.47zm8.917 18.733l1.755 2.901-3.142 11.594-3.397-13.746c-.188-.758-.924-1.254-1.689-1.057C4.897 32.039 0 37.972 0 45.036c0 1.591 1.302 2.873 2.897 2.873h36.479c1.604 0 2.897-1.291 2.897-2.873 0-7.064-4.898-12.997-11.503-14.634-.764-.188-1.5.308-1.689 1.057l-3.396 13.746-3.143-11.594 1.755-2.9c.604-1.002-.122-2.265-1.292-2.265h-3.727c-1.17 0-1.897 1.273-1.293 2.264h-.01z" fill="#fff"/></svg>