<svg width="1111" height="331" fill="none" xmlns="http://www.w3.org/2000/svg"><mask id="a" style="mask-type:luminance" maskUnits="userSpaceOnUse" x="0" y="-1" width="1111" height="332"><path d="M1110.72-.001H0V331h1110.72V-.001z" fill="#fff"/></mask><g mask="url(#a)"><path d="M1190.6-450.875H3.456v896.771H1190.6v-896.771z" fill="#7AB6DD"/><mask id="b" style="mask-type:luminance" maskUnits="userSpaceOnUse" x="3" y="-451" width="1189" height="897"><path d="M1191.01-450.878H3.458v896.771H1191.01v-896.771z" fill="#fff"/></mask><g mask="url(#b)"><path d="M1026.88 329.49c44.84 0 81.2-36.371 81.2-81.236 0-44.866-36.36-81.236-81.2-81.236-44.85 0-81.206 36.37-81.206 81.236 0 44.865 36.356 81.236 81.206 81.236z" fill="#C8E7FA"/><mask id="c" style="mask-type:luminance" maskUnits="userSpaceOnUse" x="945" y="167" width="164" height="163"><path d="M1026.88 329.491c44.84 0 81.2-36.371 81.2-81.236 0-44.866-36.36-81.236-81.2-81.236-44.851 0-81.207 36.37-81.207 81.236 0 44.865 36.356 81.236 81.207 81.236z" fill="#fff"/></mask><g mask="url(#c)" fill="#fff"><path d="M949.938 164.03h-3.423v165.442h3.423V164.03zm8.28 0h-3.423v165.442h3.423V164.03zm8.277 0h-3.423v165.442h3.423V164.03zm8.28 0h-3.422v165.442h3.422V164.03zm8.276 0h-3.423v165.442h3.423V164.03zm8.28 0h-3.423v165.442h3.423V164.03zm8.279 0h-3.422v165.442h3.422V164.03zm8.28 0h-3.43v165.442h3.43V164.03zm8.28 0h-3.42v165.442h3.42V164.03zm8.28 0h-3.43v165.442h3.43V164.03zm8.28 0h-3.43v165.442h3.43V164.03zm8.27 0h-3.42v165.442h3.42V164.03zm8.28 0h-3.42v165.442h3.42V164.03zm8.28 0h-3.42v165.442h3.42V164.03zm8.28 0h-3.42v165.442h3.42V164.03zm8.28 0h-3.42v165.442h3.42V164.03zm8.28 0h-3.43v165.442h3.43V164.03zm8.28 0h-3.42v165.442h3.42V164.03zm8.28 0h-3.43v165.442h3.43V164.03zm8.28 0h-3.43v165.442h3.43V164.03z"/></g><path d="M859.784 329.49c44.847 0 81.203-36.371 81.203-81.236 0-44.866-36.356-81.236-81.203-81.236s-81.203 36.37-81.203 81.236c0 44.865 36.356 81.236 81.203 81.236z" fill="#C8E7FA"/><mask id="d" style="mask-type:luminance" maskUnits="userSpaceOnUse" x="778" y="167" width="163" height="163"><path d="M859.784 329.49c44.847 0 81.203-36.371 81.203-81.236 0-44.866-36.356-81.236-81.203-81.236s-81.203 36.37-81.203 81.236c0 44.865 36.356 81.236 81.203 81.236z" fill="#fff"/></mask><g mask="url(#d)" fill="#fff"><path d="M782.847 164.029h-3.423v165.442h3.423V164.029zm8.282 0h-3.423v165.442h3.423V164.029zm8.275 0h-3.423v165.442h3.423V164.029zm8.281 0h-3.423v165.442h3.423V164.029zm8.277 0h-3.423v165.442h3.423V164.029zm8.279 0h-3.423v165.442h3.423V164.029zm8.28 0h-3.422v165.442h3.422V164.029zm8.278 0h-3.423v165.442h3.423V164.029zm8.28 0h-3.423v165.442h3.423V164.029zm8.278 0h-3.422v165.442h3.422V164.029zm8.277 0h-3.423v165.442h3.423V164.029zm8.278 0h-3.423v165.442h3.423V164.029zm8.282 0h-3.423v165.442h3.423V164.029zm8.278 0h-3.423v165.442h3.423V164.029zm8.279 0h-3.423v165.442h3.423V164.029zm8.278 0h-3.423v165.442h3.423V164.029zm8.278 0h-3.423v165.442h3.423V164.029zm8.278 0h-3.423v165.442h3.423V164.029zm8.279 0h-3.423v165.442h3.423V164.029zm8.281 0h-3.423v165.442h3.423V164.029z"/></g><path d="M692.69 329.49c44.848 0 81.204-36.371 81.204-81.236 0-44.866-36.356-81.236-81.204-81.236-44.847 0-81.203 36.37-81.203 81.236 0 44.865 36.356 81.236 81.203 81.236z" fill="#C8E7FA"/><mask id="e" style="mask-type:luminance" maskUnits="userSpaceOnUse" x="611" y="167" width="163" height="163"><path d="M692.691 329.49c44.848 0 81.204-36.371 81.204-81.236 0-44.866-36.356-81.236-81.204-81.236-44.847 0-81.203 36.37-81.203 81.236 0 44.865 36.356 81.236 81.203 81.236z" fill="#fff"/></mask><g mask="url(#e)" fill="#fff"><path d="M615.751 164.028h-3.423V329.47h3.423V164.028zm8.28 0h-3.423V329.47h3.423V164.028zm8.278 0h-3.423V329.47h3.423V164.028zm8.28 0h-3.423V329.47h3.423V164.028zm8.275 0h-3.423V329.47h3.423V164.028zm8.28 0h-3.423V329.47h3.423V164.028zm8.282 0h-3.423V329.47h3.423V164.028zm8.275 0h-3.423V329.47h3.423V164.028zm8.282 0h-3.422V329.47h3.422V164.028zm8.278 0h-3.423V329.47h3.423V164.028zm8.278 0h-3.423V329.47h3.423V164.028zm8.279 0h-3.422V329.47h3.422V164.028zm8.278 0h-3.423V329.47h3.423V164.028zm8.278 0h-3.423V329.47h3.423V164.028zm8.281 0h-3.423V329.47h3.423V164.028zm8.28 0h-3.422V329.47h3.422V164.028zm8.276 0h-3.423V329.47h3.423V164.028zm8.278 0h-3.423V329.47h3.423V164.028zm8.281 0h-3.422V329.47h3.422V164.028zm8.279 0h-3.423V329.47h3.423V164.028z"/></g><path d="M525.596 329.49c44.847 0 81.203-36.371 81.203-81.236 0-44.866-36.356-81.236-81.203-81.236-44.848 0-81.203 36.37-81.203 81.236 0 44.865 36.355 81.236 81.203 81.236z" fill="#C8E7FA"/><mask id="f" style="mask-type:luminance" maskUnits="userSpaceOnUse" x="444" y="167" width="163" height="163"><path d="M525.595 329.49c44.847 0 81.203-36.371 81.203-81.236 0-44.866-36.356-81.236-81.203-81.236-44.848 0-81.203 36.37-81.203 81.236 0 44.865 36.355 81.236 81.203 81.236z" fill="#fff"/></mask><g mask="url(#f)" fill="#fff"><path d="M448.658 164.031h-3.423v165.442h3.423V164.031zm8.28 0h-3.422v165.442h3.422V164.031zm8.278 0h-3.423v165.442h3.423V164.031zm8.28 0h-3.423v165.442h3.423V164.031zm8.275 0h-3.422v165.442h3.422V164.031zm8.28 0h-3.423v165.442h3.423V164.031zm8.28 0h-3.423v165.442h3.423V164.031zm8.277 0h-3.422v165.442h3.422V164.031zm8.281 0h-3.423v165.442h3.423V164.031zm8.279 0h-3.423v165.442h3.423V164.031zm8.277 0h-3.423v165.442h3.423V164.031zm8.281 0h-3.423v165.442h3.423V164.031zm8.278 0h-3.423v165.442h3.423V164.031zm8.277 0h-3.423v165.442h3.423V164.031zm8.28 0h-3.422v165.442h3.422V164.031zm8.278 0h-3.423v165.442h3.423V164.031zm8.279 0h-3.423v165.442h3.423V164.031zm8.278 0h-3.422v165.442h3.422V164.031zm8.282 0h-3.423v165.442h3.423V164.031zm8.278 0h-3.423v165.442h3.423V164.031z"/></g><path d="M358.504 329.49c44.847 0 81.203-36.371 81.203-81.236 0-44.866-36.356-81.236-81.203-81.236s-81.203 36.37-81.203 81.236c0 44.865 36.356 81.236 81.203 81.236z" fill="#C8E7FA"/><mask id="g" style="mask-type:luminance" maskUnits="userSpaceOnUse" x="277" y="167" width="163" height="163"><path d="M358.504 329.49c44.847 0 81.203-36.371 81.203-81.236 0-44.866-36.356-81.236-81.203-81.236s-81.203 36.37-81.203 81.236c0 44.865 36.356 81.236 81.203 81.236z" fill="#fff"/></mask><g mask="url(#g)" fill="#fff"><path d="M281.57 164.028h-3.423V329.47h3.423V164.028zm8.278 0h-3.423V329.47h3.423V164.028zm8.278 0h-3.423V329.47h3.423V164.028zm8.281 0h-3.423V329.47h3.423V164.028zm8.278 0h-3.422V329.47h3.422V164.028zm8.28 0h-3.423V329.47h3.423V164.028zm8.28 0h-3.423V329.47h3.423V164.028zm8.275 0h-3.422V329.47h3.422V164.028zm8.283 0h-3.423V329.47h3.423V164.028zm8.275 0h-3.423V329.47h3.423V164.028zm8.277 0h-3.422V329.47h3.422V164.028zm8.28 0h-3.423V329.47h3.423V164.028zm8.281 0h-3.423V329.47h3.423V164.028zm8.279 0h-3.423V329.47h3.423V164.028zm8.28 0h-3.423V329.47h3.423V164.028zm8.276 0h-3.423V329.47h3.423V164.028zm8.279 0h-3.423V329.47h3.423V164.028zm8.297 0h-3.423V329.47h3.423V164.028zm8.276 0h-3.422V329.47h3.422V164.028zm8.28 0h-3.423V329.47h3.423V164.028z"/></g><path d="M191.408 329.49c44.847 0 81.203-36.371 81.203-81.236 0-44.866-36.356-81.236-81.203-81.236s-81.203 36.37-81.203 81.236c0 44.865 36.356 81.236 81.203 81.236z" fill="#C8E7FA"/><mask id="h" style="mask-type:luminance" maskUnits="userSpaceOnUse" x="110" y="167" width="163" height="163"><path d="M191.408 329.49c44.847 0 81.203-36.371 81.203-81.236 0-44.866-36.356-81.236-81.203-81.236s-81.203 36.37-81.203 81.236c0 44.865 36.356 81.236 81.203 81.236z" fill="#fff"/></mask><g mask="url(#h)" fill="#fff"><path d="M114.474 164.031h-3.423v165.442h3.423V164.031zm8.28 0h-3.423v165.442h3.423V164.031zm8.277 0h-3.423v165.442h3.423V164.031zm8.28 0h-3.422v165.442h3.422V164.031zm8.278 0h-3.423v165.442h3.423V164.031zm8.279 0h-3.423v165.442h3.423V164.031zm8.28 0h-3.422v165.442h3.422V164.031zm8.278 0h-3.423v165.442h3.423V164.031zm8.28 0h-3.423v165.442h3.423V164.031zm8.277 0h-3.422v165.442h3.422V164.031zm8.279 0h-3.423v165.442h3.423V164.031zm8.279 0h-3.423v165.442h3.423V164.031zm8.28 0h-3.423v165.442h3.423V164.031zm8.293 0h-3.423v165.442h3.423V164.031zm8.281 0h-3.422v165.442h3.422V164.031zm8.278 0h-3.423v165.442h3.423V164.031zm8.28 0h-3.423v165.442h3.423V164.031zm8.278 0h-3.422v165.442h3.422V164.031zm8.28 0h-3.423v165.442h3.423V164.031zm8.277 0h-3.423v165.442h3.423V164.031z"/></g><path d="M24.315 329.49c44.848 0 81.204-36.371 81.204-81.236 0-44.866-36.356-81.236-81.204-81.236-44.847 0-81.203 36.37-81.203 81.236 0 44.865 36.356 81.236 81.203 81.236z" fill="#C8E7FA"/><mask id="i" style="mask-type:luminance" maskUnits="userSpaceOnUse" x="-57" y="167" width="163" height="163"><path d="M24.32 329.491c44.847 0 81.202-36.371 81.202-81.236 0-44.866-36.355-81.236-81.203-81.236-44.847 0-81.203 36.37-81.203 81.236 0 44.865 36.356 81.236 81.203 81.236z" fill="#fff"/></mask><g mask="url(#i)" fill="#fff"><path d="M5.332 164.029H1.909v165.442h3.423V164.029zm8.282 0h-3.423v165.442h3.423V164.029zm8.278 0h-3.423v165.442h3.423V164.029zm8.277 0h-3.423v165.442h3.423V164.029zm8.296 0h-3.423v165.442h3.423V164.029zm8.277 0H43.32v165.442h3.423V164.029zm8.28 0H51.6v165.442h3.422V164.029zm8.28 0h-3.423v165.442h3.423V164.029zm8.279 0h-3.423v165.442h3.423V164.029zm8.28 0H76.44v165.442h3.422V164.029zm8.279 0h-3.423v165.442h3.423V164.029zm8.279 0h-3.423v165.442h3.423V164.029zm8.275 0h-3.423v165.442h3.423V164.029z"/></g><path d="M1026.87 162.325c44.85 0 81.21-36.371 81.21-81.236 0-44.866-36.36-81.236-81.21-81.236-44.844 0-81.2 36.37-81.2 81.236 0 44.865 36.356 81.236 81.2 81.236z" fill="#C8E7FA"/><mask id="j" style="mask-type:luminance" maskUnits="userSpaceOnUse" x="945" y="-1" width="164" height="164"><path d="M1026.87 162.322c44.85 0 81.2-36.37 81.2-81.236 0-44.866-36.35-81.236-81.2-81.236-44.846 0-81.202 36.37-81.202 81.236 0 44.866 36.356 81.236 81.202 81.236z" fill="#fff"/></mask><g mask="url(#j)" fill="#fff"><path d="M949.937-3.133h-3.423V162.31h3.423V-3.133zm8.28 0h-3.423V162.31h3.423V-3.133zm8.277 0h-3.423V162.31h3.423V-3.133zm8.28 0h-3.422V162.31h3.422V-3.133zm8.278 0h-3.423V162.31h3.423V-3.133zm8.279 0h-3.423V162.31h3.423V-3.133zm8.278 0h-3.422V162.31h3.422V-3.133zm8.281 0h-3.43V162.31h3.43V-3.133zm8.28 0h-3.42V162.31h3.42V-3.133zm8.28 0h-3.43V162.31h3.43V-3.133zm8.27 0h-3.42V162.31h3.42V-3.133zm8.28 0h-3.42V162.31h3.42V-3.133zm8.28 0h-3.42V162.31h3.42V-3.133zm8.28 0h-3.42V162.31h3.42V-3.133zm8.28 0h-3.42V162.31h3.42V-3.133zm8.28 0h-3.42V162.31h3.42V-3.133zm8.27 0h-3.42V162.31h3.42V-3.133zm8.28 0h-3.42V162.31h3.42V-3.133zm8.29 0h-3.43V162.31h3.43V-3.133zm8.27 0h-3.42V162.31h3.42V-3.133z"/></g><path d="M859.784 162.324c44.847 0 81.203-36.371 81.203-81.236 0-44.866-36.356-81.236-81.203-81.236s-81.203 36.37-81.203 81.236c0 44.865 36.356 81.236 81.203 81.236z" fill="#C8E7FA"/><mask id="k" style="mask-type:luminance" maskUnits="userSpaceOnUse" x="778" y="-1" width="163" height="164"><path d="M859.785 162.322c44.847 0 81.203-36.37 81.203-81.236 0-44.866-36.356-81.236-81.203-81.236s-81.203 36.37-81.203 81.236c0 44.866 36.356 81.236 81.203 81.236z" fill="#fff"/></mask><g mask="url(#k)" fill="#fff"><path d="M782.846-3.134h-3.423v165.442h3.423V-3.134zm8.28 0h-3.423v165.442h3.423V-3.134zm8.275 0h-3.422v165.442h3.422V-3.134zm8.283 0h-3.423v165.442h3.423V-3.134zm8.277 0h-3.423v165.442h3.423V-3.134zm8.277 0h-3.423v165.442h3.423V-3.134zm8.283 0h-3.423v165.442h3.423V-3.134zm8.277 0h-3.423v165.442h3.423V-3.134zm8.28 0h-3.423v165.442h3.423V-3.134zm8.278 0h-3.422v165.442h3.422V-3.134zm8.278 0h-3.423v165.442h3.423V-3.134zm8.279 0h-3.423v165.442h3.423V-3.134zm8.28 0h-3.422v165.442h3.422V-3.134zm8.278 0h-3.423v165.442h3.423V-3.134zm8.279 0h-3.423v165.442h3.423V-3.134zm8.28 0h-3.423v165.442h3.423V-3.134zm8.276 0h-3.423v165.442h3.423V-3.134zm8.278 0h-3.423v165.442h3.423V-3.134zm8.277 0h-3.423v165.442h3.423V-3.134zm8.283 0h-3.423v165.442h3.423V-3.134z"/></g><path d="M692.69 162.327c44.848 0 81.204-36.371 81.204-81.236 0-44.866-36.356-81.237-81.204-81.237-44.847 0-81.203 36.371-81.203 81.237 0 44.865 36.356 81.236 81.203 81.236z" fill="#C8E7FA"/><mask id="l" style="mask-type:luminance" maskUnits="userSpaceOnUse" x="611" y="-1" width="163" height="164"><path d="M692.691 162.326c44.848 0 81.204-36.371 81.204-81.236 0-44.866-36.356-81.236-81.204-81.236-44.847 0-81.203 36.37-81.203 81.236 0 44.865 36.356 81.236 81.203 81.236z" fill="#fff"/></mask><g mask="url(#l)" fill="#fff"><path d="M615.751-3.132h-3.423V162.31h3.423V-3.132zm8.28 0h-3.423V162.31h3.423V-3.132zm8.278 0h-3.423V162.31h3.423V-3.132zm8.28 0h-3.423V162.31h3.423V-3.132zm8.275 0h-3.423V162.31h3.423V-3.132zm8.28 0h-3.423V162.31h3.423V-3.132zm8.282 0h-3.423V162.31h3.423V-3.132zm8.275 0h-3.423V162.31h3.423V-3.132zm8.282 0h-3.422V162.31h3.422V-3.132zm8.278 0h-3.423V162.31h3.423V-3.132zm8.278 0h-3.423V162.31h3.423V-3.132zm8.279 0h-3.422V162.31h3.422V-3.132zm8.278 0h-3.423V162.31h3.423V-3.132zm8.278 0h-3.423V162.31h3.423V-3.132zm8.281 0h-3.423V162.31h3.423V-3.132zm8.28 0h-3.422V162.31h3.422V-3.132zm8.276 0h-3.423V162.31h3.423V-3.132zm8.278 0h-3.423V162.31h3.423V-3.132zm8.281 0h-3.422V162.31h3.422V-3.132zm8.279 0h-3.423V162.31h3.423V-3.132z"/></g><path d="M525.595 162.326c44.847 0 81.203-36.371 81.203-81.236 0-44.866-36.356-81.236-81.203-81.236-44.848 0-81.203 36.37-81.203 81.236 0 44.865 36.355 81.236 81.203 81.236z" fill="#C8E7FA"/><mask id="m" style="mask-type:luminance" maskUnits="userSpaceOnUse" x="444" y="-1" width="163" height="164"><path d="M525.595 162.321c44.847 0 81.203-36.37 81.203-81.236 0-44.866-36.356-81.236-81.203-81.236-44.848 0-81.203 36.37-81.203 81.236 0 44.866 36.355 81.236 81.203 81.236z" fill="#fff"/></mask><g mask="url(#m)" fill="#fff"><path d="M448.659-3.134h-3.423v165.442h3.423V-3.134zm8.28 0h-3.422v165.442h3.422V-3.134zm8.278 0h-3.423v165.442h3.423V-3.134zm8.28 0h-3.423v165.442h3.423V-3.134zm8.277 0h-3.422v165.442h3.422V-3.134zm8.28 0h-3.423v165.442h3.423V-3.134zm8.278 0h-3.423v165.442h3.423V-3.134zm8.277 0h-3.422v165.442h3.422V-3.134zm8.281 0h-3.423v165.442h3.423V-3.134zm8.279 0h-3.423v165.442h3.423V-3.134zm8.278 0h-3.423v165.442h3.423V-3.134zm8.28 0h-3.423v165.442h3.423V-3.134zm8.278 0h-3.423v165.442h3.423V-3.134zm8.277 0h-3.423v165.442h3.423V-3.134zm8.281 0h-3.422v165.442h3.422V-3.134zm8.281 0h-3.423v165.442h3.423V-3.134zm8.275 0h-3.423v165.442h3.423V-3.134zm8.282 0h-3.422v165.442h3.422V-3.134zm8.278 0h-3.423v165.442h3.423V-3.134zm8.278 0h-3.423v165.442h3.423V-3.134z"/></g><path d="M358.504 162.328c44.847 0 81.203-36.371 81.203-81.236 0-44.866-36.356-81.237-81.203-81.237s-81.203 36.371-81.203 81.237c0 44.865 36.356 81.236 81.203 81.236z" fill="#C8E7FA"/><mask id="n" style="mask-type:luminance" maskUnits="userSpaceOnUse" x="277" y="-1" width="163" height="164"><path d="M358.505 162.33c44.847 0 81.203-36.371 81.203-81.236 0-44.866-36.356-81.237-81.203-81.237s-81.203 36.371-81.203 81.237c0 44.865 36.356 81.236 81.203 81.236z" fill="#fff"/></mask><g mask="url(#n)" fill="#fff"><path d="M281.566-3.129h-3.422v165.442h3.422V-3.129zm8.278 0h-3.423v165.442h3.423V-3.129zm8.278 0h-3.423v165.442h3.423V-3.129zm8.281 0h-3.423v165.442h3.423V-3.129zm8.279 0h-3.423v165.442h3.423V-3.129zm8.279 0h-3.423v165.442h3.423V-3.129zm8.28 0h-3.423v165.442h3.423V-3.129zm8.276 0h-3.423v165.442h3.423V-3.129zm8.282 0h-3.423v165.442h3.423V-3.129zm8.275 0h-3.423v165.442h3.423V-3.129zm8.278 0h-3.423v165.442h3.423V-3.129zm8.279 0h-3.423v165.442h3.423V-3.129zm8.281 0h-3.423v165.442h3.423V-3.129zm8.279 0h-3.422v165.442h3.422V-3.129zm8.28 0h-3.423v165.442h3.423V-3.129zm8.276 0h-3.423v165.442h3.423V-3.129zm8.279 0h-3.422v165.442h3.422V-3.129zm8.297 0H418.9v165.442h3.423V-3.129zm8.277 0h-3.423v165.442h3.423V-3.129zm8.279 0h-3.423v165.442h3.423V-3.129z"/></g><path d="M191.409 162.328c44.847 0 81.203-36.371 81.203-81.236 0-44.866-36.356-81.237-81.203-81.237s-81.203 36.371-81.203 81.237c0 44.865 36.356 81.236 81.203 81.236z" fill="#C8E7FA"/><mask id="o" style="mask-type:luminance" maskUnits="userSpaceOnUse" x="110" y="-1" width="163" height="164"><path d="M191.412 162.33c44.847 0 81.203-36.371 81.203-81.236 0-44.866-36.356-81.237-81.203-81.237s-81.203 36.371-81.203 81.237c0 44.865 36.356 81.236 81.203 81.236z" fill="#fff"/></mask><g mask="url(#o)" fill="#fff"><path d="M114.475-3.13h-3.423v165.44h3.423V-3.131zm8.279 0h-3.423v165.44h3.423V-3.131zm8.276 0h-3.423v165.44h3.423V-3.131zm8.282 0h-3.422v165.44h3.422V-3.131zm8.277 0h-3.423v165.44h3.423V-3.131zm8.28 0h-3.423v165.44h3.423V-3.131zm8.278 0h-3.422v165.44h3.422V-3.131zm8.278 0h-3.423v165.44h3.423V-3.131zm8.28 0h-3.423v165.44h3.423V-3.131zm8.279 0h-3.422v165.44h3.422V-3.131zm8.278 0h-3.423v165.44h3.423V-3.131zm8.28 0h-3.423v165.44h3.423V-3.131zm8.277 0h-3.423v165.44h3.423V-3.131zm8.296 0h-3.423v165.44h3.423V-3.131zm8.279 0h-3.422v165.44h3.422V-3.131zm8.28 0h-3.423v165.44h3.423V-3.131zm8.28 0h-3.423v165.44h3.423V-3.131zm8.275 0h-3.422v165.44h3.422V-3.131zm8.279 0h-3.423v165.44h3.423V-3.131zm8.279 0h-3.423v165.44h3.423V-3.131z"/></g><path d="M24.315 162.324c44.848 0 81.204-36.371 81.204-81.236 0-44.866-36.356-81.236-81.204-81.236-44.847 0-81.203 36.37-81.203 81.236 0 44.865 36.356 81.236 81.203 81.236z" fill="#C8E7FA"/><mask id="p" style="mask-type:luminance" maskUnits="userSpaceOnUse" x="-57" y="-1" width="163" height="164"><path d="M24.317 162.321c44.848 0 81.204-36.37 81.204-81.236 0-44.866-36.356-81.236-81.204-81.236-44.847 0-81.203 36.37-81.203 81.236 0 44.866 36.356 81.236 81.203 81.236z" fill="#fff"/></mask><g mask="url(#p)" fill="#fff"><path d="M5.334-3.134H1.91v165.442h3.423V-3.134zm8.28 0h-3.423v165.442h3.423V-3.134zm8.278 0h-3.423v165.442h3.423V-3.134zm8.278 0h-3.423v165.442h3.423V-3.134zm8.295 0h-3.423v165.442h3.423V-3.134zm8.277 0H43.32v165.442h3.423V-3.134zm8.282 0h-3.422v165.442h3.422V-3.134zm8.278 0h-3.423v165.442h3.423V-3.134zm8.279 0h-3.423v165.442h3.423V-3.134zm8.281 0H76.44v165.442h3.422V-3.134zm8.278 0h-3.423v165.442h3.423V-3.134zm8.277 0h-3.423v165.442h3.423V-3.134zm8.279 0h-3.423v165.442h3.423V-3.134z"/></g><path d="M776.626 79.352c45.062 0 81.591-36.544 81.591-81.624s-36.529-81.624-81.591-81.624c-45.061 0-81.591 36.544-81.591 81.624s36.53 81.624 81.591 81.624z" fill="#C8E7FA"/><mask id="q" style="mask-type:luminance" maskUnits="userSpaceOnUse" x="695" y="-84" width="164" height="164"><path d="M776.626 79.352c45.062 0 81.591-36.544 81.591-81.624s-36.529-81.624-81.591-81.624c-45.061 0-81.591 36.544-81.591 81.624s36.53 81.624 81.591 81.624z" fill="#fff"/></mask><g mask="url(#q)" fill="#fff"><path d="M699.318-86.9h-3.422V79.353h3.422V-86.9zm8.313 0h-3.423V79.353h3.423V-86.9zm8.329 0h-3.423V79.353h3.423V-86.9zm8.312 0h-3.422V79.353h3.422V-86.9zm8.311 0h-3.423V79.353h3.423V-86.9zm8.331 0h-3.423V79.353h3.423V-86.9zm8.313 0h-3.423V79.353h3.423V-86.9zm8.33 0h-3.423V79.353h3.423V-86.9zm8.312 0h-3.423V79.353h3.423V-86.9zm8.311 0h-3.423V79.353h3.423V-86.9zm8.329 0h-3.423V79.353h3.423V-86.9zm8.314 0H787.4V79.353h3.423V-86.9zm8.315 0h-3.423V79.353h3.423V-86.9zm8.325 0h-3.423V79.353h3.423V-86.9zm8.315 0h-3.423V79.353h3.423V-86.9zm8.329 0h-3.422V79.353h3.422V-86.9zm8.315 0h-3.423V79.353h3.423V-86.9zm8.31 0h-3.422V79.353h3.422V-86.9zm8.33 0h-3.423V79.353h3.423V-86.9zm8.312 0h-3.423V79.353h3.423V-86.9z"/></g><path d="M21.973 164.889h4.704c0-44.869 36.352-81.237 81.203-81.237v-4.706c-44.85 0-81.203-36.367-81.203-81.236h-4.704c0 44.869-36.353 81.236-81.203 81.236v4.707c44.85 0 81.203 36.367 81.203 81.236zm167.076 167.162h4.704c0-44.869 36.353-81.236 81.203-81.236v-4.707c-44.85 0-81.203-36.367-81.203-81.236h-4.704c0 44.869-36.353 81.236-81.203 81.236v4.707c44.85 0 81.203 36.367 81.203 81.236z" fill="#7AB6DD"/><path d="M21.973 332.051h4.704c0-44.869 36.352-81.236 81.203-81.236v-4.707c-44.85 0-81.203-36.367-81.203-81.236h-4.704c0 44.869-36.353 81.236-81.203 81.236v4.707c44.85 0 81.203 36.367 81.203 81.236zm334.171-167.162h4.704c0-44.869 36.352-81.237 81.203-81.237v-4.706c-44.851 0-81.203-36.367-81.203-81.236h-4.704c0 44.869-36.353 81.236-81.204 81.236v4.707c44.851 0 81.204 36.367 81.204 81.236z" fill="#7AB6DD"/><path d="M523.236 164.889h4.705c0-44.869 36.352-81.237 81.203-81.237v-4.706c-44.851 0-81.203-36.367-81.203-81.236h-4.705c0 44.869-36.352 81.236-81.203 81.236v4.707c44.851 0 81.203 36.367 81.203 81.236z" fill="#7AB6DD"/><path d="M523.236 332.051h4.705c0-44.869 36.352-81.236 81.203-81.236v-4.707c-44.851 0-81.203-36.367-81.203-81.236h-4.705c0 44.869-36.352 81.236-81.203 81.236v4.707c44.851 0 81.203 36.367 81.203 81.236zm167.096-167.162h4.704c0-44.869 36.353-81.237 81.203-81.237v-4.706c-44.85 0-81.203-36.367-81.203-81.236h-4.704c0 44.869-36.353 81.236-81.203 81.236v4.707c44.85 0 81.203 36.367 81.203 81.236z" fill="#7AB6DD"/><path d="M857.424 164.889h4.704c0-44.869 36.353-81.237 81.203-81.237v-4.706c-44.85 0-81.203-36.367-81.203-81.236h-4.704c0 44.869-36.353 81.236-81.203 81.236v4.707c44.85 0 81.203 36.367 81.203 81.236z" fill="#7AB6DD"/><path d="M857.424 332.051h4.704c0-44.869 36.353-81.236 81.203-81.236v-4.707c-44.85 0-81.203-36.367-81.203-81.236h-4.704c0 44.869-36.353 81.236-81.203 81.236v4.707c44.85 0 81.203 36.367 81.203 81.236zm167.096-167.162h4.7c0-44.869 36.36-81.237 81.21-81.237v-4.706c-44.85 0-81.21-36.367-81.21-81.236h-4.7c0 44.869-36.354 81.236-81.205 81.236v4.707c44.851 0 81.205 36.367 81.205 81.236z" fill="#7AB6DD"/><path d="M1191.61 164.889h4.71c0-44.869 36.35-81.237 81.2-81.237v-4.706c-44.85 0-81.2-36.367-81.2-81.236h-4.71c0 44.869-36.35 81.236-81.2 81.236v4.707c44.85 0 81.2 36.367 81.2 81.236z" fill="#7AB6DD"/></g></g></svg>