<svg width="200" height="41" fill="none" xmlns="http://www.w3.org/2000/svg"><mask id="a" style="mask-type:luminance" maskUnits="userSpaceOnUse" x="0" y="0" width="200" height="41"><path d="M200 0H0v40.56h200V0z" fill="#fff"/></mask><g mask="url(#a)"><path d="M12.683 0c-2.34 0-4.353 1.446-5.21 3.501 3.32.828 5.795 3.857 5.795 7.467 0 .145-.008.29-.016.435 2.85-.29 5.085-2.73 5.085-5.687C18.337 2.565 15.802 0 12.683 0zm7.592 5.28c.008.147.023.29.023.436 0 3.607-2.471 6.635-5.788 7.465.856 2.057 2.868 3.503 5.211 3.503 3.118 0 5.654-2.566 5.654-5.716 0-2.962-2.242-5.404-5.1-5.687zm-.554 13.385c-2.75 0-5.158-1.487-6.496-3.704a5.724 5.724 0 00-1.775 4.15c0 3.15 2.535 5.716 5.652 5.716 3.118 0 5.654-2.566 5.654-5.717 0-.357-.036-.703-.099-1.041a7.498 7.498 0 01-2.936.596zM9.49 19.11a7.72 7.72 0 011.722-4.87 5.564 5.564 0 00-2.947-.846c-3.117 0-5.652 2.563-5.652 5.716 0 3.152 2.535 5.717 5.652 5.717 1.08 0 2.088-.314 2.947-.847a7.718 7.718 0 01-1.722-4.87zM0 10.968c0-3.152 2.536-5.716 5.653-5.716 3.12 0 5.654 2.564 5.654 5.716 0 .356-.037.705-.098 1.043a7.51 7.51 0 00-2.945-.6c-2.748 0-5.154 1.485-6.494 3.699A5.723 5.723 0 010 10.968z" fill="#B10B0B"/><path d="M35.32 6.042c-.212 0-.54.142-.633.213-.072.072-.19.333-.212.879-.025.475-.025 3.42-.048 6.127 0 2.162.048 3.704.048 4.299.023 1.448.093 1.876 1.455 2.231.47.095.658.286.658.5 0 .19-.4.331-.729.331-.61 0-1.95-.142-2.982-.142-.682 0-1.833.095-2.56.095-.54 0-.87-.118-.87-.38 0-.166.33-.357.564-.427 1.15-.285 1.433-.642 1.503-1.734a55.73 55.73 0 00.142-3.705c0-.76 0-6.079-.047-6.767-.07-.831-.189-1.211-1.48-1.378-.306-.048-.54-.213-.54-.356 0-.19.21-.332.493-.38.14-.023.563-.023.775-.023 1.504 0 3.43-.19 4.486-.19 2.255 0 3.781.427 4.744 1.376a4.518 4.518 0 011.363 3.206c0 1.948-.869 2.993-1.55 3.586-.612.523-1.903 1.069-2.82 1.069-.257 0-.914-.047-1.22-.166-.33-.143-.494-.26-.494-.475 0-.096.164-.237.353-.237h.352c.986 0 2.444-1.188 2.444-3.657 0-1.9-1.269-3.895-3.195-3.895zm12.597 1.045c-.797.784-1.643 2.494-1.643 5.32 0 3.656 2.208 7.623 5.637 7.623 1.293 0 2.09-.666 2.396-.975.986-.997 1.809-3.038 1.809-5.58 0-1.875-.729-4.726-2.443-6.317-.8-.712-2.066-1.282-3.1-1.282-1.058 0-2.114.665-2.656 1.211zm11.416 5.652c0 3.11-1.314 5.13-2.959 6.46-1.338 1.044-3.336 1.708-5.143 1.708-2.467 0-4.628-.949-6.107-2.54-1.27-1.378-2.02-3.253-2.02-5.438 0-2.897 1.267-4.749 3.03-6.175 1.056-.83 3.03-1.71 5.002-1.71 5.19 0 8.197 3.895 8.197 7.695zm14.033-7.314c.563.143 1.15.285 1.69.356.164 0 .353.285.353.642.023.664.07 1.495.116 2.184.025.499-.14.903-.398.903-.118 0-.33-.285-.446-.642-.236-.735-.587-1.377-.987-1.686-1.01-.855-2.208-1.378-3.476-1.378-3.736 0-5.496 2.993-5.496 6.603 0 1.59.282 2.968.799 4.013 1.29 2.612 3.428 3.538 5.26 3.538.306 0 1.457-.046 2.278-.546.87-.498 1.504-1.188 2.044-2.16.283-.523.447-.737.636-.737.256 0 .256.617.185.88-.116.592-.492 1.637-.704 2.065-.07.214-.492.594-.844.76-.33.118-1.95.687-4.111.687-3.477 0-5.944-1.566-6.906-2.683-.892-1.044-1.973-2.706-1.973-5.342 0-2.873 1.598-4.892 2.584-5.7 1.996-1.662 4.416-2.137 6.341-2.137a13.1 13.1 0 013.055.38zm4.804-.118c.564 0 1.692.118 2.42.118.704 0 2.067-.095 2.63-.095.47 0 .73.119.73.332 0 .214-.353.333-.611.404-.916.261-1.104.38-1.175 1.449-.048.879-.023 3.538-.023 4.655 0 .095.07.237.163.237 1.268-.095 2.044-.499 2.89-1.876.657-1.092 1.127-1.995 1.715-2.921.94-1.568 2.067-2.565 3.335-2.565.798 0 1.221.332 1.221.997 0 .214-.165.618-.305.76-.188.214-.4.262-.682.214-.257-.048-.562-.119-.798-.119-1.387 0-1.995.997-2.654 2.042-.658 1.046-1.175 1.877-1.527 2.375a.267.267 0 000 .19c.541 1.045 2.63 4.394 3.665 5.771 1.55 2.066 2.159 2.233 3.406 2.517.14.047.375.143.375.262 0 .213-.14.356-.47.451-.329.095-.868.118-1.409.118-2.067 0-3.076-.331-3.993-1.568-.869-1.091-1.855-2.635-2.936-4.369-.776-1.259-1.081-1.662-1.833-1.686-.117 0-.14.167-.163.285 0 1.924.07 4.418.094 5.296.024.474.14.831 1.174 1.093.422.118.681.284.681.475 0 .214-.398.356-.774.356-.518 0-2.138-.048-2.867-.048-.728 0-1.903.095-2.654.095-.353 0-.634-.19-.634-.357 0-.212.187-.332.703-.45 1.129-.261 1.387-.594 1.458-2.042.047-1.188.046-2.826.046-5.367 0-2.779-.046-3.681-.07-4.536-.024-1.116-.234-1.425-1.056-1.663-.612-.166-.777-.333-.777-.499 0-.213.377-.331.705-.331zm19.294 1.78c-.799.784-1.644 2.494-1.644 5.32 0 3.656 2.207 7.623 5.638 7.623a3.35 3.35 0 002.396-.975c.986-.997 1.809-3.038 1.809-5.58 0-1.875-.729-4.726-2.443-6.317-.799-.712-2.067-1.282-3.101-1.282-1.057 0-2.114.665-2.655 1.211zm11.416 5.652c0 3.11-1.315 5.13-2.96 6.46-1.337 1.044-3.336 1.708-5.144 1.708-2.466 0-4.627-.949-6.107-2.54-1.269-1.378-2.02-3.253-2.02-5.438 0-2.897 1.27-4.749 3.03-6.175 1.057-.83 3.03-1.71 5.004-1.71 5.191 0 8.197 3.895 8.197 7.695zm6.329-.523c1.597 0 4.697-.095 7.162-.095.095 0 .189-.237.213-.594.047-.308.047-3.087-.047-4.013-.094-.855-.212-1.092-1.152-1.354-.327-.094-.681-.237-.681-.475 0-.165.235-.308.775-.308.307 0 2.045.071 2.655.071.752 0 2.232-.094 2.513-.094.446 0 .728.118.728.308 0 .238-.211.38-.751.522-.845.19-.986.57-1.034 1.259-.117 1.116-.188 3.253-.188 6.626 0 2.327.071 3.562.094 4.345.023.926.26.997 1.199 1.306.423.143.657.309.657.5 0 .26-.329.331-.752.331-.4 0-1.666-.07-2.373-.07-.517 0-2.395.118-2.866.118-.561 0-.797-.119-.797-.333 0-.213.306-.403.634-.498 1.151-.308 1.198-.498 1.316-2.256.07-.95.094-3.183.046-3.823 0-.214-.094-.31-.189-.31-1.879 0-6.692-.07-7.162-.023-.117.024-.306.214-.306.356-.047.879 0 3.42.024 4.18.023 1.116.165 1.471 1.125 1.757.494.142.824.333.824.594.024.237-.446.308-.752.308-.165 0-2.113-.07-2.935-.07-.541 0-1.738.094-2.538.094-.61 0-.822-.118-.822-.309 0-.26.259-.403.659-.521 1.033-.285 1.243-.547 1.362-1.544.094-.95.211-4.489.211-7.742 0-.713.046-2.019 0-2.968-.048-.785-.259-1.045-1.034-1.283-.539-.166-.798-.332-.798-.523 0-.237.305-.331.729-.331.633 0 1.924.094 2.535.094.987 0 2.044-.071 2.608-.071.493 0 .775.095.775.308 0 .262-.305.404-.799.523-.985.214-1.057.665-1.081 1.638-.046.856-.14 3.61-.069 4.062.023.19.116.309.282.309zm25.033-6.931c.165 0 .306.12.306.261-.046.689-.023 2.21 0 3.017.025.308-.141.76-.328.76-.188 0-.423-.12-.564-.666-.306-1.045-.728-2.137-1.598-2.232-.727-.095-2.489-.071-2.982-.048-.469 0-.587.143-.587.38-.095 1.235-.095 3.373-.095 4.963 0 1.663.024 4.845.024 6.531.024 1.023.399 1.26 1.481 1.52.351.118.609.286.609.475 0 .19-.282.357-.705.357-.586 0-2.018-.12-2.911-.12-.869 0-2.348.143-2.819.143-.376 0-.634-.214-.634-.332 0-.262.281-.428.704-.523 1.01-.237 1.105-.641 1.15-1.187.072-.737.26-2.161.26-6.816 0-2.208 0-3.657-.048-4.274-.046-.784-.212-1.069-1.128-1.283-.516-.142-.703-.285-.703-.523 0-.165.328-.308.68-.308 1.034 0 1.951.071 2.889.071h3.054c3.101 0 3.664-.094 3.945-.166zm8.034.757c-.211 0-.542.142-.636.213-.069.072-.186.333-.211.879-.022.475-.022 3.42-.045 6.127 0 2.162.045 3.704.045 4.299.025 1.448.095 1.876 1.458 2.231.469.095.657.286.657.5 0 .19-.399.331-.727.331-.613 0-1.949-.142-2.983-.142-.683 0-1.833.095-2.561.095-.541 0-.87-.118-.87-.38 0-.166.329-.357.565-.427 1.151-.285 1.433-.642 1.502-1.734.071-.949.142-2.493.142-3.705 0-.76 0-6.079-.047-6.767-.072-.831-.19-1.211-1.481-1.378-.306-.048-.539-.213-.539-.356 0-.19.211-.332.493-.38.14-.023.563-.023.775-.023 1.502 0 3.429-.19 4.486-.19 2.255 0 3.783.427 4.746 1.376a4.511 4.511 0 011.361 3.206c0 1.948-.869 2.993-1.552 3.586-.609.523-1.9 1.069-2.816 1.069-.259 0-.917-.047-1.221-.166-.33-.143-.495-.26-.495-.475 0-.096.165-.237.352-.237h.353c.988 0 2.443-1.188 2.443-3.657 0-1.9-1.27-3.895-3.194-3.895zm16.274-.593c.774 0 1.736-.095 2.066-.142.094-.024.259.142.282.308.024.428.024 2.067.024 2.541 0 .333-.166.665-.375.665-.212 0-.4-.356-.447-.593-.308-1.33-.964-1.687-1.503-1.781-.447-.072-1.456-.167-3.266-.143-.094 0-.283.095-.306.665-.047.594-.117 3.894-.092 5.201 0 .07.092.237.233.237h1.879c1.668 0 1.621-.095 2.068-1.14.14-.356.304-.618.517-.618.187 0 .258.404.234.666-.047.665-.094 1.092-.094 1.638 0 .642.047 1.022.094 1.615.024.428-.118.713-.305.713s-.375-.286-.446-.523c-.307-1.045-.611-1.21-1.527-1.282-.752-.072-1.622-.072-2.349-.072-.093 0-.304.238-.304.286-.096.665-.071 2.516-.048 3.3.023.57 0 1.45.093 1.948.07.214.283.523.517.57.376.07 1.105.142 1.903.142.705 0 1.574 0 2.161-.213.705-.262 1.339-.832 1.855-1.759.33-.617.541-.83.73-.83.234 0 .211.498.187.69 0 .189-.681 2.374-.892 2.754-.07.166-.448.308-.564.308-.259 0-6.061-.119-7.821-.119-1.574 0-1.834.12-2.68.12-.444 0-.799-.072-.799-.31 0-.213.307-.38.706-.475 1.199-.284 1.503-.523 1.597-1.804.071-.999.187-2.803.187-5.747 0-2.802.024-3.895-.023-4.583-.047-.856-.234-1.33-1.244-1.521-.493-.095-.753-.19-.753-.427 0-.214.4-.357.729-.357 1.104 0 3.031.072 4.251.072h3.525zm16.848-.024c.563.143 1.15.285 1.691.356.163 0 .352.285.352.642.023.664.07 1.495.119 2.184.023.499-.143.903-.402.903-.117 0-.328-.285-.446-.642-.234-.735-.587-1.377-.986-1.686-1.01-.855-2.206-1.378-3.476-1.378-3.735 0-5.497 2.993-5.497 6.603 0 1.59.283 2.968.799 4.013 1.292 2.612 3.429 3.538 5.261 3.538.305 0 1.457-.046 2.278-.546.87-.498 1.504-1.188 2.044-2.16.282-.523.448-.737.635-.737.258 0 .258.617.188.88-.119.592-.494 1.637-.706 2.065-.069.214-.492.594-.844.76a12.51 12.51 0 01-4.111.687c-3.475 0-5.942-1.566-6.905-2.683-.893-1.044-1.973-2.706-1.973-5.342 0-2.873 1.595-4.892 2.583-5.7 1.995-1.662 4.415-2.137 6.342-2.137 1.081 0 2.208.166 3.054.38zm16.005 0c.564.143 1.15.285 1.69.356.165 0 .354.285.354.642.023.664.071 1.495.116 2.184.026.499-.141.903-.399.903-.117 0-.328-.285-.444-.642-.237-.735-.589-1.377-.988-1.686-1.01-.855-2.207-1.378-3.476-1.378-3.734 0-5.497 2.993-5.497 6.603 0 1.59.283 2.968.8 4.013 1.291 2.612 3.428 3.538 5.261 3.538.304 0 1.456-.046 2.277-.546.87-.498 1.504-1.188 2.044-2.16.281-.523.448-.737.635-.737.257 0 .257.617.187.88-.118.592-.493 1.637-.705 2.065-.069.214-.492.594-.844.76-.33.118-1.95.687-4.112.687-3.476 0-5.941-1.566-6.905-2.683-.892-1.044-1.972-2.706-1.972-5.342 0-2.873 1.597-4.892 2.583-5.7 1.995-1.662 4.415-2.137 6.341-2.137 1.081 0 2.209.166 3.054.38zM32.72 29.73c-.442.435-.912 1.385-.912 2.955 0 2.031 1.226 4.234 3.131 4.234.717 0 1.174-.37 1.33-.54.55-.555 1.006-1.689 1.006-3.1 0-1.043-.405-2.626-1.357-3.51-.443-.408-1.149-.712-1.722-.712-.587 0-1.174.37-1.475.673zm6.342 3.14c0 1.727-.73 2.848-1.644 3.587-.743.58-1.852.95-2.858.95-1.355 0-2.569-.528-3.391-1.412-.705-.764-1.11-1.807-1.11-3.02 0-1.61.693-2.638 1.67-3.43.587-.461 1.684-.95 2.78-.95 2.883 0 4.553 2.164 4.553 4.274zm5.651-.883c.43 0 .732-.04 1.083-.04.223 0 .353.066.353.159 0 .131-.104.184-.287.237-.457.132-.43.264-.47.54-.013.106-.013.792-.013 1.518 0 .752.013 1.398.04 1.82.026.37.17.436.509.554.208.066.299.145.299.25 0 .106-.169.199-.313.199-.287 0-.978-.053-1.265-.053-.34 0-.666.026-1.058.026-.144 0-.365-.04-.365-.185 0-.132.196-.197.417-.25.262-.066.34-.211.353-.435 0-.304 0-1.082.013-1.966 0-.607-.013-1.477-.04-1.728 0-.092-.039-.158-.116-.171-.523-.013-1.03.013-1.553.013-.104 0-.13.053-.144.171-.013.172-.04 1.161-.052 1.834-.012.62 0 1.556.013 1.768.013.316.092.448.313.514.21.053.3.158.3.237 0 .066-.064.211-.351.211-.092 0-.692-.04-.98-.04-.417 0-.952.04-1.173.04-.222 0-.327-.118-.327-.224 0-.092.13-.171.34-.224.3-.08.351-.172.39-.317.053-.184.093-1.095.105-1.952.013-.739.026-1.372.013-1.596-.013-.343-.09-.435-.47-.54-.195-.053-.287-.146-.287-.225 0-.145.157-.185.34-.185.326 0 .848.04 1.135.04h3.248zm3.641 1.307c-.013.065.04.131.091.131.34.014.745 0 1.396 0 .222 0 .458-.131.458-.448 0-.37-.366-.805-.732-.805-.547 0-1.056.515-1.213 1.122zm2.7-.937c.3.29.496.699.496 1.16 0 .093-.13.317-.286.317H48.42c-.066 0-.13.04-.144.092-.04.106-.052.304-.052.476 0 .29.156.896.404 1.226.326.422.875.66 1.449.66.547 0 .926-.132 1.174-.462.052-.08.117-.158.17-.158.052 0 .116.092.116.171a.74.74 0 01-.104.33c-.404.633-1.017 1.147-2.087 1.147-1.501 0-2.413-1.147-2.413-2.65 0-1.056.573-2.111 1.656-2.613a2.55 2.55 0 011.07-.25c.522 0 1.057.21 1.395.554zm3.433.407a.692.692 0 00-.144.343c-.079.58-.079 1.648-.052 2.348 0 .237.052.461.13.606.274.488.796.753 1.07.753.143 0 .287-.04.443-.159.68-.501.783-1.636.783-1.992 0-.356-.065-1.029-.548-1.57-.286-.33-.769-.488-.978-.488a1.63 1.63 0 00-.704.159zm3.066-.198a2.67 2.67 0 01.638 1.728c0 .963-.417 1.741-1.121 2.295-.731.58-1.553.673-2.01.673-.235 0-.482-.014-.639-.04-.053-.013-.104.12-.104.185-.013.593.013 1.701.051 1.992.04.356.106.553.627.712.262.08.352.185.352.277 0 .119-.208.171-.365.171-.365 0-1.265-.066-1.735-.066-.326 0-.496.04-1.057.04-.222 0-.378-.079-.378-.198 0-.08.13-.184.339-.237.613-.132.691-.29.73-1.069.014-.461.04-1.517.04-2.849 0-.884.013-2.36-.013-2.862-.014-.277-.053-.33-.091-.37-.236-.184-.496-.408-.496-.475 0-.065.143-.25.273-.303.261-.08.98-.303 1.331-.514a.846.846 0 01.262-.119c.051 0 .156.119.156.185-.026.237-.026.409-.04.62 0 .052.066.105.105.092a5.72 5.72 0 01.77-.422c.222-.093.522-.185.9-.185.522 0 1.122.33 1.475.74zm3.053.728c-.013.065.04.131.092.131.338.014.743 0 1.395 0 .222 0 .457-.131.457-.448 0-.37-.365-.805-.73-.805-.548 0-1.057.515-1.214 1.122zm2.7-.937c.3.29.497.699.497 1.16 0 .093-.13.317-.287.317h-2.844c-.066 0-.132.04-.145.092-.038.106-.051.304-.051.476 0 .29.156.896.404 1.226.326.422.875.66 1.448.66.548 0 .927-.132 1.174-.462.053-.08.118-.158.17-.158.053 0 .117.092.117.171 0 .08-.038.224-.104.33-.404.633-1.017 1.147-2.087 1.147-1.501 0-2.413-1.147-2.413-2.65 0-1.056.573-2.111 1.656-2.613.327-.157.718-.25 1.07-.25.522 0 1.057.21 1.395.554zm4.621.527c-.026-.422-.196-.475-.418-.541-.222-.066-.287-.145-.287-.238 0-.092.131-.158.313-.158.092 0 .717.04.979.04.417 0 .834-.04 1.057-.04.22 0 .339.066.339.159 0 .079-.092.158-.262.197-.377.106-.43.33-.443.502 0 .105-.025.739-.025 1.49 0 .04.025.08.077.08.391 0 .666-.185.887-.502.183-.25.274-.435.561-.963.288-.567.757-1.068 1.305-1.068.418 0 .627.224.627.554 0 .356-.249.712-.38.672-.207-.04-.39-.171-.665-.171a.743.743 0 00-.638.383c-.261.408-.34.553-.496.738-.014.013 0 .053.013.066.143.08.313.277.443.475.313.462.849 1.32 1.2 1.82.183.238.444.41.796.502.144.039.21.079.21.184 0 .145-.275.238-.875.238-.757 0-1.148-.238-1.474-.7-.235-.343-.495-.752-.822-1.253-.261-.422-.405-.646-.705-.672-.026 0-.052.053-.052.105 0 .607 0 1.122.013 1.477.013.423.157.475.418.542.182.039.326.118.326.21 0 .145-.157.198-.339.198-.313 0-.705-.04-1.122-.04-.404 0-.744.04-1.044.04-.157 0-.313-.106-.313-.198 0-.105.13-.171.34-.224.286-.079.364-.198.39-.343.026-.158.053-.765.053-1.675 0-.04 0-.079-.053-.079-.183-.013-.443.29-.521.422-.274.396-.562.792-1.018 1.412-.352.474-.782.764-1.5.764-.588 0-.822-.105-.822-.25 0-.08.065-.132.196-.172.378-.118.6-.277.795-.5.365-.423.822-1.122 1.174-1.584.196-.25.43-.488.575-.567.025-.013.038-.04 0-.079-.158-.198-.379-.554-.601-.884-.143-.185-.352-.356-.626-.356-.248 0-.457.119-.64.158-.052 0-.195-.013-.273-.092-.079-.08-.156-.29-.156-.514 0-.317.22-.607.77-.607.626 0 .912.462 1.096.804.39.74.468.977.756 1.333.169.197.456.395.808.395.04 0 .053-.04.053-.066 0-.844.012-1.28 0-1.424zm8.051 3.483c.051-.04.104-.198.104-.25.026-.185.052-.74.052-1.175 0-.053-.052-.132-.092-.132-.221 0-.821.198-1.056.343-.157.12-.235.185-.235.528 0 .58.47.844.718.844.117 0 .378-.08.509-.158zm1.213-3.852c.156.211.287.54.287 1.135 0 .514-.053 2.084-.053 2.229 0 .37.262.527.483.527.066 0 .326-.105.457-.158.04-.026.052-.013.079.013a.54.54 0 01.038.185c0 .25-.612.897-1.344.897-.378 0-.783-.119-.978-.633-.013-.053-.092-.08-.118-.053-.326.237-.86.488-1.03.554a2.015 2.015 0 01-.574.105c-.483 0-1.005-.593-1.005-1.332 0-.237.105-.488.235-.672.13-.185.353-.264.47-.317.287-.119 1.474-.448 1.774-.541.156-.053.235-.145.235-.197.013-.12.04-.845.026-1.016-.013-.317-.288-.845-.874-.845-.182 0-.326.027-.418.093-.052.026-.077.158-.077.607a.167.167 0 01-.053.118c-.09.092-1.057.528-1.148.528-.078 0-.17-.106-.17-.185 0-.383.288-.739 1.096-1.266.483-.317 1.122-.488 1.305-.488.796 0 1.16.422 1.357.712zm5.493.132c0-.12-.039-.264-.09-.264-.093-.027-.106-.04-.302-.04-.56 0-1.056.317-1.056.937 0 .725.626 1.081 1.396 1.094.052 0 .066-.04.066-.092.013-.409 0-1.174-.014-1.635zm2.152-.568c0 .119-.103.25-.312.29-.444.12-.443.278-.457.449 0 .105-.026.66-.026 1.411 0 .792.013 1.517.026 1.979.014.422.236.462.47.54.208.067.325.172.325.278 0 .092-.168.184-.338.184-.092 0-1.136-.04-1.41-.04-.43 0-.626.04-.86.04-.196 0-.379-.065-.379-.198 0-.118.118-.17.313-.224.3-.079.457-.25.483-.395.026-.159.026-1.174.026-1.57 0-.08-.039-.106-.065-.106-.196 0-.417.185-.704.58-.34.45-.574.819-.874 1.228-.366.487-.744.751-1.592.751-.091 0-.391.014-.535-.039-.092-.026-.248-.08-.248-.185s.118-.132.235-.171c.313-.093.587-.238 1.357-1.267.34-.435.69-.79.874-.897.026-.013.026-.039 0-.039-.9-.198-1.357-.712-1.357-1.306 0-.712.43-1.425 2.27-1.425.6 0 1.317.04 1.762.027.26 0 .496-.013.678-.013.144.013.338.026.338.118zm6.592 2.731c-.196-.131-.6-.224-.836-.224-.156 0-.234 0-.351.027-.053.013-.08.066-.092.158-.027.132-.027.633-.014 1.069 0 .25.027.461.144.646.104.145.379.303.51.303.626 0 1.095-.527 1.095-1.134 0-.396-.222-.672-.456-.844zm-.874-2.453c-.183 0-.301.04-.353.08-.04.039-.066.118-.079.29-.013.184-.025 1.12 0 1.319.013.105.066.132.144.132.222 0 .627-.014.835-.093.34-.132.523-.422.523-.804 0-.356-.315-.924-1.07-.924zm1.642 1.913c-.064.013-.025.066.027.092.235.066.522.211.626.29.196.159.47.396.47.937 0 .712-.522 1.174-1.083 1.385-.496.185-1.135.211-1.67.211-.287 0-.574-.013-.913-.013-.418 0-.939.027-1.396.04-.182.013-.339-.106-.339-.212 0-.118.157-.158.326-.197.457-.12.47-.304.496-.62.039-.277.052-.713.052-1.742 0-.514.013-.976-.013-1.49-.013-.33-.052-.435-.495-.567-.158-.04-.287-.145-.287-.304 0-.066.051-.132.273-.132.235 0 .77.04 1.03.04.249 0 1.345-.066 1.762-.066.822 0 1.918.211 1.918 1.253 0 .62-.392.91-.784 1.095zm3.982-1.506a.7.7 0 00-.144.343c-.078.58-.078 1.648-.053 2.348 0 .237.053.461.131.606.274.488.797.753 1.07.753.144 0 .287-.04.444-.159.678-.501.783-1.636.783-1.992 0-.356-.066-1.029-.549-1.57-.287-.33-.77-.488-.978-.488a1.62 1.62 0 00-.704.159zm3.065-.198c.353.409.64 1.016.64 1.728 0 .963-.417 1.741-1.123 2.295-.73.58-1.551.673-2.01.673a4.38 4.38 0 01-.638-.04c-.052-.013-.105.12-.105.185-.013.593.013 1.701.053 1.992.04.356.105.553.626.712.26.08.352.185.352.277 0 .119-.208.171-.365.171-.366 0-1.265-.066-1.736-.066-.325 0-.495.04-1.056.04-.222 0-.378-.079-.378-.198 0-.08.13-.184.338-.237.615-.132.692-.29.732-1.069.013-.461.04-1.517.04-2.849 0-.884.012-2.36-.014-2.862-.013-.277-.053-.33-.092-.37-.234-.184-.495-.408-.495-.475 0-.065.142-.25.274-.303.26-.08.978-.303 1.33-.514a.855.855 0 01.261-.119c.053 0 .157.119.157.185-.027.237-.027.409-.04.62 0 .052.066.105.105.092.235-.158.587-.343.77-.422.221-.093.521-.185.9-.185.523 0 1.122.33 1.474.74zm3.053.728c-.013.065.04.131.092.131.34.014.744 0 1.396 0 .221 0 .456-.131.456-.448 0-.37-.365-.805-.73-.805-.549 0-1.057.515-1.214 1.122zm2.701-.937c.3.29.496.699.496 1.16 0 .093-.13.317-.287.317h-2.844c-.066 0-.131.04-.144.092-.039.106-.052.304-.052.476 0 .29.157.896.404 1.226.327.422.875.66 1.449.66.547 0 .926-.132 1.174-.462.052-.08.117-.158.17-.158.052 0 .117.092.117.171 0 .08-.04.224-.104.33-.404.633-1.019 1.147-2.088 1.147-1.501 0-2.414-1.147-2.414-2.65a2.86 2.86 0 011.657-2.613c.326-.157.718-.25 1.071-.25.521 0 1.056.21 1.395.554zm4.737 2.599c.026.039.066.013.092-.027.17-.29 1.174-2.44 1.292-2.836.025-.053.091-.119.143-.119h.731c.417.014.652-.04 1.017-.04.157 0 .287.014.287.106 0 .133-.117.238-.287.277-.417.12-.535.251-.562.634-.038.752.014 3.007.04 3.297.039.422.235.449.509.541.196.053.3.132.3.211 0 .158-.221.211-.365.211-.392 0-1.03-.04-1.292-.04-.274 0-.626.04-.939.04-.17 0-.391-.066-.391-.211 0-.08.143-.172.364-.237.262-.08.353-.145.379-.449.053-.514.091-2.546.091-3.073 0-.027-.064-.066-.104.04-.6 1.384-1.161 2.637-1.422 3.376-.065.185-.248.448-.378.448-.117 0-.234-.29-.261-.382-.379-1.029-.939-2.269-1.422-3.403-.026-.04-.105-.066-.105 0-.04 1.016-.078 2.335-.039 2.822.026.343.144.528.627.66.195.066.287.145.287.224 0 .12-.131.185-.34.185-.209 0-.6-.04-.861-.04-.431 0-.665.04-.926.04-.17 0-.287-.08-.287-.171 0-.08.065-.159.287-.224.378-.106.561-.357.613-.74.091-.62.208-2.348.208-3.205 0-.29-.181-.448-.613-.567-.247-.066-.299-.145-.299-.224 0-.092.129-.172.352-.172.339 0 .783.066 1.239.066.196 0 .418.014.496.014.065 0 .144.079.157.145.221.554 1.148 2.36 1.382 2.822zm7.803-2.309c0-.12-.039-.264-.092-.264-.092-.027-.105-.04-.3-.04-.562 0-1.057.317-1.057.937 0 .725.627 1.081 1.396 1.094.053 0 .065-.04.065-.092.013-.409 0-1.174-.012-1.635zm2.152-.568c0 .119-.104.25-.313.29-.444.12-.444.278-.457.449 0 .105-.026.66-.026 1.411 0 .792.013 1.517.026 1.979.013.422.234.462.47.54.209.067.326.172.326.278 0 .092-.17.184-.339.184-.091 0-1.135-.04-1.41-.04-.429 0-.626.04-.86.04-.196 0-.378-.065-.378-.198 0-.118.117-.17.312-.224.3-.079.458-.25.484-.395.025-.159.025-1.174.025-1.57 0-.08-.038-.106-.065-.106-.196 0-.418.185-.705.58-.338.45-.574.819-.874 1.228-.365.487-.743.751-1.591.751-.092 0-.392.014-.535-.039-.092-.026-.248-.08-.248-.185s.117-.132.235-.171c.313-.093.587-.238 1.356-1.267.34-.435.692-.79.875-.897.027-.013.027-.039 0-.039-.901-.198-1.358-.712-1.358-1.306 0-.712.431-1.425 2.271-1.425.601 0 1.318.04 1.761.027.261 0 .495-.013.679-.013.143.013.339.026.339.118z" fill="#222"/></g></svg>