<svg width="173" height="62" fill="none" xmlns="http://www.w3.org/2000/svg"><path d="M12.042 44.333a1.264 1.264 0 00-.087-.318c-.297-.705-1.207-1.113-2.164-.969-.561.085-1.061.34-1.407.718-.324.354-.472.775-.417 1.187v.003c.015.11.045.214.087.314.297.707 1.209 1.113 2.163.969 1.127-.168 1.945-1.023 1.825-1.904z" fill="#054975"/><path d="M14.549 45.92a1.268 1.268 0 00-.087-.318c-.26-.616-.989-1.006-1.808-.998-.057 1.01-.92 1.913-2.111 2.184.007.023.01.045.018.067.296.705 1.21 1.113 2.165.969 1.127-.168 1.945-1.023 1.823-1.905zm1.288-2.359a1.268 1.268 0 00-.087-.317c-.295-.705-1.209-1.113-2.164-.97-.561.086-1.06.34-1.406.719-.04.044-.069.09-.104.134.19.187.343.403.445.646.03.07.04.148.06.222.994-.028 1.905.417 2.333 1.15.622-.363 1.008-.964.923-1.584zM41.58 20.986c-.948-.832-2.313-.814-3.098-.572.513-.631 1.71-1.148 2.062-1.209.269.1 1.037.89 1.037 1.78z" fill="#054975"/><path d="M44.614 17.539c-.624-3.34-8.387-1.128-12.295-2.545-.076.974 1.203 2.534 2.426 3.111-2.09 1.814-3.967 5.468-4.345 9.933-.378-4.465-2.253-8.119-4.344-9.933 1.224-.577 2.502-2.137 2.427-3.11-3.909 1.418-11.672-.794-12.297 2.544-.131.706.208 1.784.576 2.094.066-.223.41-.956 1.49-1.122 5.468-.826 10.035 7.603 5.913 11.009-.063.052-.028.148.057.148h12.356c.085 0 .12-.096.057-.148-4.122-3.408.443-11.835 5.912-11.009 1.083.164 1.425.897 1.491 1.12.37-.308.709-1.386.576-2.092zm1.33-7.664c-.098-.315 3.107-.323 3.107 1.683 0 1.345-1.917 1.982-1.917 3.379 0 .65.7 1.127.913 1.127-.494-2.24 1.549-1.068 2.1-.65-1.096-3.013 1.371-2.994 1.13-4.376-.17-.965-2.314-.674-3.091-1.163-1.377-.867-3.006-4.24-4.08-.867 2.002 1.858.838 4.595-1.705 4.595 0 0-.015.4.01.433 3.03-.15 4.086-2.376 3.533-4.16zm-35.365 5.54c.551-.42 2.594-1.593 2.101.65.215 0 .914-.477.914-1.128 0-1.395-1.917-2.034-1.917-3.379 0-2.008 3.207-1.998 3.107-1.683-.554 1.785.504 4.012 3.534 4.161.022-.031.007-.433.007-.433-2.54 0-3.705-2.737-1.705-4.595-1.074-3.373-2.703 0-4.08.867-.777.49-2.92.198-3.09 1.163-.242 1.382 2.225 1.363 1.129 4.377z" fill="#054975"/><path d="M19.186 20.986c.95-.833 2.315-.814 3.098-.572-.511-.632-1.709-1.148-2.06-1.21-.267.1-1.038.89-1.038 1.782zM31.842 2.303L30.364.5l-1.48 1.803 1.48 1.897 1.478-1.897zm8.44 5.45l-1.051-1.28-1.05 1.28 1.05 1.253 1.051-1.253zm-17.734 0l-1.052-1.28-1.052 1.28 1.052 1.253 1.052-1.253z" fill="#054975"/><path d="M19.535 14.033h3.921c3.298 0 4.781-2.024 5.23-3.779h3.354c.449 1.755 1.93 3.78 5.23 3.78h3.92s.687-.93.859-1.392c.62-1.659-.172-2.432-1.327-2.432l-1.493 1.352-1.49-1.352c-1.156 0-1.947.773-1.327 2.432.08.212.267.524.446.797-1.391-.192-3.168-1.144-3.557-3.185 0 0 1.027-1.633 1.286-2.294.926-2.376-.257-3.349-1.99-3.349L30.364 7.24l-2.236-2.628c-1.731 0-2.916.973-1.988 3.35.257.66 1.286 2.295 1.286 2.295-.39 2.04-2.166 2.993-3.557 3.185.18-.273.369-.585.446-.797.618-1.66-.171-2.432-1.326-2.432l-1.493 1.352-1.493-1.352c-1.155 0-1.945.773-1.327 2.432.174.46.86 1.39.86 1.39zm40.548 12.159c-.757.384-5.198 2.463-10.887 1.694.059-.271.109-.545.15-.82 3.786-.452 6.864-1.094 8.825-2.186 2.236-1.244 3.213-4.215 2.085-6.425-.03-.056-.11-.067-.151-.019-.618.712-4.506 4.942-10.632 6.258a10.903 10.903 0 00-.087-.949c2.974-1.687 5.88-3.631 7.263-5.41 2.09-2.689 1.898-6.117-.09-7.865a.093.093 0 00-.076-.022.09.09 0 00-.067.043c-.629 1.039-6.52 10.562-12.99 14.673l-.238.148a.306.306 0 00-.048.496c.745.675 1.208 1.616 1.208 2.66 0 1.817-1.4 3.326-3.25 3.655-.94.182-2.297.129-3.601-.301-.06-.019-.12.02-.12.079v5.752c0 .092.14.116.173.026.792-2.1 3.165-2.545 4.202-2.545.373 2.244 1.04 4.102 1.906 5.102 1.41 1.626 3.715 1.604 4.713.478a.077.077 0 00.018-.068.08.08 0 00-.042-.057c-.587-.338-3.945-2.4-4.617-5.778a6.93 6.93 0 00.773-.317c1.084 1.793 2.661 3.391 3.932 4.002 2.134 1.024 4.088.526 4.953-.973.032-.053-.007-.118-.07-.123-1.32-.105-5.37-1.266-7.095-4.095.197-.18.391-.37.57-.572 1.805 1.373 4.357 2.59 6.184 2.836 2.137.292 4.56-.39 4.618-2.876.002-.05-.044-.09-.096-.087-.76.046-5.79.264-9.375-1.794.123-.236.24-.478.348-.723 0 0 5.418 1.28 7.983.856 2.55-.42 4.045-2.323 3.755-4.687-.004-.06-.072-.096-.127-.066zm-47.831 3.895c.107.246.225.486.348.724-3.583 2.057-8.613 1.84-9.375 1.793a.091.091 0 00-.098.089c.059 2.486 2.48 3.166 4.619 2.877 1.826-.248 4.378-1.464 6.183-2.837.18.202.373.39.57.573-1.725 2.828-5.775 3.989-7.095 4.094-.064.006-.101.072-.07.124.867 1.498 2.82 1.996 4.955.972 1.27-.61 2.847-2.209 3.93-4.002.25.122.507.225.771.317-.671 3.379-4.03 5.44-4.616 5.778a.077.077 0 00-.041.057.083.083 0 00.018.068c.999 1.124 3.303 1.146 4.715-.478.867-1 1.532-2.858 1.906-5.102 1.039 0 3.41.447 4.202 2.545.035.088.175.066.175-.028V31.9c0-.059-.06-.097-.12-.079-1.303.432-2.66.484-3.6.3-1.85-.326-3.251-1.837-3.251-3.653 0-1.044.465-1.985 1.208-2.662a.305.305 0 00-.046-.497c-.081-.048-.16-.098-.242-.147C10.833 21.05 4.945 11.535 4.31 10.489a.097.097 0 00-.144-.02c-1.988 1.749-2.18 5.176-.089 7.862 1.384 1.777 4.289 3.722 7.263 5.41-.042.316-.07.632-.087.95-6.12-1.315-10.006-5.538-10.63-6.255-.04-.047-.126-.038-.153.017-1.126 2.21-.15 5.18 2.085 6.423 1.961 1.091 5.04 1.733 8.826 2.187.04.275.09.548.15.82-5.684.769-10.122-1.307-10.886-1.695a.092.092 0 00-.133.067c-.288 2.365 1.205 4.264 3.755 4.685 2.569.426 7.985-.853 7.985-.853zm20.68 7.749c.703-.26 1.806-.05 1.767.965-.009.23.314.23.338-.005.21-1.52-.817-1.958-1.891-1.781-.133-.522-.244-.98-.367-1.432-.1-.365-.137-1.053.287-1.053.23 0 .137.64.117.915-.019.241.068.387.264.395.121.005.274-.152.367-.255.616-.696.758-1.773.037-2.292-.604-.435-2.113-.11-2.528.51-.063-.235-.362-.62-.506-.788-.14-.165-.175-.277.017-.421.09-.07.367-.343.367-.626 0-.168-.13-.476-.54-.476-.326 0-.687.225-.687.727 0 .11.027.23.1.36a3.71 3.71 0 00-1.05.05l3.96 10.868c1.132-.559 1.965-1.444 1.965-2.397 0-.81-1.194-.542-1.774.09-.186-1.027-.352-1.975-.533-2.92-.052-.262.081-.355.29-.434zm-5.228-7.514c-.1-.255-.46-.133-.37.13l.831 2.313c-.712.17-1.858.688-1.858 1.376 0 .916 1.62 1.514 2.558 1.442a.62.62 0 00.153.564c-.34 0-.982.159-1.192.386-.496-.463-1.275-.631-1.644-.349-.371.284-.382.764.005 1.308.27.377.371.748.069 1.183 1.129 0 .714-1.469 1.155-1.469-.058.284-.022.615.107.98.085.244.085.415-.061.65-.364.583-.932 1.92-.855 3.13-.37-.003-.559-.093-.428-.599.048-.188-.068-.322-.221-.09-.17.256-.253.692-.253.88 0 1.078 1.283 1.294 1.774 1.067 1.417 1.37 4.2 1.005 5.131.546l-4.9-13.448zm-.54 11.206c-.102-.554.67-1.543 1.647-2.498-.208.621-.08 1.693.33 2.063-.71.001-1.555.136-1.977.435zM9.904 50.24c.46.096.947.147 1.45.147 2.287 0 4.228-1.053 4.876-2.5a10.39 10.39 0 01-.277-2.015.042.042 0 00-.004-.015 5.3 5.3 0 00-.085-.703c-.205.224-.45.423-.734.576.007.035.022.066.028.102.166 1.214-.884 2.378-2.34 2.598a3.092 3.092 0 01-.467.035c-1.054 0-2.002-.536-2.355-1.375-.03-.07-.042-.146-.062-.22-.03 0-.061.008-.09.008-.429 0-.835-.093-1.195-.253.128.877.333 1.729.67 2.511.164.388.362.755.585 1.104zm7.839 1.115c-.473 1.32-2.023 2.322-3.918 2.473 1.864 1.076 3.77 1.615 4.807 1.561-.033-.317.447-1.684.86-2.094a9.314 9.314 0 01-1.75-1.94z" fill="#054975"/><path d="M50.59 45.122a1.258 1.258 0 00-1.696.532.746.746 0 01-.801.382l.729-1.395a1.21 1.21 0 001.092-.646 1.214 1.214 0 10-2.151-1.127 1.21 1.21 0 00.092 1.267l-.73 1.395a.744.744 0 01-.143-.874 1.258 1.258 0 00-.532-1.696l-4.007-2.096-.117.223a1.256 1.256 0 00.34 1.568 1.256 1.256 0 00.424 1.357 1.258 1.258 0 00.617 1.483l.706.37c-.022.005-.046.003-.066.008-.31.09-.543.275-.687.552-.306.585.148 1.192.818 1.866a2.428 2.428 0 00-.563.096.019.019 0 00-.004-.01c-1.186.166-4.423-.551-4.109-1.03 3.547-4.989.834-7.96-2.426-7.794v3.352c0 1.075-.94 1.948-2.097 1.948h-2.25c-1.616 0-2.667 1.624-2.667 1.624s-1.052-1.624-2.667-1.624h-2.25c-1.158 0-2.095-.873-2.095-1.949v-3.35c-3.26-.167-5.977 2.804-2.428 7.794.295.446-2.67 1.148-4.311 1.057-.854 1.502-2.888 2.563-5.257 2.563a7.66 7.66 0 01-.98-.063c.714.92 1.602 1.702 2.54 2.348.136.009.274.014.412.014 2.132 0 3.872-1.164 3.975-2.622-.048-.085-.098-.17-.144-.258 1.36-.805 3.565-1.358 5.43-1.358.357 0 .523-.3.401-.596-.915-2.203 1.054-3.8 3.09-2.5.89.566 1.793 1.682 2.472 3.544-3.344.81-7.54 3.04-8.389 5.473-.326.94.753 2.222 2.065 2.478a.09.09 0 00.107-.07c.685-3.633 4.593-6.342 6.626-6.801l.172.457c-2.214 1.048-4.362 3.257-4.975 5.883-.28 1.203 1.06 2.286 2.167 2.583.055.015.11-.024.112-.077.21-3.322 1.677-6.141 2.991-7.424.037.251.063.502.081.755 0 0-1.345 3.748-1.345 6.483 0 1.27 1.892 2.16 2.17 2.284.349-.124 2.239-1.013 2.239-2.284 0-2.735-1.346-6.483-1.346-6.483.019-.253.046-.506.081-.755 1.312 1.283 2.781 4.102 2.99 7.424a.09.09 0 00.112.08c1.11-.298 2.449-1.381 2.169-2.584-.615-2.626-2.76-4.835-4.975-5.883l.17-.457c2.035.459 5.941 3.168 6.626 6.801a.09.09 0 00.039.057c.02.013.044.017.068.013 1.31-.258 2.393-1.539 2.063-2.478-.847-2.434-5.045-4.663-8.389-5.473.681-1.862 1.584-2.978 2.473-3.545 2.037-1.299 4.006.297 3.09 2.5-.121.296.045.597.401.597 1.484 0 3.189.348 4.51.897-.022.662.334 1.367.963 1.902l.011.018s0 .002.002.002c-.555.11-1.066.323-1.406.79-.432.594-.49 1.487-.184 2.718l-.661 1.83a.246.246 0 00.12.286c.103.054.23.028.303-.064l1.127-1.589c1.183-.452 1.884-1.007 2.126-1.701.19-.544.073-1.087-.154-1.605 1.108.313 2.207.007 2.641-.822.305-.58.205-1.284-.183-1.906.923.163 1.672.185 1.978-.396a1.09 1.09 0 00.063-.879c-.007-.02-.022-.04-.03-.06l.71.37a1.26 1.26 0 001.57-.34 1.256 1.256 0 001.356-.424 1.258 1.258 0 001.483-.616l.117-.223-4.016-2.097zm-8.033 9.216c-.015-.432.14-1.006.304-1.233.119-.162.34-.282.543-.365l-.847 1.598zm1.746-.48c-.093.266-.49.718-.855.952l.87-1.64c.044.208.05.502-.015.688zm1.36-5.525l-.111-.107c-.386-.369-1.292-1.233-1.185-1.434a.303.303 0 01.203-.156c.43-.126 1.216.164 1.757.428l-.664 1.27zm2.967.69c-.105.201-1.333-.048-1.855-.155l-.145-.03.662-1.267c.522.294 1.207.773 1.349 1.198a.292.292 0 01-.011.254zM75.742 26.32l-.008-3.773-1.87 3.144h-.34l-1.871-3.122v3.751h-.71v-5.177h.606l2.161 3.638 2.132-3.638h.607l.007 5.177h-.714zm2.203-3.922h.71v2.855l2.405-2.855h.644v3.922h-.71v-2.855l-2.397 2.855h-.652v-3.922zm5.135 0h.71v1.665h2.235v-1.665h.71v3.922h-.71v-1.643H83.79v1.643h-.71v-3.922zm5.037 0h.71v2.855l2.405-2.855h.644v3.922h-.71v-2.855l-2.397 2.855h-.652v-3.922zm5.773 3.707a1.901 1.901 0 01-.736-.714 2.006 2.006 0 01-.265-1.031c0-.384.088-.729.265-1.032.178-.302.423-.54.737-.71a2.21 2.21 0 011.068-.255c.354 0 .672.072.95.214.279.144.495.35.648.622l-.54.347a1.224 1.224 0 00-.46-.422 1.302 1.302 0 00-.607-.14c-.257 0-.487.056-.692.169a1.22 1.22 0 00-.482.485c-.116.21-.173.45-.173.722 0 .277.057.518.173.729.117.21.277.37.482.485.205.114.435.17.692.17.221 0 .424-.046.607-.14a1.21 1.21 0 00.46-.423l.54.34c-.153.27-.369.48-.648.625a2.02 2.02 0 01-.95.218 2.19 2.19 0 01-1.068-.259zm6.455-3.085H98.91v3.3h-.71v-3.3h-1.436v-.622h3.579v.622h.002zm4.085 1.576h-3.181c.044.345.195.624.455.832.259.21.582.314.965.314.469 0 .845-.157 1.131-.473l.392.458a1.727 1.727 0 01-.663.474 2.3 2.3 0 01-.884.163c-.415 0-.782-.085-1.101-.255a1.813 1.813 0 01-.744-.714 2.049 2.049 0 01-.262-1.035c0-.38.085-.723.255-1.028.169-.306.404-.544.703-.714.299-.17.635-.255 1.009-.255.375 0 .709.085 1.002.255.293.17.522.408.688.714a2.18 2.18 0 01.235 1.264zm-2.779-1.325a1.244 1.244 0 00-.402.814h2.515c-.039-.33-.174-.6-.403-.81a1.215 1.215 0 00-.854-.316c-.34 0-.626.105-.856.312zm6.994-.657c.301.168.537.402.707.703.169.3.254.65.254 1.043 0 .395-.085.743-.254 1.046-.17.303-.406.539-.707.707-.301.168-.64.25-1.02.25-.281 0-.539-.053-.774-.162a1.606 1.606 0 01-.596-.474v2.026h-.71v-5.355h.681v.622c.159-.218.358-.38.6-.493a1.89 1.89 0 01.799-.166c.378 0 .719.085 1.02.253zm-.404 2.954a1.26 1.26 0 00.474-.489c.116-.21.174-.45.174-.721 0-.271-.058-.511-.174-.722a1.223 1.223 0 00-.474-.485 1.336 1.336 0 00-.677-.17c-.248 0-.471.057-.67.174a1.262 1.262 0 00-.474.485 1.433 1.433 0 00-.174.718c0 .271.057.511.17.721.112.21.271.373.474.49.201.116.426.173.674.173.252 0 .478-.057.677-.174zm3.033.537a1.905 1.905 0 01-.736-.714 2.008 2.008 0 01-.266-1.031c0-.384.089-.729.266-1.032.177-.302.423-.54.736-.71.314-.17.67-.255 1.069-.255.354 0 .671.072.95.214.279.144.495.35.648.622l-.541.347a1.223 1.223 0 00-.459-.422 1.303 1.303 0 00-.607-.14 1.41 1.41 0 00-.692.169 1.218 1.218 0 00-.482.485c-.116.21-.173.45-.173.722 0 .277.057.518.173.729.116.21.277.37.482.485.204.114.435.17.692.17.221 0 .424-.046.607-.14.182-.095.336-.235.459-.423l.541.34c-.153.27-.369.48-.648.625a2.021 2.021 0 01-.95.218 2.19 2.19 0 01-1.069-.259zm6.455-3.085h-1.436v3.3h-.71v-3.3h-1.436v-.622h3.58v.622h.002zm4.157 2.22c0 .345-.129.61-.387.8-.258.186-.644.28-1.157.28h-1.886v-3.922h1.819c.464 0 .827.087 1.087.262a.842.842 0 01.392.744.883.883 0 01-.167.537 1.01 1.01 0 01-.463.343c.508.13.762.447.762.956zm-2.738-1.155h1.065c.271 0 .476-.05.618-.148a.492.492 0 00.21-.43c0-.374-.277-.562-.828-.562h-1.065v1.14zm1.807 1.546c.147-.094.221-.24.221-.437 0-.203-.068-.352-.203-.452-.137-.098-.349-.148-.64-.148h-1.183v1.176h1.138c.296.002.517-.045.667-.139zm2.669.474a1.893 1.893 0 01-.729-.714 2.025 2.025 0 01-.262-1.031c0-.384.087-.729.262-1.032a1.86 1.86 0 01.729-.71c.31-.17.66-.255 1.05-.255.389 0 .738.085 1.046.255.308.17.55.406.725.71.175.303.262.648.262 1.032s-.087.729-.262 1.031a1.891 1.891 0 01-.725.714 2.113 2.113 0 01-1.046.259c-.39 0-.74-.087-1.05-.259zm1.727-.537c.199-.116.356-.278.469-.489.114-.21.169-.45.169-.721a1.51 1.51 0 00-.169-.721 1.213 1.213 0 00-.469-.486 1.336 1.336 0 00-.677-.17c-.251 0-.476.058-.678.17a1.237 1.237 0 00-.474.486c-.116.21-.173.45-.173.721 0 .271.057.511.173.721.116.21.273.373.474.49.2.116.427.173.678.173.252 0 .478-.057.677-.174zM73.038 31.49c.323.174.576.412.758.719.183.306.273.649.273 1.027 0 .384-.09.731-.273 1.035a1.92 1.92 0 01-.758.718 2.274 2.274 0 01-1.083.259c-.345 0-.657-.054-.936-.163a1.867 1.867 0 01-.707-.474l.416-.415c.315.312.716.467 1.197.467.384 0 .713-.11.984-.329.271-.22.433-.507.489-.862H71.43v-.525h1.952a1.32 1.32 0 00-.496-.825 1.503 1.503 0 00-.962-.316c-.478 0-.878.159-1.197.474l-.415-.405a1.83 1.83 0 01.71-.482c.28-.109.592-.163.932-.163.398.002.76.089 1.083.26zm3.56 2.051h-.813V35.2h-.71v-3.922h.71v1.657h.828l1.273-1.657h.763l-1.488 1.886 1.59 2.034h-.835l-1.318-1.656zm3.396 1.443a1.895 1.895 0 01-.729-.714 2.022 2.022 0 01-.262-1.031c0-.384.087-.73.262-1.032a1.86 1.86 0 01.729-.71c.312-.17.66-.255 1.05-.255s.738.085 1.046.255c.308.17.55.406.725.71.175.303.262.648.262 1.032s-.087.729-.262 1.031c-.175.303-.417.54-.725.714a2.114 2.114 0 01-1.046.259c-.39 0-.74-.087-1.05-.259zm1.727-.537c.2-.116.356-.278.47-.489.115-.21.17-.45.17-.721 0-.271-.057-.511-.17-.722a1.206 1.206 0 00-.47-.485c-.2-.114-.426-.17-.677-.17a1.36 1.36 0 00-.677.17c-.2.114-.358.275-.475.485-.116.21-.173.45-.173.722 0 .271.057.511.173.721.117.21.273.373.475.49.199.116.424.173.677.173.253 0 .478-.057.677-.174zm2.386-3.17h.71v1.665h2.235v-1.665h.71V35.2h-.71v-1.643h-2.234V35.2h-.71v-3.922zm5.666 3.707a1.896 1.896 0 01-.729-.714 2.023 2.023 0 01-.262-1.031c0-.384.087-.73.262-1.032.175-.302.42-.54.73-.71.31-.17.66-.255 1.05-.255.388 0 .737.085 1.045.255.308.17.55.406.725.71.176.303.263.648.263 1.032s-.087.729-.263 1.031c-.175.303-.416.54-.725.714a2.114 2.114 0 01-1.046.259c-.39 0-.74-.087-1.05-.259zm1.727-.537c.2-.116.356-.278.469-.489.114-.21.17-.45.17-.721 0-.271-.057-.511-.17-.722a1.2 1.2 0 00-.469-.485 1.34 1.34 0 00-.677-.17c-.25 0-.476.058-.677.17a1.23 1.23 0 00-.474.485c-.117.21-.174.45-.174.722 0 .271.057.511.174.721.116.21.273.373.474.49.2.116.426.173.677.173.251 0 .478-.057.677-.174zm6.906-3.17V35.2h-.644v-2.864l-1.465 2.419h-.311l-1.45-2.427V35.2h-.652v-3.922h.732l1.54 2.648 1.582-2.648h.668zm1.384 0h.71v2.855l2.405-2.855h.644V35.2h-.711v-2.855l-2.397 2.855h-.651v-3.922zm8.263 0V35.2h-.711v-1.584a2.981 2.981 0 01-1.266.295c-.489 0-.865-.112-1.132-.339-.266-.227-.399-.566-.399-1.02v-1.274h.71v1.23c0 .27.085.475.255.614.17.138.408.206.714.206.345 0 .718-.086 1.116-.258v-1.79h.713v-.002zm4.904 2.198h-3.181c.044.345.195.624.456.832.258.21.581.314.965.314.468 0 .845-.157 1.131-.473l.391.458a1.73 1.73 0 01-.662.474c-.264.11-.56.163-.884.163a2.31 2.31 0 01-1.102-.255 1.819 1.819 0 01-.744-.714 2.049 2.049 0 01-.262-1.035c0-.38.085-.724.255-1.028.17-.306.404-.544.703-.714.299-.17.635-.255 1.009-.255.375 0 .709.085 1.002.255.294.17.523.408.689.714a2.192 2.192 0 01.234 1.264zm-2.779-1.325a1.249 1.249 0 00-.402.814h2.515c-.039-.33-.174-.6-.402-.81a1.218 1.218 0 00-.855-.316 1.245 1.245 0 00-.856.312zm4.536 2.834a1.899 1.899 0 01-.736-.714 1.998 1.998 0 01-.266-1.031c0-.384.088-.73.266-1.032a1.87 1.87 0 01.736-.71 2.21 2.21 0 011.068-.255c.355 0 .672.072.951.214.278.144.494.35.647.622l-.54.347a1.225 1.225 0 00-.46-.423 1.303 1.303 0 00-.607-.14 1.41 1.41 0 00-.692.17 1.223 1.223 0 00-.482.485c-.116.21-.173.45-.173.722 0 .277.057.518.173.729.117.21.277.37.482.485a1.4 1.4 0 00.692.17c.221 0 .424-.046.607-.14a1.21 1.21 0 00.46-.423l.54.34a1.56 1.56 0 01-.647.625 2.022 2.022 0 01-.951.218 2.19 2.19 0 01-1.068-.259zm5.108-1.443h-.814V35.2h-.71v-3.922h.71v1.657h.829l1.273-1.657h.762l-1.487 1.886 1.59 2.034h-.835l-1.318-1.656zm3.395 1.443a1.891 1.891 0 01-.728-.714 2.015 2.015 0 01-.262-1.031c0-.384.086-.73.262-1.032.175-.302.418-.54.728-.71.312-.17.661-.255 1.05-.255.39 0 .739.085 1.047.255.308.17.55.406.725.71.175.303.262.648.262 1.032s-.087.729-.262 1.031c-.175.303-.417.54-.725.714a2.115 2.115 0 01-1.047.259 2.14 2.14 0 01-1.05-.259zm1.728-.537a1.23 1.23 0 00.47-.489c.115-.21.17-.45.17-.721a1.5 1.5 0 00-.17-.722 1.2 1.2 0 00-.47-.485c-.2-.114-.427-.17-.678-.17a1.36 1.36 0 00-.677.17 1.237 1.237 0 00-.474.485c-.116.21-.173.45-.173.722 0 .271.057.511.173.721.116.21.273.373.474.49.199.116.425.173.677.173.253 0 .478-.057.678-.174zm5.273-2.547h-2.176v3.299h-.71v-3.922h2.886v.622zm1.181 3.084a1.9 1.9 0 01-.729-.714 2.025 2.025 0 01-.262-1.031c0-.384.087-.73.262-1.032a1.87 1.87 0 01.729-.71c.31-.17.661-.255 1.05-.255s.738.085 1.046.255c.308.17.55.406.725.71.176.303.263.648.263 1.032s-.087.729-.263 1.031c-.175.303-.417.54-.725.714a2.114 2.114 0 01-1.046.259 2.14 2.14 0 01-1.05-.259zm1.727-.537c.2-.116.356-.278.469-.489.114-.21.17-.45.17-.721a1.51 1.51 0 00-.17-.722 1.199 1.199 0 00-.469-.485 1.336 1.336 0 00-.677-.17 1.36 1.36 0 00-.677.17 1.237 1.237 0 00-.474.485c-.117.21-.174.45-.174.722 0 .271.057.511.174.721.116.21.273.373.474.49.199.116.426.173.677.173.253 0 .478-.057.677-.174zm7.475-2.956c.301.168.537.402.707.703.169.3.254.65.254 1.043 0 .395-.085.743-.254 1.046-.17.303-.406.539-.707.707-.301.168-.64.25-1.02.25-.281 0-.539-.053-.774-.162a1.605 1.605 0 01-.596-.474v2.026h-.71v-5.355h.681v.622c.159-.218.358-.38.6-.493.241-.11.507-.166.799-.166.38.002.719.087 1.02.253zm-.402 2.956a1.26 1.26 0 00.474-.489c.116-.21.173-.45.173-.721 0-.272-.057-.511-.173-.722a1.223 1.223 0 00-.474-.485c-.2-.114-.427-.17-.677-.17-.248 0-.471.057-.67.174-.2.116-.358.276-.475.485a1.443 1.443 0 00-.173.718c0 .27.057.51.17.721.112.21.271.373.474.49.201.115.426.173.674.173.25 0 .477-.058.677-.174zm5-2.807c.288.267.434.663.434 1.191v2.367h-.674v-.518a1.134 1.134 0 01-.507.419c-.22.096-.48.144-.781.144-.439 0-.79-.107-1.053-.318a1.02 1.02 0 01-.395-.836c0-.345.125-.621.376-.832.251-.21.651-.313 1.198-.313h1.125v-.14c0-.307-.088-.541-.265-.704-.178-.162-.44-.243-.785-.243-.232 0-.459.038-.681.114a1.764 1.764 0 00-.562.306l-.296-.533a2.14 2.14 0 01.726-.373c.28-.086.579-.129.895-.129.54-.002.957.131 1.245.399zm-.707 2.874c.198-.122.34-.292.43-.515v-.548h-1.094c-.602 0-.902.203-.902.607a.55.55 0 00.229.467c.153.114.365.17.636.17.27 0 .504-.06.701-.181zm5.083-1.025a.8.8 0 01.214.57.915.915 0 01-.236.618 1.568 1.568 0 01-.655.423 2.723 2.723 0 01-.936.151c-.291 0-.575-.039-.854-.114a2.594 2.594 0 01-.744-.329l.214-.54c.187.118.403.21.644.276.242.067.486.1.733.1.336 0 .603-.057.803-.173.199-.117.298-.274.298-.471a.474.474 0 00-.239-.423c-.161-.097-.386-.147-.678-.147h-.717v-.51h.666c.265 0 .476-.046.629-.14.153-.094.229-.221.229-.384 0-.177-.091-.315-.27-.415-.179-.098-.422-.147-.729-.147-.389 0-.8.101-1.236.302l-.192-.548a3.283 3.283 0 011.502-.361c.316 0 .6.044.851.132.251.089.448.214.592.377a.82.82 0 01.214.555.788.788 0 01-.192.519c-.127.153-.3.27-.518.347.262.068.465.179.607.332zm4.727.63c0 .345-.129.61-.387.799-.259.186-.646.28-1.157.28h-1.888v-3.92h1.82c.463 0 .826.086 1.086.261a.842.842 0 01.392.744.89.89 0 01-.166.537 1.02 1.02 0 01-.464.343c.51.13.764.447.764.956zm-2.736-1.155h1.064c.272 0 .478-.05.619-.148a.492.492 0 00.21-.43c0-.374-.277-.563-.829-.563h-1.064v1.14zm1.804 1.546c.148-.094.222-.24.222-.437 0-.203-.068-.352-.203-.452-.137-.098-.349-.148-.64-.148h-1.183v1.176h1.138c.296.002.519-.045.666-.139zm2.043-3.233h.711v2.855l2.404-2.855h.644V35.2h-.711v-2.855l-2.397 2.855h-.651v-3.922zm8.055.623h-1.435v3.299h-.711v-3.3h-1.435v-.622h3.579v.622h.002zm.724-.623h.711v2.855l2.404-2.855h.644V35.2h-.71v-2.855l-2.397 2.855h-.652v-3.922zm8.28 0V35.2h-.637v-1.244h-1.22l-.858 1.244h-.762l.954-1.34a1.308 1.308 0 01-.681-.441c-.158-.205-.236-.46-.236-.766 0-.448.153-.79.459-1.024.307-.234.728-.35 1.264-.35h1.717zm-2.468 1.98c.167.126.414.189.744.189h1.087v-1.547h-1.057c-.681 0-1.021.258-1.021.777 0 .262.081.454.247.581zm-95.462 6.119c.384.321.578.762.578 1.323 0 .563-.192 1.004-.578 1.325-.384.321-.911.482-1.583.482h-1.28v1.568h-.74v-5.177h2.018c.674-.002 1.201.158 1.585.48zm-.531 2.187c.247-.2.369-.487.369-.862 0-.374-.124-.662-.37-.862-.246-.199-.603-.298-1.071-.298H71.68v2.323h1.259c.467-.002.825-.102 1.072-.301zm2.633 2.297a1.896 1.896 0 01-.729-.715 2.022 2.022 0 01-.262-1.031c0-.384.087-.73.262-1.032.176-.302.42-.54.73-.71.31-.17.66-.255 1.05-.255.389 0 .737.085 1.045.255.309.17.55.406.726.71.175.303.262.648.262 1.032s-.087.729-.262 1.031a1.9 1.9 0 01-.726.714 2.114 2.114 0 01-1.046.259c-.39.002-.74-.085-1.05-.259zm1.727-.536c.2-.116.357-.278.47-.489.114-.21.169-.45.169-.721 0-.271-.057-.511-.17-.722a1.2 1.2 0 00-.469-.485 1.34 1.34 0 00-.677-.17c-.25 0-.476.057-.677.17a1.23 1.23 0 00-.474.485c-.117.21-.174.45-.174.722 0 .271.058.51.174.721.116.21.273.373.474.49.2.115.426.173.677.173.253 0 .478-.057.677-.174zm3.026.536a1.903 1.903 0 01-.736-.715 2.007 2.007 0 01-.266-1.031c0-.384.09-.73.266-1.032.177-.302.423-.54.736-.71a2.21 2.21 0 011.069-.255c.354 0 .672.072.95.214.279.144.495.35.648.622l-.54.347a1.223 1.223 0 00-.46-.423 1.302 1.302 0 00-.607-.14c-.257 0-.487.057-.692.17a1.218 1.218 0 00-.482.485c-.116.21-.173.45-.173.722 0 .277.057.518.173.729.116.21.277.37.482.485.204.114.435.17.692.17.221 0 .424-.046.607-.14.182-.095.336-.235.46-.423l.54.34c-.153.27-.37.48-.648.625a2.02 2.02 0 01-.95.218c-.4.002-.757-.085-1.069-.259zm4.166 0a1.902 1.902 0 01-.737-.715 2.006 2.006 0 01-.265-1.031c0-.384.088-.73.265-1.032.177-.302.423-.54.737-.71a2.21 2.21 0 011.068-.255c.354 0 .672.072.95.214.279.144.495.35.648.622l-.54.347a1.223 1.223 0 00-.46-.423 1.302 1.302 0 00-.607-.14c-.257 0-.487.057-.692.17a1.219 1.219 0 00-.482.485c-.116.21-.173.45-.173.722 0 .277.057.518.173.729.116.21.277.37.482.485.204.114.435.17.692.17.221 0 .424-.046.607-.14a1.22 1.22 0 00.46-.423l.54.34c-.153.27-.37.48-.648.625a2.02 2.02 0 01-.95.218 2.146 2.146 0 01-1.069-.259zm3.581-3.708h.71v2.855l2.405-2.855h.644v3.922h-.71v-2.855l-2.397 2.855h-.652v-3.922zm5.134.001h.71v2.854l2.405-2.854h.644v3.92h-.71V41.22l-2.397 2.855h-.652v-3.921zm.984-.773c-.203-.176-.306-.429-.31-.759h.481a.595.595 0 00.189.44c.121.11.282.165.485.165a.708.708 0 00.489-.166.588.588 0 00.192-.439h.496c-.005.33-.11.583-.317.758-.207.176-.491.263-.85.263-.368 0-.652-.087-.855-.263zm4.791 4.48a1.901 1.901 0 01-.736-.715 2.007 2.007 0 01-.266-1.031c0-.384.088-.73.266-1.032a1.87 1.87 0 01.736-.71c.313-.17.67-.255 1.068-.255.354 0 .672.072.95.214.279.144.495.35.648.622l-.541.347a1.215 1.215 0 00-1.066-.563c-.257 0-.487.057-.692.17a1.22 1.22 0 00-.482.485c-.116.21-.173.45-.173.722 0 .277.057.518.173.729.117.21.277.37.482.485.205.114.435.17.692.17.221 0 .424-.046.607-.14a1.2 1.2 0 00.459-.423l.541.34c-.153.27-.369.48-.648.625a2.018 2.018 0 01-.95.218 2.15 2.15 0 01-1.068-.259zm5.106-1.442h-.814v1.657h-.71v-3.92h.71v1.656h.829l1.273-1.657h.762l-1.487 1.886 1.59 2.034h-.836l-1.317-1.656zm3.395 1.442a1.891 1.891 0 01-.728-.715 2.016 2.016 0 01-.263-1.031c0-.384.087-.73.263-1.032.175-.302.418-.54.728-.71.312-.17.661-.255 1.05-.255.39 0 .738.085 1.047.255.308.17.549.406.725.71.175.303.262.648.262 1.032s-.087.729-.262 1.031c-.176.303-.417.54-.725.714a2.118 2.118 0 01-1.047.259 2.107 2.107 0 01-1.05-.259zm1.729-.536c.2-.116.357-.278.471-.489.114-.21.17-.45.17-.721a1.51 1.51 0 00-.17-.722 1.197 1.197 0 00-.471-.485 1.335 1.335 0 00-.677-.17 1.35 1.35 0 00-.677.17 1.237 1.237 0 00-.474.485c-.117.21-.174.45-.174.722 0 .271.057.51.174.721.116.21.273.373.474.49.199.115.424.173.677.173.251 0 .476-.057.677-.174zm2.387-3.171h.71v2.854l2.405-2.854h.644v3.92h-.711V41.22l-2.397 2.855h-.651v-3.921zm.983-.773c-.203-.176-.306-.429-.311-.759h.481a.596.596 0 00.188.44c.12.11.283.165.484.165a.705.705 0 00.489-.166.584.584 0 00.192-.439h.496c-.005.33-.111.583-.319.758-.207.176-.491.263-.851.263-.363 0-.647-.087-.849-.263zm11.251 3.711c-.478.39-1.153.6-2.026.63v.547h-.688v-.548c-.873-.035-1.55-.247-2.03-.636-.482-.39-.722-.925-.722-1.606 0-.684.24-1.223.722-1.612.482-.39 1.157-.602 2.03-.637v-.526h.688v.526c.867.035 1.543.247 2.022.64.482.393.722.928.722 1.61 0 .686-.238 1.223-.718 1.612zm-4.22-.432c.352.285.854.445 1.506.484v-3.329c-.661.039-1.165.2-1.513.48-.347.28-.523.675-.523 1.183.002.505.178.898.53 1.182zm3.707 0c.347-.284.522-.679.522-1.188 0-.498-.177-.89-.529-1.172-.353-.284-.855-.444-1.506-.483v3.329c.661-.041 1.164-.202 1.513-.486zm5.781-.307h-3.181c.044.345.195.624.455.832.259.21.582.314.966.314.468 0 .845-.157 1.131-.473l.391.458a1.726 1.726 0 01-.663.474 2.296 2.296 0 01-.883.163c-.416 0-.783-.085-1.102-.255a1.82 1.82 0 01-.744-.714 2.049 2.049 0 01-.262-1.035c0-.38.085-.724.255-1.028.17-.306.404-.544.703-.714.299-.17.635-.255 1.009-.255.375 0 .709.085 1.002.255a1.8 1.8 0 01.689.714 2.169 2.169 0 01.234 1.264zm-2.779-1.325a1.244 1.244 0 00-.402.814h2.515c-.039-.33-.174-.6-.402-.81a1.218 1.218 0 00-.855-.316 1.244 1.244 0 00-.856.312zm7.817 2.427v1.531h-.667v-.91h-3.277v.91h-.673v-1.531h.206c.251-.015.425-.192.519-.534.094-.34.159-.82.192-1.443l.059-1.323h3.041v3.3h.6zm-3.171-.7c-.06.323-.173.556-.335.7h2.197v-2.678H132.2l-.037.755a8.94 8.94 0 01-.124 1.223zm7.623-.402h-3.181c.044.345.196.624.456.832.258.21.581.314.965.314.468 0 .845-.157 1.131-.473l.391.458a1.722 1.722 0 01-.662.474 2.301 2.301 0 01-.884.163 2.31 2.31 0 01-1.102-.255 1.811 1.811 0 01-.743-.714 2.039 2.039 0 01-.262-1.035c0-.38.084-.724.254-1.028.17-.306.404-.544.703-.714.299-.17.635-.255 1.01-.255.374 0 .708.085 1.002.255.293.17.522.408.688.714a2.169 2.169 0 01.234 1.264zm-2.777-1.325a1.249 1.249 0 00-.402.814h2.515c-.039-.33-.174-.6-.402-.81a1.218 1.218 0 00-.855-.316c-.343.002-.627.105-.856.312zm6.994-.657c.301.168.537.402.707.703.17.3.255.65.255 1.043a2.1 2.1 0 01-.255 1.046c-.17.303-.406.539-.707.707-.3.167-.64.25-1.02.25-.281 0-.539-.053-.773-.162a1.59 1.59 0 01-.596-.474v2.026h-.711v-5.355h.681v.622c.159-.218.358-.38.6-.493.242-.11.507-.166.799-.166.38.002.72.085 1.02.253zm-.402 2.956a1.26 1.26 0 00.474-.489c.117-.21.174-.45.174-.721 0-.272-.057-.511-.174-.722a1.223 1.223 0 00-.474-.485 1.336 1.336 0 00-.677-.17c-.247 0-.471.057-.67.174a1.262 1.262 0 00-.474.485 1.443 1.443 0 00-.174.718c0 .27.058.51.17.721.113.21.271.373.474.49.201.115.427.172.674.172.251 0 .478-.057.677-.173zm4.999-2.81c.288.266.434.662.434 1.19v2.367h-.673v-.518a1.137 1.137 0 01-.508.419 1.94 1.94 0 01-.78.144c-.44 0-.79-.107-1.054-.318a1.02 1.02 0 01-.395-.836c0-.345.125-.621.376-.832.251-.21.652-.313 1.198-.313h1.124v-.14c0-.307-.089-.541-.266-.704-.177-.162-.439-.243-.784-.243-.233 0-.46.038-.681.114-.222.076-.41.18-.563.306l-.295-.533c.201-.162.445-.288.725-.373a3.04 3.04 0 01.895-.129c.542 0 .96.133 1.247.399zm-.706 2.875c.197-.122.339-.292.43-.515v-.548h-1.095c-.601 0-.902.203-.902.607a.55.55 0 00.229.467c.153.114.365.17.636.17.27 0 .504-.061.702-.181zm6.605.063v1.56h-.673v-.939h-3.514v-3.92h.711v3.299h2.146v-3.3h.71v3.3h.62zm.919-3.3h.71v2.855l2.405-2.855h.644v3.921h-.711v-2.854l-2.397 2.855h-.651v-3.922zm5.134 0h.71v2.855l2.405-2.855h.644v3.921h-.711v-2.854l-2.397 2.855h-.651v-3.922z" fill="#054975"/></svg>