<svg width="47" height="51" fill="none" xmlns="http://www.w3.org/2000/svg"><g clip-path="url(#clip0_9266_7256)"><path d="M21.02 49.32c-.63 0-1.13-.51-1.13-1.13V26.55a1.129 1.129 0 112.26 0v21.64c0 .63-.51 1.13-1.13 1.13zm14.57-1.09c-.63 0-1.13-.51-1.13-1.13V19.93c0-.62.51-1.13 1.13-1.13.62 0 1.13.51 1.13 1.13V47.1c0 .63-.51 1.13-1.13 1.13z" fill="#F08050"/><path d="M45.82 50.861c-.09 0-.19-.01-.28-.03l-15.65-3.99c-.5-.13-.85-.58-.85-1.1V9.281c0-.35.16-.68.44-.9.28-.22.64-.29.98-.19l15.65 4.24c.49.13.84.58.84 1.09v36.2c0 .35-.16.68-.44.89-.2.16-.45.24-.7.24m-14.51-6.01l13.38 3.42v-33.87l-13.38-3.63v34.09-.01zM16.36 50.95c-.1 0-.19-.01-.29-.04L.84 46.92c-.5-.13-.85-.58-.85-1.1V8.78c0-.37.18-.71.48-.92.3-.21.68-.27 1.03-.15l4.16 1.44c.59.2.9.85.7 1.44-.2.59-.85.91-1.44.7l-2.66-.92v34.57l14.39 3.77c.61.16.97.78.81 1.38-.13.51-.59.85-1.09.85" fill="#0D74BA"/><path d="M16.28 50.86c-.24 0-.48-.08-.68-.23-.28-.22-.45-.55-.45-.91l.08-27.46c0-.62.51-1.13 1.13-1.13.62 0 1.13.51 1.13 1.14l-.08 25.96 11.63-3.34V10.91l-5.25 1.93c-.59.22-1.24-.08-1.45-.67-.22-.59.08-1.24.67-1.45l6.77-2.49c.35-.13.74-.08 1.04.13.3.21.48.56.48.93v36.45c0 .51-.33.95-.82 1.09l-13.9 3.99c-.1.03-.21.04-.31.04" fill="#0D74BA"/><path d="M14.28 26.06h-.02c-.34 0-.66-.16-.87-.43-1.36-1.71-8.14-10.35-8.7-12.76l-.08-.32s-.01-.06-.02-.09c-.09-.52-.18-1.09-.18-1.77v-.48C4.7 5 9 .91 14.2.91c5.2 0 9.79 4.39 9.79 9.79 0 .41 0 .88-.08 1.36 0 .16-.03.41-.16.66l-.03.1c-.22 1.47-2.1 4.43-6.45 10.12-1.17 1.59-2.08 2.67-2.12 2.72-.22.26-.53.4-.86.4M6.83 12.05l.07.29v.03c.26 1.15 3.82 6.16 7.4 10.75.33-.42.73-.93 1.16-1.52 0 0 0-.01.01-.01 5.11-6.69 5.96-8.56 6.02-9.09 0-.05.01-.1.03-.16l.08-.33c.01-.06.03-.11.06-.17 0-.04 0-.08.02-.11.06-.31.06-.66.06-1.03 0-4.15-3.37-7.52-7.52-7.52-4.15 0-7.29 3.13-7.52 7.14v.38c0 .47.07.9.14 1.35m7.47 3.03c-2.64 0-4.71-2.07-4.71-4.71s2.07-4.71 4.71-4.71 4.71 2.07 4.71 4.71-2.07 4.71-4.71 4.71zm0-7.16c-1.37 0-2.45 1.07-2.45 2.45 0 1.38 1.07 2.45 2.45 2.45 1.38 0 2.45-1.08 2.45-2.45s-1.07-2.45-2.45-2.45zm-1.78 31.57h-2.08v2.08h2.08v-2.08zm0-3.16h-2.08v2.08h2.08v-2.08zm0-3.08h-2.08v2.08h2.08v-2.08zm0-3.16h-2.08v2.08h2.08v-2.08zm0-3.08h-2.08v2.08h2.08v-2.08z" fill="#F08050"/></g><defs><clipPath id="clip0_9266_7256"><path fill="#fff" transform="translate(0 .91)" d="M0 0h46.96v50.04H0z"/></clipPath></defs></svg>