<svg width="36" height="36" fill="none" xmlns="http://www.w3.org/2000/svg"><path d="M18 33.368c8.393 0 15.368-6.96 15.368-15.368 0-8.393-6.99-15.368-15.383-15.368C9.578 2.632 2.633 9.607 2.633 18c0 8.407 6.96 15.368 15.367 15.368zm.001-2.561A12.746 12.746 0 015.207 18c0-7.097 5.666-12.807 12.778-12.807A12.8 12.8 0 0130.807 18c.015 7.112-5.71 12.807-12.807 12.807m-.015-10.08c.723 0 1.13-.407 1.144-1.19l.226-7.955c.016-.77-.587-1.341-1.386-1.341-.813 0-1.386.557-1.37 1.325l.195 7.971c.015.768.438 1.19 1.19 1.19zm0 4.897c.858 0 1.626-.693 1.626-1.567 0-.89-.753-1.567-1.626-1.567-.89 0-1.628.693-1.628 1.567 0 .859.754 1.567 1.628 1.567z" fill="#fff"/></svg>