<svg width="30" height="32" fill="none" xmlns="http://www.w3.org/2000/svg"><path fill-rule="evenodd" clip-rule="evenodd" d="M9.107 11.727a1.61 1.61 0 01-1.136-.469 1.594 1.594 0 01-.471-1.131V8.533c-.853 0-1.67.337-2.273.937a3.193 3.193 0 00-.941 2.263v2.133h21.428v-2.133c0-.849-.338-1.663-.941-2.263a3.222 3.222 0 00-2.273-.937v1.6c0 .425-.17.832-.47 1.132a1.61 1.61 0 01-2.274 0 1.6 1.6 0 01-.47-1.132v-1.6h-8.572v1.594a1.601 1.601 0 01-1.607 1.6zm10.179-6.394h-8.572V3.73c0-.424-.17-.831-.47-1.131a1.61 1.61 0 00-2.273 0c-.302.3-.471.707-.471 1.13v1.605c-1.705 0-3.34.674-4.546 1.875a6.386 6.386 0 00-1.883 4.525v12.8a6.39 6.39 0 001.883 4.526A6.443 6.443 0 007.5 30.933h15c1.705 0 3.34-.674 4.546-1.874a6.386 6.386 0 001.882-4.526v-12.8a6.386 6.386 0 00-1.883-4.525A6.443 6.443 0 0022.5 5.333v-1.6c0-.424-.17-.831-.47-1.131a1.61 1.61 0 00-2.274 0c-.301.3-.47.707-.47 1.131v1.6zm-15 11.734v7.466c0 .849.338 1.663.941 2.263.603.6 1.42.937 2.273.937h15c.852 0 1.67-.337 2.273-.937.602-.6.941-1.414.941-2.263v-7.466H4.286z" fill="#F8F8F8"/></svg>