<svg width="63" height="62" fill="none" xmlns="http://www.w3.org/2000/svg"><g clip-path="url(#clip0_9245_5263)"><rect x=".685" width="62" height="62" rx="31" fill="#054975"/><path d="M19.606 26.532a11.93 11.93 0 003.538 8.47 12.13 12.13 0 008.54 3.507 12.13 12.13 0 008.54-3.508 11.927 11.927 0 003.538-8.469 11.93 11.93 0 00-3.537-8.47 12.13 12.13 0 00-8.54-3.507 12.13 12.13 0 00-8.541 3.508 11.927 11.927 0 00-3.538 8.469zm8.917 18.733l1.755 2.9-3.142 11.595-3.397-13.746c-.189-.758-.925-1.254-1.689-1.058-6.605 1.638-11.502 7.57-11.502 14.635 0 1.59 1.302 2.873 2.897 2.873h36.479c1.604 0 2.897-1.291 2.897-2.873 0-7.065-4.898-12.997-11.503-14.635-.764-.187-1.5.31-1.689 1.058l-3.397 13.745-3.142-11.593 1.755-2.9C35.45 44.263 34.723 43 33.553 43h-3.728c-1.17 0-1.896 1.272-1.292 2.264h-.01z" fill="#fff"/></g><rect x="1.685" y="1" width="60" height="60" rx="30" stroke="#047BC1" stroke-width="2"/><defs><clipPath id="clip0_9245_5263"><rect x=".685" width="62" height="62" rx="31" fill="#fff"/></clipPath></defs></svg>