<svg width="48" height="48" fill="none" xmlns="http://www.w3.org/2000/svg"><g clip-path="url(#clip0_9266_7234)"><path d="M37.54 47.91H10.03C4.5 47.91 0 43.41 0 37.89V13.76C0 8.23 4.5 3.74 10.03 3.74h27.51c5.53 0 10.03 4.5 10.03 10.02v24.13c0 5.53-4.5 10.02-10.03 10.02zM10.03 6c-4.28 0-7.76 3.48-7.76 7.76v24.13c0 4.28 3.48 7.76 7.76 7.76h27.51c4.28 0 7.76-3.48 7.76-7.76V13.76C45.3 9.48 41.82 6 37.54 6H10.03z" fill="#0D74BA"/><path d="M46.43 17.23H1.13C.51 17.23 0 16.72 0 16.1c0-.62.51-1.13 1.13-1.13h45.3a1.129 1.129 0 110 2.26z" fill="#0D74BA"/><path d="M11.07 10.71c-.63 0-1.13-.51-1.13-1.13V1.13c0-.62.51-1.13 1.13-1.13.62 0 1.13.51 1.13 1.13v8.44c0 .63-.51 1.13-1.13 1.13m25.72.01c-.63 0-1.13-.51-1.13-1.13V1.13c0-.62.51-1.13 1.13-1.13.62 0 1.13.51 1.13 1.13v8.44c0 .63-.51 1.13-1.13 1.13" fill="#F08050"/><path d="M8.71 25.83c-1.14 0-2.06-.92-2.06-2.06 0-1.14.92-2.06 2.06-2.06 1.14 0 2.06.92 2.06 2.06 0 1.14-.92 2.06-2.06 2.06zm7.6 0c-1.14 0-2.06-.92-2.06-2.06 0-1.14.92-2.06 2.06-2.06 1.14 0 2.06.92 2.06 2.06 0 1.14-.92 2.06-2.06 2.06zm7.59 0c-1.14 0-2.06-.92-2.06-2.06 0-1.14.92-2.06 2.06-2.06 1.14 0 2.06.92 2.06 2.06 0 1.14-.92 2.06-2.06 2.06zm7.6 0c-1.14 0-2.06-.92-2.06-2.06 0-1.14.92-2.06 2.06-2.06 1.14 0 2.06.92 2.06 2.06 0 1.14-.92 2.06-2.06 2.06z" fill="#0D74BA"/><path d="M39.1 25.83c-1.14 0-2.06-.92-2.06-2.06 0-1.14.92-2.06 2.06-2.06 1.14 0 2.06.92 2.06 2.06 0 1.14-.92 2.06-2.06 2.06z" fill="#F08050"/><path d="M8.71 33.42c-1.14 0-2.06-.92-2.06-2.06 0-1.14.92-2.06 2.06-2.06 1.14 0 2.06.92 2.06 2.06 0 1.14-.92 2.06-2.06 2.06zm7.6 0c-1.14 0-2.06-.92-2.06-2.06 0-1.14.92-2.06 2.06-2.06 1.14 0 2.06.92 2.06 2.06 0 1.14-.92 2.06-2.06 2.06zm7.59 0c-1.14 0-2.06-.92-2.06-2.06 0-1.14.92-2.06 2.06-2.06 1.14 0 2.06.92 2.06 2.06 0 1.14-.92 2.06-2.06 2.06zm7.6 0c-1.14 0-2.06-.92-2.06-2.06 0-1.14.92-2.06 2.06-2.06 1.14 0 2.06.92 2.06 2.06 0 1.14-.92 2.06-2.06 2.06z" fill="#0D74BA"/><path d="M39.1 33.42c-1.14 0-2.06-.92-2.06-2.06 0-1.14.92-2.06 2.06-2.06 1.14 0 2.06.92 2.06 2.06 0 1.14-.92 2.06-2.06 2.06z" fill="#F08050"/><path d="M8.71 41.018c-1.14 0-2.06-.92-2.06-2.06 0-1.14.92-2.06 2.06-2.06 1.14 0 2.06.92 2.06 2.06 0 1.14-.92 2.06-2.06 2.06zm7.6 0c-1.14 0-2.06-.92-2.06-2.06 0-1.14.92-2.06 2.06-2.06 1.14 0 2.06.92 2.06 2.06 0 1.14-.92 2.06-2.06 2.06zm7.59 0c-1.14 0-2.06-.92-2.06-2.06 0-1.14.92-2.06 2.06-2.06 1.14 0 2.06.92 2.06 2.06 0 1.14-.92 2.06-2.06 2.06zm7.6 0c-1.14 0-2.06-.92-2.06-2.06 0-1.14.92-2.06 2.06-2.06 1.14 0 2.06.92 2.06 2.06 0 1.14-.92 2.06-2.06 2.06z" fill="#0D74BA"/></g><defs><clipPath id="clip0_9266_7234"><path fill="#fff" d="M0 0h47.57v47.91H0z"/></clipPath></defs></svg>