<svg width="62" height="62" fill="none" xmlns="http://www.w3.org/2000/svg"><rect x="1" y="1" width="60" height="60" rx="30" fill="#fff"/><rect x="1" y="1" width="60" height="60" rx="30" stroke="#F8805F" stroke-width="2"/><path fill-rule="evenodd" clip-rule="evenodd" d="M30.136 11a12.32 12.32 0 00-8.696 3.588 12.226 12.226 0 00-3.602 8.662c0 3.249 1.296 6.365 3.602 8.662a12.323 12.323 0 008.696 3.588c3.262 0 6.39-1.29 8.696-3.588a12.226 12.226 0 003.602-8.662c0-3.249-1.295-6.365-3.602-8.662A12.323 12.323 0 0030.136 11zm0 26.95c-5.89 0-11.252 1.7-15.195 4.096-1.968 1.196-3.65 2.607-4.865 4.14C8.88 47.692 8 49.497 8 51.426c0 2.07 1.01 3.702 2.467 4.866 1.377 1.102 3.195 1.832 5.126 2.342C19.474 59.654 24.653 60 30.136 60c.566 0 1.132-.005 1.685-.012a2.468 2.468 0 002.054-1.154 2.444 2.444 0 00.135-2.345 14.587 14.587 0 01-1.414-6.289c0-3.067.942-5.91 2.55-8.264a2.443 2.443 0 00-.6-3.37 2.465 2.465 0 00-1.17-.445 30.584 30.584 0 00-3.24-.171zm19.342 2.443a2.454 2.454 0 00-2.125-1.217 2.466 2.466 0 00-2.125 1.217L42.99 44.22l-4.343.935a2.464 2.464 0 00-1.82 1.638 2.44 2.44 0 00.506 2.39l2.961 3.303-.447 4.405a2.44 2.44 0 001 2.229 2.466 2.466 0 002.438.26l4.068-1.788 4.069 1.788a2.468 2.468 0 002.437-.26 2.452 2.452 0 001.001-2.229l-.447-4.408 2.96-3.3a2.446 2.446 0 00-1.313-4.028l-4.343-.935-2.239-3.827z" fill="#F8805F"/></svg>