<svg width="50" height="48" fill="none" xmlns="http://www.w3.org/2000/svg"><g clip-path="url(#clip0_9266_7271)"><path d="M24.73 47.634c-.39 0-.75-.2-.96-.53l-5-7.92H9.45c-5.21 0-9.45-4.24-9.45-9.45V9.714C0 4.504 4.24.264 9.45.264H40c5.21 0 9.45 4.24 9.45 9.45v20.03c0 5.21-4.24 9.45-9.45 9.45h-9.32l-5 7.92c-.21.33-.57.53-.96.53M9.45 2.524c-3.96 0-7.19 3.22-7.19 7.19v20.03c0 3.96 3.22 7.19 7.19 7.19h9.94c.39 0 .75.2.96.53l4.38 6.93 4.38-6.93c.21-.33.57-.53.96-.53h9.94c3.96 0 7.19-3.22 7.19-7.19V9.714c0-3.96-3.22-7.19-7.19-7.19H9.45z" fill="#F08050"/><path d="M18.18 19.744c-2.81 0-5.09-2.28-5.09-5.09s2.28-5.09 5.09-5.09 5.09 2.28 5.09 5.09-2.28 5.09-5.09 5.09zm0-7.91c-1.56 0-2.82 1.27-2.82 2.82a2.83 2.83 0 002.82 2.82 2.83 2.83 0 002.82-2.82 2.83 2.83 0 00-2.82-2.82z" fill="#0D74BA"/><path d="M28.06 29.624c-.63 0-1.13-.51-1.13-1.13 0-4.82-3.92-8.75-8.75-8.75s-8.75 3.92-8.75 8.75a1.129 1.129 0 11-2.26 0c0-6.07 4.94-11.01 11.01-11.01 6.07 0 11.01 4.94 11.01 11.01 0 .63-.51 1.13-1.13 1.13z" fill="#0D74BA"/><path d="M22.85 19.744c-1.09 0-2.12-.34-3-.98-.51-.37-.62-1.08-.25-1.58s1.08-.62 1.58-.25a2.823 2.823 0 004.48-2.28 2.83 2.83 0 00-2.82-2.82c-.6 0-1.18.19-1.66.54-.5.37-1.21.26-1.58-.25-.37-.51-.26-1.21.25-1.58.88-.64 1.91-.98 3-.98 2.81 0 5.09 2.28 5.09 5.09s-2.28 5.09-5.09 5.09z" fill="#0D74BA"/><path d="M32.73 29.624c-.63 0-1.13-.51-1.13-1.13 0-4.82-3.92-8.75-8.75-8.75a1.129 1.129 0 110-2.26c6.07 0 11.01 4.94 11.01 11.01 0 .63-.51 1.13-1.13 1.13z" fill="#0D74BA"/><path d="M27.53 19.744c-1.09 0-2.12-.34-3-.98-.51-.37-.62-1.08-.25-1.58s1.08-.62 1.58-.25a2.823 2.823 0 004.48-2.28 2.83 2.83 0 00-2.82-2.82c-.6 0-1.18.19-1.66.54-.5.37-1.21.26-1.58-.25-.37-.51-.26-1.21.25-1.58.88-.64 1.91-.98 3-.98 2.81 0 5.09 2.28 5.09 5.09s-2.28 5.09-5.09 5.09z" fill="#0D74BA"/><path d="M37.41 29.624c-.63 0-1.13-.51-1.13-1.13 0-4.82-3.92-8.75-8.75-8.75-.62 0-1.13-.51-1.13-1.13 0-.62.51-1.13 1.13-1.13 6.07 0 11.01 4.94 11.01 11.01 0 .63-.51 1.13-1.13 1.13z" fill="#0D74BA"/><path d="M32.19 19.744c-1.09 0-2.12-.34-3-.98-.51-.37-.62-1.08-.25-1.58s1.08-.62 1.58-.25c.49.35 1.06.54 1.66.54 1.56 0 2.82-1.27 2.82-2.82a2.83 2.83 0 00-2.82-2.82c-.6 0-1.18.19-1.66.54-.5.37-1.21.26-1.58-.25-.37-.51-.26-1.21.25-1.58.88-.64 1.91-.98 3-.98 2.8 0 5.09 2.28 5.09 5.09s-2.28 5.09-5.09 5.09z" fill="#0D74BA"/><path d="M42.07 29.624c-.63 0-1.13-.51-1.13-1.13 0-4.82-3.92-8.75-8.75-8.75a1.129 1.129 0 110-2.26c6.07 0 11.01 4.94 11.01 11.01 0 .63-.51 1.13-1.13 1.13z" fill="#0D74BA"/><path d="M42.07 29.623H8.31c-.62 0-1.13-.51-1.13-1.13 0-.62.51-1.13 1.13-1.13h33.76a1.129 1.129 0 110 2.26z" fill="#0D74BA"/></g><defs><clipPath id="clip0_9266_7271"><path fill="#fff" transform="translate(0 .264)" d="M0 0h49.46v47.37H0z"/></clipPath></defs></svg>