<svg width="245" height="62" fill="none" xmlns="http://www.w3.org/2000/svg"><g clip-path="url(#clip0_9209_7741)"><path d="M78.255 22.422V9.447H90.65v12.975h-3.673V12.367h-5.03v10.035h-3.672l-.02.02zm15.329-.242v-2.86c.559.285 1.177.406 1.876.406 1.038 0 1.577-.324 2.176-1.378l-5.37-8.92h4.072l3.134 5.635 2.734-5.636h3.912l-5.249 10.117c-.659 1.277-1.577 2.21-2.475 2.595-.898.385-1.557.527-2.235.527-1.038 0-1.877-.162-2.555-.507l-.02.02zm17.384.242V12.367h-4.291v-2.92h12.295v2.92h-4.312v10.035h-3.672l-.02.02zm9.939 0V9.447h10.878v2.92h-7.205v1.763h5.728v2.818h-5.728v2.535h7.365v2.92h-11.038v.02zm13.134 0V9.447h3.672v10.036h3.753V9.447h3.672v10.036h3.753V9.447h3.672v12.975h-18.522zm21.276 0V9.447h10.878v2.92h-7.205v1.763h5.728v2.818h-5.728v2.535h7.365v2.92h-11.038v.02zm14.65-1.642c-1.517-1.257-2.276-2.879-2.276-4.845 0-1.967.759-3.588 2.256-4.846 1.517-1.256 3.413-1.885 5.708-1.885 1.357 0 2.575.243 3.693.75v3.284a7.34 7.34 0 00-3.653-.952c-1.198 0-2.215.344-3.014 1.034-.798.689-1.197 1.581-1.197 2.635 0 1.054.399 1.967 1.217 2.656.838.69 1.876 1.014 3.134 1.014 1.517 0 2.754-.345 3.772-1.034v3.304c-1.158.548-2.475.811-3.932.811-2.295 0-4.191-.628-5.708-1.885v-.04zm15.429 1.642V12.367h-4.292v-2.92h12.295v2.92h-4.311v10.035h-3.672l-.02.02zm9.939 0V9.447h6.966c2.615 0 4.451 1.156 4.451 3.285 0 1.257-.798 2.149-1.677 2.514.699.141 1.338.527 1.877 1.135.558.608.838 1.378.838 2.311 0 1.115-.479 2.027-1.417 2.696-.918.69-2.176 1.014-3.693 1.014h-7.365l.02.02zm3.673-8.008h2.734c.898 0 1.477-.425 1.477-1.115 0-.73-.579-1.155-1.477-1.155h-2.734v2.27zm0 5.23h2.974c1.117 0 1.796-.506 1.796-1.378 0-.871-.718-1.399-1.796-1.399h-2.974v2.778zm10.877 2.536v-2.86c.559.285 1.177.406 1.876.406 1.038 0 1.577-.324 2.175-1.378l-5.369-8.92h4.072l3.134 5.635 2.734-5.636h3.912l-5.249 10.117c-.659 1.277-1.577 2.21-2.475 2.595-.898.385-1.557.527-2.236.527-1.037 0-1.876-.162-2.554-.507l-.02.02zm13.872.243V9.447h3.672v7.32l5.908-7.32h3.194v12.976h-3.673v-7.4l-6.007 7.4h-3.094zm4.99-16.888c.02.73.539 1.176 1.377 1.176s1.357-.446 1.377-1.176h2.515c-.02 1.013-.379 1.804-1.118 2.392-.718.568-1.637.872-2.734.872-1.098 0-2.016-.304-2.755-.872-.718-.568-1.077-1.379-1.097-2.392h2.475-.04zm11.216 12.407l-.838-8.474h4.97l-.838 8.474h-3.294zm1.637.831c1.197 0 2.156.872 2.156 1.967 0 .527-.2.973-.639 1.379-.419.385-.918.567-1.517.567-.599 0-1.098-.182-1.537-.567-.419-.386-.619-.832-.619-1.38 0-1.094.938-1.966 2.156-1.966z" fill="#F8805F"/><path d="M79.173 37.73h-.918v-7.907h3.672c.859 0 1.557.203 2.056.608.5.405.739.932.739 1.602 0 .669-.24 1.216-.739 1.621-.499.406-1.177.609-2.056.609h-2.754v3.487-.02zm0-7.157v2.899h2.674c.62 0 1.098-.122 1.438-.385.339-.244.519-.608.519-1.075 0-.466-.16-.83-.5-1.074-.339-.243-.818-.385-1.436-.385h-2.675l-.02.02zm8.562.284c.838-.791 1.896-1.176 3.153-1.176 1.258 0 2.296.385 3.134 1.175.838.791 1.257 1.764 1.257 2.92 0 1.155-.419 2.149-1.257 2.92-.838.77-1.876 1.155-3.134 1.155-1.257 0-2.315-.385-3.153-1.156-.838-.77-1.257-1.743-1.257-2.92 0-1.175.419-2.148 1.257-2.918zm.679 5.27c.658.63 1.477.953 2.454.953.979 0 1.797-.324 2.456-.952.658-.65.998-1.42.998-2.372 0-.953-.34-1.724-.999-2.352-.658-.629-1.476-.953-2.454-.953-.978 0-1.797.324-2.455.953-.66.649-.998 1.42-.998 2.352 0 .932.339 1.723.998 2.372zm13.412 1.744c-1.278 0-2.335-.385-3.214-1.155-.858-.77-1.277-1.744-1.277-2.94s.42-2.149 1.277-2.92c.859-.77 1.916-1.155 3.214-1.155.958 0 1.756.203 2.455.588v.852a4.744 4.744 0 00-2.435-.67c-.998 0-1.837.325-2.535.953-.679.609-1.018 1.4-1.018 2.352 0 .953.34 1.764 1.018 2.372.698.629 1.537.933 2.555.933 1.018 0 1.876-.264 2.594-.79v.87c-.718.467-1.596.71-2.634.71zm8.702 0c-1.277 0-2.335-.385-3.214-1.155-.858-.77-1.277-1.744-1.277-2.94s.419-2.149 1.277-2.92c.859-.77 1.917-1.155 3.214-1.155.958 0 1.756.203 2.455.588v.852a4.744 4.744 0 00-2.435-.67c-.998 0-1.836.325-2.535.953-.679.609-1.018 1.4-1.018 2.352 0 .953.339 1.764 1.018 2.372.699.629 1.537.933 2.555.933 1.018 0 1.876-.264 2.595-.79v.87c-.719.467-1.597.71-2.635.71zm5.569-.141h-.779v-7.907h.918v6.508l5.429-6.508h.819v7.907h-.918V31.2l-5.469 6.529zm9.92 0h-.779v-7.907h.918v6.508l5.429-6.508h.819v7.906h-.919v-6.528l-5.468 6.528zm2.794-8.475c-.619 0-1.118-.162-1.497-.466-.379-.304-.579-.73-.579-1.257h.799c0 .324.119.567.359.77.239.203.539.304.938.304.399 0 .679-.101.898-.304.22-.203.339-.446.359-.77h.799c0 .527-.22.932-.599 1.257-.399.304-.878.466-1.457.466h-.02zm10.479 8.616c-1.278 0-2.336-.385-3.214-1.155-.858-.77-1.277-1.744-1.277-2.94s.419-2.149 1.277-2.92c.858-.77 1.916-1.155 3.214-1.155.958 0 1.756.203 2.455.588v.852a4.744 4.744 0 00-2.435-.67c-.998 0-1.837.325-2.535.953-.679.609-1.018 1.4-1.018 2.352 0 .953.339 1.764 1.018 2.372.698.629 1.537.933 2.555.933 1.017 0 1.876-.264 2.594-.79v.87c-.718.467-1.597.71-2.634.71zm4.81-8.048h.918v3.426l4.051-3.426h1.218l-4.291 3.608 4.95 4.299h-1.298l-4.63-4.015v4.014h-.918v-7.906zm9.32 7.907h-.778v-7.907h.918v6.508l5.429-6.508h.818v7.907h-.918V31.2l-5.469 6.529zm9.94 0h-.778v-7.907h.918v6.508l5.429-6.508h.818v7.906h-.918v-6.528l-5.469 6.528zm2.795-8.475c-.619 0-1.118-.162-1.497-.466-.379-.304-.579-.73-.579-1.257h.798c0 .324.12.567.36.77.239.203.538.304.938.304.399 0 .678-.101.898-.304.219-.203.339-.446.359-.77h.798c0 .527-.219.932-.598 1.257-.4.304-.879.466-1.457.466h-.02zM81.388 48.738h-.918V41.58h-3.014v-.75h6.986v.75h-3.054v7.157zm6.008.142c-.46 0-.819-.061-1.098-.163v-.77c.3.101.619.162.958.162.44 0 .798-.162 1.078-.486.14-.162.24-.325.34-.467.059-.08.179-.283.358-.608l-3.513-5.676h1.018l2.954 4.825 2.455-4.825h.978l-3.213 6.244c-.34.649-.679 1.095-1.058 1.379-.38.283-.778.425-1.237.425l-.02-.04zm8.323-.142H94.8V40.83h3.672c.859 0 1.557.203 2.056.608.499.406.739.933.739 1.602s-.24 1.216-.739 1.622c-.499.405-1.177.608-2.056.608H95.72v3.487-.02zm0-7.157v2.9h2.674c.62 0 1.098-.122 1.438-.386.339-.243.518-.608.518-1.074 0-.467-.159-.832-.499-1.075-.339-.243-.818-.385-1.437-.385H95.74l-.02.02zm8.463 7.157h-.779V40.83h.918v6.508l5.429-6.508h.819v7.907h-.918V42.21l-5.469 6.528zm13.252.142c-1.277 0-2.335-.386-3.213-1.156-.859-.77-1.278-1.743-1.278-2.94 0-1.196.419-2.169 1.278-2.919.858-.77 1.916-1.156 3.213-1.156.958 0 1.757.203 2.455.588v.852a4.741 4.741 0 00-2.435-.67c-.998 0-1.836.325-2.535.954-.678.628-1.018 1.399-1.018 2.372 0 .973.34 1.764 1.018 2.372.699.628 1.537.932 2.555.932 1.018 0 1.876-.263 2.595-.79v.871c-.719.467-1.597.71-2.635.71v-.02zm7.964-.142h-.918V41.58h-3.014v-.75h6.985v.75h-3.053v7.157zm5.788 0h-.779V40.83h.918v6.508l5.429-6.508h.819v7.907h-.919V42.21l-5.468 6.528zm15.308 0h-.918V45.17a7.679 7.679 0 01-2.554.425c-1.018 0-1.777-.202-2.296-.588-.519-.385-.758-1.013-.758-1.844V40.83h.918v2.129c0 .69.18 1.176.539 1.44.359.283.958.425 1.796.425.779 0 1.557-.162 2.355-.466V40.83h.918v7.907zm8.962 0h-6.187V40.83h5.987v.75h-5.069v2.534h4.151v.75h-4.151v3.102h5.249v.75l.02.02zm6.047.142c-1.277 0-2.335-.386-3.213-1.156-.858-.77-1.277-1.743-1.277-2.94 0-1.196.419-2.169 1.277-2.919.858-.77 1.916-1.156 3.213-1.156.959 0 1.757.203 2.455.588v.852a4.738 4.738 0 00-2.435-.67c-.998 0-1.836.325-2.534.954-.679.628-1.018 1.399-1.018 2.372 0 .973.339 1.764 1.018 2.372.698.628 1.536.932 2.554.932 1.018 0 1.877-.263 2.595-.79v.871c-.718.467-1.597.71-2.635.71v-.02zm4.811-8.049h.919v3.447l4.051-3.447h1.218l-4.291 3.609 4.949 4.298h-1.297l-4.63-4.035v4.035h-.919V40.83zm9.321 7.907h-.779V40.83h.919v6.508l5.428-6.508h.819v7.907h-.918V42.21l-5.469 6.528zm9.939 0h-.778v-7.907h.918v6.508l5.429-6.508h.818v7.907h-.918V42.21l-5.469 6.528zm2.795-8.474c-.619 0-1.118-.162-1.497-.467-.38-.304-.579-.73-.579-1.256h.798c0 .324.12.567.359.77.24.203.539.284.939.284.399 0 .678-.102.898-.284.219-.203.339-.446.359-.77h.798c0 .527-.219.932-.598 1.257-.4.304-.879.466-1.457.466h-.02zM83.144 59.99h-.918v-.811c-1.417-.02-2.495-.365-3.253-1.014-.739-.649-1.098-1.44-1.098-2.392 0-.953.36-1.724 1.098-2.393.738-.669 1.816-1.013 3.253-1.034v-.73h.918v.73c1.437.02 2.515.366 3.253 1.014.739.649 1.118 1.46 1.118 2.392 0 .933-.379 1.724-1.118 2.393-.738.649-1.816.993-3.253 1.013v.832zm-.918-1.561v-5.292c-1.138 0-1.996.264-2.555.77a2.443 2.443 0 00-.838 1.886c0 .75.28 1.358.838 1.865.56.507 1.417.77 2.555.77zm.918-5.292v5.292c.599 0 1.118-.082 1.577-.244.459-.142.818-.344 1.058-.608a2.31 2.31 0 00.579-.831c.12-.304.18-.629.18-.973 0-.75-.28-1.379-.839-1.886-.559-.507-1.417-.77-2.575-.77l.02.02zm7.685-.263c.838-.791 1.896-1.176 3.153-1.176 1.258 0 2.296.385 3.134 1.176.838.79 1.257 1.763 1.257 2.919 0 1.156-.419 2.149-1.257 2.92-.838.77-1.876 1.155-3.134 1.155-1.257 0-2.315-.385-3.153-1.156-.839-.77-1.258-1.743-1.258-2.919s.42-2.149 1.258-2.92zm.678 5.27c.659.63 1.477.954 2.455.954s1.797-.325 2.455-.953c.659-.649.998-1.42.998-2.352 0-.933-.34-1.723-.998-2.372-.658-.629-1.477-.953-2.455-.953s-1.796.324-2.455.953c-.658.649-.998 1.42-.998 2.372 0 .953.34 1.723.998 2.352zm10.199 1.602h-.918V51.84h3.673c.858 0 1.556.203 2.055.608.499.405.739.933.739 1.602s-.24 1.216-.739 1.622c-.499.405-1.177.608-2.055.608h-2.755v3.487-.02zm0-7.156v2.9h2.675c.618 0 1.097-.123 1.437-.386.339-.243.519-.608.519-1.075 0-.466-.16-.83-.499-1.074-.34-.243-.819-.385-1.437-.385h-2.675l-.02.02zm8.662 7.298c-.459 0-.818-.06-1.097-.162v-.77c.299.101.618.162.958.162.439 0 .798-.162 1.077-.486.14-.163.24-.325.34-.467.06-.08.179-.284.359-.608l-3.513-5.677h1.018l2.954 4.825 2.455-4.825h.978l-3.213 6.245c-.34.648-.679 1.094-1.058 1.378a1.995 1.995 0 01-1.238.426l-.02-.04zm8.324-.142h-.919V51.84h.919l3.153 3.832 3.154-3.832h.898v7.906h-.918v-6.65l-2.854 3.468h-.559l-2.874-3.467v6.65z" fill="#fff"/><path d="M32.469 40.506c.439.02.858.041 1.297.041 2.275 0 4.57-.182 6.826-.527 4.97-.77 9.88-2.392 14.031-5.13V10.989a26.23 26.23 0 00-2.534-.101c-15.03 0-27.225 11.434-27.225 25.544 0 1.116.06 2.089.2 3.163 2.415.547 4.91.79 7.405.933v-.02z" fill="#F8805F"/><path d="M37.14 46.244a51.474 51.474 0 006.726-2.027 49.756 49.756 0 006.307-2.94 40.185 40.185 0 004.45-2.92v-2.534c-4.071 2.595-8.861 4.136-13.691 4.886-5.23.79-10.638.75-15.768-.486A24.713 24.713 0 0027.56 47.5a38.22 38.22 0 002.635-.162 49.855 49.855 0 006.966-1.095h-.02z" fill="#F8805F"/><path d="M50.571 41.966a47.701 47.701 0 01-6.347 2.96c-2.195.831-4.47 1.5-6.766 2.048-2.295.547-4.65.892-7.026 1.115-.838.081-1.656.122-2.494.162 4.55 8.15 13.652 13.725 24.13 13.725.858 0 1.697-.04 2.535-.101V39.392a40.47 40.47 0 01-4.032 2.615v-.04z" fill="#F8805F"/><path d="M46.779 39.371c-.44.142-.859.264-1.298.365v3.832c.44-.183.859-.386 1.298-.568v-3.629zm-2.974.791c-.439.102-.858.183-1.297.264v4.277c.439-.142.858-.304 1.297-.466v-4.075zm2.975-1.582V0h-1.278v38.966c.44-.122.858-.243 1.297-.385h-.02zm-6.188 1.44s.16-.02.24-.04V.365c-.44.061-.859.122-1.298.203v39.615c.36-.041.699-.102 1.058-.142v-.02zm-2.735.344V.913c-.44.101-.858.203-1.297.324v39.23c.439-.02.858-.06 1.297-.102zm-4.091.183h1.138V1.723c-.44.142-.859.284-1.298.426v38.398h.16zm10.039-1.155V.082c-.439.02-.858.06-1.297.1v39.493c.439-.08.858-.182 1.297-.283zm-2.974 1.338c-.439.06-.858.121-1.297.182v4.744c.44-.122.858-.243 1.297-.385V40.73zm-20.777-2.372a12.526 12.526 0 01-1.297-.811v9.285c.439.081.858.142 1.297.223v-8.718.02zm2.974 1.277c-.44-.142-.878-.304-1.297-.487v8.15l1.297.122v-7.785zm14.829 6.447v-5.008c-.44.04-.858.061-1.297.102v5.21c.2-.04.379-.081.578-.122l.719-.182zm-5.927-5.656V2.798c-.44.182-.879.365-1.298.568v36.999l1.297.06zm-5.948 7.115v-7.116c-.44-.101-.858-.203-1.297-.304v7.4c.439 0 .858.02 1.297.02zm8.922-6.304h-1.298v5.697c.44-.061.859-.142 1.298-.223v-5.495.02zm-2.974-.041c-.44-.02-.86-.04-1.298-.081v6.203c.439-.04.858-.08 1.297-.141v-5.981zm-2.974-.264c-.44-.06-.859-.121-1.298-.182v6.771c.44 0 .858-.04 1.297-.06v-6.528zm1.676 7.137v10.279c.419.202.858.385 1.297.567V47.947c-.439.04-.858.102-1.297.142v-.02zm-1.676-7.866V4.197c-.44.223-.879.466-1.298.73V40.04c.44.06.858.121 1.297.162zm-1.298 8.048v8.535c.42.243.858.487 1.297.73V48.21l-1.297.061v-.02zm9.8-1.277c-.3.06-.599.142-.898.202v13.3c.419.121.858.223 1.297.324V46.893c-.14.04-.26.06-.4.1v-.02zm-3.852.729v11.84c.42.163.859.304 1.298.426V47.48c-.44.082-.859.142-1.298.203v.02zm5.928-1.256v14.678c.42.081.858.142 1.297.203V46.082c-.439.122-.858.243-1.297.365zm5.948-2.027v17.272h1.277v-17.84c-.419.182-.858.385-1.297.567h.02zm-2.974 1.135V61.53c.439.04.858.081 1.297.102V45.088c-.439.163-.858.304-1.297.467zm-17.823 2.676v6.61c.419.303.858.607 1.297.911v-7.46c-.44 0-.858 0-1.297-.04v-.021zM20.054 37.79V11.01a44.7 44.7 0 00-1.297 1.48v24.47c.399.324.838.588 1.297.831zm2.974 1.237V8.19c-.44.365-.878.75-1.297 1.136V38.52c.458.182.878.385 1.297.507zm2.954.73V5.96c-.44.284-.878.588-1.297.913v32.58c.439.1.858.202 1.297.283v.02zm-4.252 8.231v4.379c.42.385.859.77 1.298 1.135V48.11c-.44-.04-.858-.08-1.297-.121zm-4.65-33.269c-.46.669-.899 1.378-1.298 2.088v28.079c.3.507.599 1.014.918 1.5.12.04.24.06.38.081m1.677 1.074v1.683c.419.507.838.994 1.297 1.48v-2.94c-.439-.06-.858-.141-1.297-.223zm-4.651-6.122V20.294a28.425 28.425 0 00-1.297 4.075v12.955a28.374 28.374 0 001.297 4.075v.02z" fill="#fff"/><path d="M64.124 11.009l-5.03 13.34 3.273-2.474c-.898 4.339-3.393 8.353-7.105 11.252-4.132 3.264-9.42 5.21-14.85 6.123a44.991 44.991 0 01-8.263.628c-2.774-.04-5.548-.344-8.203-1.034-1.337-.344-2.455-.71-3.832-1.398-2.495-1.257-2.295-1.541-3.094-2.555-.818-.993-.659-1.966-.439-3.203.22-1.237-.639 2.433.18 3.507.798 1.075 1.936 1.906 3.153 2.555a20.126 20.126 0 003.872 1.54c5.41 1.5 11.197 1.602 16.766.75 5.549-.871 11.037-2.777 15.428-6.122 2.176-1.683 4.072-3.71 5.41-6.001.319-.568.618-1.135.897-1.723a21.188 21.188 0 01-3.013 5.616c-2.555 3.405-6.028 6.203-9.9 8.413-1.936 1.095-3.992 2.048-6.088 2.879a51.47 51.47 0 01-6.506 2.007 47.434 47.434 0 01-13.632 1.216 38.143 38.143 0 01-6.767-1.013c-2.215-.527-4.31-1.379-6.326-2.372-1.996-1.014-3.873-2.23-5.43-3.73-1.536-1.5-2.774-3.285-3.392-5.272-.34-.973-.44-2.007-.48-3.02 0-1.034.18-2.048.44-3.042.299-.993.758-1.946 1.297-2.858.579-.892 1.198-1.764 1.976-2.555 1.477-1.601 3.333-2.899 5.329-3.953 1.996-1.075 4.171-1.865 6.407-2.433-4.51.973-8.882 2.96-12.055 6.143-.819.77-1.477 1.663-2.096 2.575-.579.932-1.078 1.906-1.437 2.94-.679 2.067-.779 4.318-.14 6.406.599 2.108 1.896 4.014 3.473 5.616 1.617 1.601 3.553 2.899 5.589 3.973 2.055 1.055 4.23 1.947 6.506 2.555 2.275.608 4.61.973 6.986 1.155 2.355.203 4.73.142 7.085-.06a49.84 49.84 0 006.966-1.095 51.474 51.474 0 006.726-2.027 49.762 49.762 0 006.307-2.94c4.012-2.27 7.665-5.17 10.38-8.738 1.336-1.784 2.434-3.75 3.173-5.819a19.863 19.863 0 001.077-5.494l4.83 1.622-5.508-11.84.06-.04z" fill="#fff"/></g><defs><clipPath id="clip0_9209_7741"><path fill="#fff" transform="translate(.095)" d="M0 0h244v61.956H0z"/></clipPath></defs></svg>