<svg width="226" height="56" fill="none" xmlns="http://www.w3.org/2000/svg"><g clip-path="url(#clip0_9209_7644)"><path d="M72.573 20.268V8.54h11.43v11.728h-3.387v-9.09h-4.638v9.072h-3.386l-.019.018zm14.135-.221v-2.584c.515.256 1.086.366 1.73.366.957 0 1.454-.293 2.006-1.246l-4.95-8.062h3.754l2.89 5.094 2.52-5.094h3.608l-4.84 9.143c-.608 1.155-1.454 1.998-2.282 2.346-.829.348-1.436.476-2.062.476-.957 0-1.73-.146-2.356-.458l-.018.019zm16.031.221v-9.09h-3.957V8.54h11.338v2.639h-3.976v9.07h-3.386l-.019.019zm9.165 0V8.54h10.031v2.639h-6.644v1.594h5.282v2.547h-5.282v2.29h6.791v2.64h-10.178v.018zm12.112 0V8.54h3.386v9.07h3.46V8.54h3.387v9.07h3.46V8.54h3.386v11.728h-17.079zm19.619 0V8.54h10.03v2.639h-6.644v1.594h5.282v2.547h-5.282v2.29h6.792v2.64h-10.178v.018zm13.509-1.485c-1.399-1.136-2.098-2.602-2.098-4.38 0-1.777.699-3.243 2.08-4.38 1.398-1.136 3.147-1.704 5.263-1.704 1.252 0 2.375.22 3.405.678v2.969a6.869 6.869 0 00-3.368-.861c-1.104 0-2.043.311-2.779.934-.736.623-1.104 1.43-1.104 2.382 0 .953.368 1.778 1.123 2.401.773.623 1.73.916 2.889.916 1.399 0 2.54-.311 3.479-.934v2.987c-1.068.494-2.283.732-3.626.732-2.117 0-3.865-.567-5.264-1.704v-.036zm14.227 1.485v-9.09h-3.957V8.54h11.337v2.639h-3.975v9.07h-3.386l-.019.019zm9.165 0V8.54h6.423c2.411 0 4.105 1.045 4.105 2.969 0 1.136-.737 1.942-1.546 2.272.644.128 1.233.476 1.73 1.026.515.55.773 1.246.773 2.09 0 1.007-.442 1.832-1.307 2.436-.847.623-2.006.917-3.405.917h-6.791l.018.018zm3.386-7.238h2.522c.828 0 1.362-.385 1.362-1.008 0-.66-.534-1.045-1.362-1.045h-2.522v2.053zm0 4.727h2.743c1.03 0 1.656-.458 1.656-1.246s-.662-1.264-1.656-1.264h-2.743v2.51zm10.031 2.29v-2.584c.515.256 1.086.366 1.73.366.957 0 1.454-.293 2.006-1.246l-4.951-8.062h3.755l2.889 5.094 2.522-5.094h3.607l-4.84 9.143c-.608 1.155-1.454 1.998-2.282 2.346-.829.348-1.436.476-2.062.476-.957 0-1.73-.146-2.356-.458l-.018.019zm12.792.22V8.54h3.387v6.615l5.447-6.615h2.945v11.727h-3.386V13.58l-5.54 6.688h-2.853zm4.601-15.264c.019.66.497 1.063 1.27 1.063s1.252-.403 1.27-1.063h2.319c-.018.916-.349 1.63-1.03 2.162-.663.513-1.51.788-2.522.788-1.012 0-1.859-.275-2.54-.788-.662-.513-.994-1.246-1.012-2.162h2.282-.037zm10.344 11.214l-.773-7.66h4.583l-.773 7.66h-3.037zm1.509.752c1.104 0 1.988.788 1.988 1.777 0 .477-.184.88-.589 1.246-.387.348-.847.513-1.399.513a2.077 2.077 0 01-1.417-.513c-.386-.348-.571-.751-.571-1.246 0-.99.865-1.777 1.988-1.777z" fill="#F8805F"/><path d="M73.419 34.103h-.847v-7.147h3.387c.791 0 1.435.183 1.895.55.46.366.681.843.681 1.447 0 .605-.22 1.1-.68 1.466-.46.367-1.086.55-1.896.55h-2.54v3.152-.018zm0-6.469v2.62h2.466c.57 0 1.012-.11 1.325-.348.313-.22.479-.55.479-.97 0-.422-.147-.752-.46-.972-.313-.22-.755-.348-1.325-.348h-2.467l-.018.018zm7.896.256c.773-.715 1.748-1.063 2.908-1.063s2.116.348 2.89 1.063c.772.715 1.159 1.594 1.159 2.639 0 1.044-.387 1.942-1.16 2.638-.773.697-1.73 1.045-2.89 1.045-1.159 0-2.134-.348-2.907-1.045-.773-.696-1.16-1.576-1.16-2.638 0-1.063.387-1.943 1.16-2.639zm.626 4.764c.607.568 1.361.862 2.263.862.902 0 1.657-.294 2.264-.862.608-.586.92-1.282.92-2.144 0-.86-.313-1.557-.92-2.125-.607-.568-1.362-.862-2.264-.862-.901 0-1.656.294-2.263.862-.608.586-.92 1.282-.92 2.125s.312 1.558.92 2.144zM94.31 34.23c-1.178 0-2.153-.349-2.963-1.045-.792-.696-1.178-1.576-1.178-2.657s.386-1.942 1.178-2.639c.791-.696 1.767-1.044 2.963-1.044.883 0 1.62.183 2.264.531v.77a4.44 4.44 0 00-2.245-.605c-.92 0-1.694.293-2.338.861-.626.55-.939 1.265-.939 2.126s.313 1.594.939 2.144c.644.568 1.417.843 2.356.843.939 0 1.73-.238 2.393-.715v.788c-.663.422-1.473.642-2.43.642zm8.023 0c-1.177 0-2.153-.349-2.963-1.045-.791-.696-1.178-1.576-1.178-2.657s.387-1.942 1.178-2.639c.792-.696 1.767-1.044 2.963-1.044.884 0 1.62.183 2.264.531v.77a4.438 4.438 0 00-2.245-.605c-.92 0-1.693.293-2.338.861-.625.55-.938 1.265-.938 2.126s.313 1.594.938 2.144c.645.568 1.418.843 2.356.843.939 0 1.73-.238 2.393-.715v.788c-.663.422-1.472.642-2.43.642zm5.136-.127h-.718v-7.147h.847v5.882l5.006-5.882h.754v7.147h-.846v-5.9l-5.043 5.9zm9.147-.001h-.718v-7.147h.847v5.883l5.006-5.883h.755v7.147h-.847v-5.9l-5.043 5.9zm2.577-7.66c-.571 0-1.031-.146-1.38-.421-.35-.275-.534-.66-.534-1.136h.736c0 .293.11.513.331.696.221.183.497.275.865.275s.626-.092.829-.275a.972.972 0 00.331-.696h.736c0 .476-.202.843-.552 1.136-.368.275-.81.421-1.344.421h-.018zm9.663 7.788c-1.178 0-2.153-.349-2.963-1.045-.792-.696-1.178-1.576-1.178-2.657s.386-1.942 1.178-2.639c.791-.696 1.767-1.044 2.963-1.044.883 0 1.62.183 2.264.531v.77a4.441 4.441 0 00-2.246-.605c-.92 0-1.693.293-2.337.861-.626.55-.939 1.265-.939 2.126s.313 1.594.939 2.144c.644.568 1.417.843 2.356.843.938 0 1.73-.238 2.392-.715v.788c-.662.422-1.472.642-2.429.642zm4.435-7.274h.847v3.097l3.736-3.097h1.123l-3.958 3.262 4.565 3.885h-1.196l-4.27-3.629v3.629h-.847v-7.147zm8.595 7.147h-.718v-7.147h.847v5.882l5.006-5.882h.754v7.147h-.846v-5.9l-5.043 5.9zm9.166-.001h-.718v-7.147h.847v5.883l5.006-5.883h.754v7.147h-.846v-5.9l-5.043 5.9zm2.576-7.66c-.57 0-1.03-.146-1.38-.421-.35-.275-.534-.66-.534-1.136h.737c0 .293.11.513.331.696.221.183.497.275.865.275s.626-.092.828-.275a.964.964 0 00.331-.696h.737c0 .476-.203.843-.553 1.136-.368.275-.809.421-1.343.421h-.019zm-78.165 17.61h-.847v-6.469h-2.78v-.678h6.443v.678h-2.816v6.469zm5.541.128c-.424 0-.755-.054-1.013-.146v-.696c.276.091.57.146.884.146.405 0 .736-.146.993-.44.13-.146.221-.293.313-.421.056-.073.166-.256.332-.55l-3.24-5.13h.94l2.723 4.36 2.264-4.36h.902l-2.964 5.643c-.312.587-.625.99-.975 1.246-.35.257-.718.385-1.141.385l-.019-.036zm7.673-.128h-.847v-7.147h3.387c.791 0 1.435.184 1.895.55.46.367.681.843.681 1.448 0 .604-.22 1.1-.68 1.466-.46.366-1.087.55-1.896.55h-2.54v3.151-.018zm0-6.469v2.62h2.466c.57 0 1.012-.11 1.325-.348.313-.22.479-.55.479-.97 0-.422-.148-.752-.46-.972-.313-.22-.755-.348-1.326-.348h-2.466l-.018.018zm7.804 6.469h-.717v-7.147h.846v5.883l5.006-5.883h.755v7.147h-.847v-5.9l-5.043 5.9zm12.221.128c-1.178 0-2.154-.347-2.964-1.044-.791-.696-1.177-1.576-1.177-2.657s.386-1.96 1.177-2.639c.792-.696 1.767-1.044 2.964-1.044.883 0 1.619.183 2.263.531v.77a4.439 4.439 0 00-2.245-.605c-.92 0-1.693.293-2.337.861-.626.569-.939 1.265-.939 2.145 0 .88.313 1.594.939 2.143.644.569 1.417.843 2.355.843.939 0 1.731-.238 2.393-.714v.788c-.662.421-1.472.641-2.429.641v-.018zm7.344-.128h-.847v-6.469h-2.779v-.678h6.442v.678h-2.816v6.469zm5.337 0h-.718v-7.147h.847v5.883l5.006-5.883h.754v7.147h-.846v-5.9l-5.043 5.9zm14.116 0h-.847v-3.225a7.208 7.208 0 01-2.356.385c-.938 0-1.638-.184-2.116-.532-.479-.348-.7-.916-.7-1.667v-2.108h.847v1.924c0 .623.166 1.063.497 1.301.331.257.883.385 1.656.385.718 0 1.436-.146 2.172-.421v-3.189h.847v7.147zm8.265 0h-5.705v-7.147h5.521v.678h-4.675v2.29h3.828v.679h-3.828v2.803h4.841v.678l.018.019zm5.576.128c-1.178 0-2.153-.347-2.963-1.044-.791-.696-1.178-1.576-1.178-2.657s.387-1.96 1.178-2.639c.792-.696 1.767-1.044 2.963-1.044.884 0 1.62.183 2.264.531v.77a4.439 4.439 0 00-2.245-.605c-.921 0-1.694.293-2.338.861-.625.569-.938 1.265-.938 2.145 0 .88.313 1.594.938 2.143.644.569 1.417.843 2.356.843.939 0 1.73-.238 2.393-.714v.788c-.663.421-1.473.641-2.43.641v-.018zm4.435-7.275h.847v3.115l3.736-3.115h1.123l-3.957 3.262 4.564 3.885h-1.196l-4.27-3.647v3.647h-.847v-7.147zm8.595 7.147h-.718v-7.147h.847v5.883l5.006-5.883h.755v7.147h-.847v-5.9l-5.043 5.9zm9.167.001h-.718v-7.146h.847v5.882l5.006-5.882h.755v7.146h-.847v-5.9l-5.043 5.9zm2.577-7.66c-.571 0-1.031-.146-1.381-.42-.349-.276-.533-.66-.533-1.137h.736c0 .293.11.513.331.696.221.184.497.257.865.257s.626-.092.828-.257a.97.97 0 00.332-.696h.736c0 .476-.203.843-.552 1.136-.368.275-.81.422-1.344.422h-.018zM77.082 54.222h-.846v-.733c-1.307-.018-2.3-.33-3-.916-.681-.586-1.012-1.3-1.012-2.162 0-.861.33-1.558 1.012-2.163.68-.604 1.675-.916 3-.934v-.66h.846v.66c1.326.018 2.32.33 3 .916.681.587 1.031 1.32 1.031 2.163 0 .843-.35 1.557-1.03 2.162-.681.586-1.675.898-3 .916v.751zm-.846-1.41v-4.783c-1.05 0-1.84.238-2.356.696-.515.458-.773 1.026-.773 1.704 0 .678.258 1.228.773 1.686.515.458 1.307.696 2.356.696zm.846-4.783v4.782c.553 0 1.031-.073 1.455-.22.423-.128.754-.311.975-.55.24-.22.423-.476.534-.75a2.35 2.35 0 00.165-.88c0-.678-.257-1.246-.773-1.704-.515-.459-1.306-.697-2.374-.697l.019.019zm7.086-.239c.773-.714 1.749-1.063 2.908-1.063 1.16 0 2.117.349 2.89 1.063.773.715 1.16 1.595 1.16 2.64 0 1.044-.387 1.941-1.16 2.638-.773.696-1.73 1.044-2.89 1.044-1.16 0-2.135-.348-2.908-1.044-.773-.697-1.16-1.576-1.16-2.639 0-1.063.387-1.942 1.16-2.639zm.626 4.765c.607.568 1.362.861 2.264.861.902 0 1.656-.293 2.264-.861.607-.587.92-1.283.92-2.126s-.313-1.558-.92-2.144c-.608-.568-1.362-.861-2.264-.861-.902 0-1.657.293-2.264.861-.607.587-.92 1.283-.92 2.144 0 .861.313 1.558.92 2.126zm9.406 1.448h-.847v-7.147h3.386c.791 0 1.436.184 1.896.55.46.367.68.843.68 1.448s-.22 1.1-.68 1.466c-.46.366-1.086.55-1.896.55h-2.54v3.151-.018zm0-6.468v2.62h2.465c.571 0 1.013-.11 1.326-.348.313-.22.478-.55.478-.971 0-.422-.147-.752-.46-.972-.313-.22-.755-.348-1.325-.348h-2.466l-.019.019zm7.987 6.595c-.423 0-.755-.054-1.012-.146v-.696c.276.092.57.147.883.147.405 0 .736-.147.994-.44.129-.147.221-.293.313-.422.055-.073.166-.256.331-.55l-3.239-5.13h.939l2.724 4.36 2.263-4.36h.902l-2.963 5.644c-.313.586-.626.99-.975 1.246-.35.256-.718.384-1.142.384l-.018-.036zm7.674-.127h-.846v-7.147h.846l2.908 3.464 2.908-3.464h.828v7.147h-.846v-6.01l-2.632 3.133h-.515l-2.651-3.133v6.01z" fill="#047BC1"/><path d="M30.353 36.612c.405.018.791.037 1.196.037a42.63 42.63 0 006.295-.477c4.583-.696 9.11-2.162 12.938-4.636V9.931a24.673 24.673 0 00-2.337-.091c-13.859 0-25.104 10.335-25.104 23.089 0 1.008.055 1.887.184 2.858 2.227.495 4.527.715 6.828.843v-.018z" fill="#F8805F"/><path d="M34.66 41.799a48.181 48.181 0 006.202-1.833 46.322 46.322 0 005.816-2.657 37.168 37.168 0 004.104-2.639v-2.29c-3.755 2.345-8.172 3.738-12.626 4.416-4.822.715-9.81.678-14.54-.44a22.035 22.035 0 002.209 6.579 36.04 36.04 0 002.43-.147 46.835 46.835 0 006.423-.99h-.019z" fill="#F8805F"/><path d="M47.047 37.932a44.413 44.413 0 01-5.853 2.675c-2.024.751-4.123 1.356-6.24 1.85-2.116.496-4.287.807-6.478 1.009-.773.073-1.527.11-2.3.146 4.196 7.367 12.589 12.406 22.251 12.406.792 0 1.565-.037 2.338-.092V35.605a37.422 37.422 0 01-3.718 2.364v-.036z" fill="#F8805F"/><path d="M43.55 35.586c-.405.128-.792.238-1.197.33v3.463c.405-.165.792-.348 1.197-.513v-3.28zm-2.742.714c-.405.092-.792.166-1.197.239v3.867c.405-.129.792-.275 1.197-.422v-3.683zm2.741-1.428V0h-1.178v35.22c.405-.11.791-.22 1.196-.348h-.018zm-5.705 1.3s.147-.018.22-.037V.33c-.404.055-.79.11-1.196.183V36.32c.331-.037.644-.092.976-.129v-.018zm-2.521.313V.825c-.405.092-.791.183-1.196.293v35.459c.405-.019.791-.055 1.196-.092zm-3.773.165h1.05V1.557c-.405.128-.792.256-1.197.384V36.65h.148zm9.258-1.045V.073c-.405.019-.792.055-1.197.092V35.86c.405-.073.792-.165 1.197-.256zm-2.742 1.21c-.405.054-.792.11-1.197.164v4.288c.405-.11.792-.22 1.197-.348v-4.104zM18.905 34.67c-.405-.22-.81-.458-1.196-.733v8.393c.405.074.791.128 1.196.202v-7.88.018zm2.743 1.155a13.56 13.56 0 01-1.197-.44v7.366c.405.037.792.074 1.197.11v-7.036zm13.675 5.827v-4.526c-.405.037-.791.055-1.196.092v4.709l.534-.11.662-.165zm-5.466-5.113V2.529c-.405.164-.81.33-1.197.512v33.443l1.197.055zm-5.486 6.432V36.54c-.405-.092-.791-.184-1.196-.275v6.688c.405 0 .791.018 1.196.018zm8.229-5.699h-1.197v5.15c.405-.055.792-.129 1.197-.202v-4.966.018zm-2.743-.037a26.076 26.076 0 01-1.197-.073v5.607c.405-.036.792-.073 1.197-.128v-5.406zm-2.743-.238l-1.196-.165v6.12c.405 0 .791-.036 1.196-.054v-5.901zm1.546 6.451v9.29c.387.184.792.349 1.197.514v-9.914c-.405.036-.792.091-1.197.128v-.018zm-1.546-7.109V3.794c-.405.202-.81.421-1.196.66v31.738c.405.055.791.11 1.196.147zm-1.196 7.274v7.715c.387.22.791.44 1.196.66v-8.412l-1.196.055v-.018zm9.037-1.155c-.276.055-.552.128-.828.183v12.021c.386.11.791.202 1.196.293v-12.57c-.129.036-.239.055-.368.091v-.018zm-3.552.661V53.82c.387.147.792.275 1.197.385V42.917c-.405.073-.792.128-1.197.183v.019zm5.467-1.138v13.267c.386.074.79.129 1.196.184v-13.78c-.405.11-.792.22-1.197.33zm5.484-1.831v15.612h1.178V39.637c-.386.165-.791.348-1.196.513h.018zm-2.743 1.025v14.44c.405.037.792.073 1.197.092V40.754c-.405.147-.792.275-1.197.421zm-16.436 2.42v5.974c.386.274.791.55 1.196.824V43.65c-.405 0-.791 0-1.196-.037v-.018zm-4.27-9.437V9.951c-.405.44-.81.88-1.196 1.338v22.118c.368.293.773.531 1.196.751zm2.743 1.117V7.403c-.405.33-.81.678-1.197 1.027v26.387c.424.165.81.348 1.197.458zm2.723.66V5.388c-.405.256-.81.531-1.196.824V35.66c.405.092.791.183 1.196.257v.018zm-3.92 7.439v3.958a31.7 31.7 0 001.197 1.026v-4.874l-1.197-.11zm-4.288-30.07a25.149 25.149 0 00-1.196 1.887v25.38c.276.458.552.916.846 1.356.11.036.221.055.35.073m1.546.972v1.52c.387.459.773.899 1.196 1.338v-2.657c-.405-.055-.791-.128-1.196-.201zm-4.289-5.535V18.343a25.33 25.33 0 00-1.195 3.683v11.71a25.338 25.338 0 001.196 3.683v.018z" fill="#047BC1"/><path d="M59.543 9.951L54.905 22.01l3.019-2.236c-.829 3.922-3.13 7.55-6.553 10.17-3.81 2.95-8.687 4.71-13.693 5.534a42.306 42.306 0 01-7.62.568c-2.558-.036-5.116-.311-7.564-.934-1.233-.312-2.264-.642-3.534-1.264-2.3-1.137-2.116-1.393-2.852-2.31-.755-.897-.608-1.777-.405-2.895.202-1.117-.59 2.2.165 3.17.737.972 1.786 1.723 2.908 2.31a18.732 18.732 0 003.57 1.392c4.989 1.356 10.326 1.448 15.461.678 5.117-.788 10.178-2.51 14.227-5.534 2.006-1.521 3.755-3.353 4.988-5.424.294-.513.57-1.026.828-1.558a19.03 19.03 0 01-2.78 5.076c-2.355 3.079-5.557 5.608-9.128 7.605-1.785.99-3.681 1.85-5.614 2.602a48.18 48.18 0 01-6 1.814 44.595 44.595 0 01-12.57 1.1 35.826 35.826 0 01-6.24-.917c-2.042-.476-3.975-1.246-5.834-2.144-1.84-.916-3.57-2.015-5.006-3.371-1.417-1.356-2.558-2.969-3.129-4.765-.313-.88-.405-1.814-.441-2.73 0-.935.165-1.85.405-2.749.276-.898.699-1.759 1.196-2.584.534-.806 1.104-1.594 1.822-2.308 1.362-1.448 3.074-2.62 4.914-3.574 1.84-.97 3.847-1.686 5.908-2.199-4.16.88-8.19 2.676-11.117 5.553-.754.696-1.362 1.502-1.932 2.327-.534.843-.994 1.722-1.325 2.657-.626 1.87-.718 3.903-.13 5.79.553 1.906 1.75 3.629 3.203 5.076 1.491 1.448 3.276 2.62 5.154 3.592 1.896.953 3.902 1.76 6 2.309 2.098.55 4.251.88 6.442 1.044 2.171.184 4.361.129 6.533-.055a46.83 46.83 0 006.424-.989 48.183 48.183 0 006.202-1.832 46.334 46.334 0 005.816-2.657c3.7-2.053 7.067-4.673 9.57-7.898 1.234-1.613 2.246-3.39 2.927-5.26.57-1.594.902-3.28.994-4.966l4.454 1.466-5.08-10.701.055-.037z" fill="#047BC1"/></g><defs><clipPath id="clip0_9209_7644"><path fill="#fff" transform="translate(.5)" d="M0 0h225v56H0z"/></clipPath></defs></svg>