<?xml version="1.0" encoding="utf-8"?><svg viewBox="0 0 150 150" xmlns="http://www.w3.org/2000/svg" xmlns:xlink="http://www.w3.org/1999/xlink"><style>:root>svg{display:none}:root>svg:target{display:block}</style><svg fill="none" viewBox="0 0 7 12" id="icon-arrow-more" xmlns="http://www.w3.org/2000/svg"><path d="M4.4 6L.5 2.1a.948.948 0 01-.275-.7c0-.284.091-.517.275-.7a.948.948 0 01.7-.275c.283 0 .516.091.7.275l4.6 4.6c.1.1.17.208.212.325.042.116.063.241.063.375 0 .133-.021.258-.063.375A.877.877 0 016.5 6.7l-4.6 4.6a.948.948 0 01-.7.275.948.948 0 01-.7-.275.948.948 0 01-.275-.7c0-.284.091-.517.275-.7L4.4 6z" fill="currentColor"/></svg><svg fill="none" viewBox="0 0 28 10" id="icon-arrow-next" xmlns="http://www.w3.org/2000/svg"><rect x="22.523" y=".084" width="6.778" height="1.174" rx=".587" transform="rotate(45 22.523 .084)" fill="currentColor"/><rect x="21.793" y="9.051" width="6.834" height=".958" rx=".479" transform="rotate(-45 21.793 9.05)" fill="currentColor"/><rect y="4.465" width="27" height="1" rx=".5" fill="currentColor"/></svg><svg fill="none" viewBox="0 0 28 11" id="icon-arrow-prev" xmlns="http://www.w3.org/2000/svg"><rect width="6.778" height="1.174" rx=".587" transform="scale(-1 1) rotate(45 -3 -5.536)" fill="currentColor"/><rect width="6.834" height=".958" rx=".479" transform="scale(-1 1) rotate(-45 8.666 11.4)" fill="currentColor"/><rect width="27" height="1" rx=".5" transform="matrix(-1 0 0 1 27.315 4.88)" fill="currentColor"/></svg><svg fill="none" viewBox="0 0 30 31" id="icon-broadcasts" xmlns="http://www.w3.org/2000/svg"><rect x=".968" y="1.528" width="28.064" height="28.064" rx="14.032" fill="#054975"/><rect x=".968" y="1.528" width="28.064" height="28.064" rx="14.032" stroke="#047BC1" stroke-width="1.935"/><path d="M8.636 21.925a9 9 0 010-12.728m12.728 0a9.001 9.001 0 010 12.728m-9.9-2.828a4.998 4.998 0 010-7.072m7.072 0a5 5 0 010 7.072M16 15.561a1 1 0 11-2 0 1 1 0 012 0z" stroke="#fff" stroke-width="2" stroke-linecap="round" stroke-linejoin="round"/></svg><svg fill="none" viewBox="0 0 12 8" id="icon-caret" xmlns="http://www.w3.org/2000/svg"><path d="M5.575 4.9l3.9-3.9a.948.948 0 01.7-.275c.284 0 .517.091.7.275a.948.948 0 01.275.7.948.948 0 01-.275.7L6.275 7c-.1.1-.208.17-.325.212a1.107 1.107 0 01-.375.063c-.133 0-.258-.021-.375-.063A.877.877 0 014.875 7l-4.6-4.6A.948.948 0 010 1.7c0-.284.092-.517.275-.7a.948.948 0 01.7-.275c.284 0 .517.091.7.275l3.9 3.9z" fill="currentColor"/></svg><svg fill="none" viewBox="0 0 12 9" id="icon-checkbox-mark-white" xmlns="http://www.w3.org/2000/svg"><path d="M4.092 6.711L1.58 4.046.5 5.191 4.092 9 11.5 1.144 10.42 0 4.093 6.711z" fill="#fff"/></svg><svg fill="none" viewBox="0 0 40 40" id="icon-close" xmlns="http://www.w3.org/2000/svg"><path d="M13 27l14-14m0 14L13 13" stroke="currentColor" stroke-width="2" stroke-linecap="round" stroke-linejoin="round"/></svg><svg fill="none" viewBox="0 0 30 30" id="icon-list" xmlns="http://www.w3.org/2000/svg"><rect x=".484" y=".484" width="29.032" height="29.032" rx="14.516" fill="currentColor"/><rect x=".484" y=".484" width="29.032" height="29.032" rx="14.516" stroke="currentColor" stroke-width=".968"/><path d="M18.192 13.685l-1.716-1.668a.774.774 0 01-.175-.856.785.785 0 01.437-.425.825.825 0 01.879.17l1.141 1.11 2.865-2.786a.818.818 0 01.57-.23c.214 0 .42.083.57.23a.774.774 0 01.237.555.774.774 0 01-.236.555l-3.431 3.338a.814.814 0 01-1.141.007zm-4.718-2.59H7.809a.8.8 0 00-.809.788.8.8 0 00.81.787h5.664a.8.8 0 00.809-.787.8.8 0 00-.81-.787zM21.8 15.59a.808.808 0 00-.57-.23.825.825 0 00-.571.23l-1.522 1.48-1.521-1.48a.818.818 0 00-.57-.23.818.818 0 00-.571.23.774.774 0 00-.236.555c0 .209.085.408.236.555l1.521 1.48-1.521 1.48a.785.785 0 00-.236.555.767.767 0 00.236.555.818.818 0 00.88.17.809.809 0 00.261-.17l1.521-1.48 1.522 1.48a.818.818 0 001.141 0 .774.774 0 00.236-.555.774.774 0 00-.236-.555l-1.522-1.48 1.522-1.48a.785.785 0 00.236-.555.766.766 0 00-.236-.555zm-8.327 1.803H7.809A.8.8 0 007 18.18a.8.8 0 00.81.788h5.664a.8.8 0 00.809-.788.8.8 0 00-.81-.787z" fill="#fff"/></svg><svg fill="none" viewBox="0 0 20 20" id="icon-list-mark" xmlns="http://www.w3.org/2000/svg"><rect width="20" height="20" rx="10" fill="#E4F0F8"/><path d="M9.718 20h.563A9.718 9.718 0 0120 10.281v-.563A9.718 9.718 0 0110.281 0h-.563A9.718 9.718 0 010 9.718v.563A9.718 9.718 0 019.718 20z" fill="#7AB6DD"/></svg><svg fill="none" viewBox="0 0 30 30" id="icon-list-program" xmlns="http://www.w3.org/2000/svg"><rect x=".484" y=".484" width="29.032" height="29.032" rx="14.516" fill="currentColor"/><rect x=".484" y=".484" width="29.032" height="29.032" rx="14.516" stroke="currentColor" stroke-width=".968"/><path d="M22 11.11v4.8a1.557 1.557 0 01-.46 1.104l-4.526 4.527a1.555 1.555 0 01-1.105.458h-4.797A3.11 3.11 0 018 18.89V11.11A3.11 3.11 0 0111.11 8h7.78A3.111 3.111 0 0122 11.11z" stroke="#fff" stroke-width="1.5" stroke-linecap="round" stroke-linejoin="round"/><path d="M16.556 21.867l-.39-3.11a2.332 2.332 0 012.606-2.607l3.11.39m-10.77-4.651h6.999m-7 3.11h3.111m-3.11 3.111h2.332" stroke="#fff" stroke-width="1.5" stroke-linecap="round" stroke-linejoin="round"/></svg><svg fill="none" viewBox="0 0 62 63" id="icon-pen" xmlns="http://www.w3.org/2000/svg"><rect x="1" y="1.95" width="60" height="60" rx="30" fill="#fff"/><rect x="1" y="1.95" width="60" height="60" rx="30" stroke="currentColor" stroke-width="2"/><path d="M44.574 21.395l-3.696-3.808c-.284-.293-.568-.586-1.137-.586-.568 0-.853.293-1.137.586l-2.843 2.93 5.97 6.15 2.843-2.929c.568-.585.568-1.757 0-2.343zM22.97 46.001l17.055-17.869-5.685-6.151L17 39.849v6.152h5.97z" fill="currentColor"/></svg><svg fill="none" viewBox="0 0 150 150" id="icon-play" xmlns="http://www.w3.org/2000/svg"><g clip-path="url(#lclip0_9209_4549)"><circle cx="75" cy="75" r="75" fill="currentColor"/><path d="M81.936 65.705C87.312 69.66 90 71.627 90 75c0 3.372-2.688 5.346-8.064 9.294a78.473 78.473 0 01-4.308 2.97c-1.282.8-2.589 1.56-3.918 2.28-5.364 2.94-8.04 4.41-10.446 2.784-2.406-1.626-2.622-5.028-3.06-11.826C60.084 78.575 60 76.691 60 75c0-1.692.078-3.576.204-5.502.432-6.798.654-10.2 3.06-11.82 2.4-1.632 5.082-.162 10.44 2.772a69.839 69.839 0 013.924 2.286c1.356.858 2.826 1.884 4.308 2.97z" stroke="#F8805F" stroke-width="6"/></g><defs><clipPath id="lclip0_9209_4549"><path fill="#fff" d="M0 0h150v150H0z"/></clipPath></defs></svg><svg fill="none" viewBox="0 0 30 30" id="icon-result" xmlns="http://www.w3.org/2000/svg"><rect x=".484" y=".484" width="29.032" height="29.032" rx="14.516" fill="currentColor"/><rect x=".484" y=".484" width="29.032" height="29.032" rx="14.516" stroke="currentColor" stroke-width=".968"/><g clip-path="url(#mclip0_9214_4758)" fill="#fff"><path d="M22.807 17.122l-1.92-1.928a.617.617 0 00-.896 0l-5.952 5.978v2.829h2.816l5.952-5.979a.623.623 0 000-.9zm-6.464 5.593H15.32v-1.028l3.2-3.215 1.024 1.029-3.2 3.214zm4.096-4.114l-1.024-1.029 1.024-1.028 1.024 1.028-1.024 1.029zm-10.24.9h1.28v1.286H10.2V19.5zm2.56-3.214h2.56v1.285h-2.56v-1.285zm-2.56 0h1.28v1.285H10.2v-1.285zm2.56-3.215h5.12v1.286h-5.12v-1.286zm-2.56 0h1.28v1.286H10.2v-1.286z"/><path d="M8.28 22.714v-13.5h1.92v1.929h7.68V9.214h1.92v3.857h1.28V9.214c0-.707-.576-1.285-1.28-1.285h-1.92v-.643C17.88 6.579 17.304 6 16.6 6h-5.12c-.704 0-1.28.579-1.28 1.286v.643H8.28c-.704 0-1.28.578-1.28 1.285v13.5C7 23.421 7.576 24 8.28 24h3.2v-1.286h-3.2zm3.2-15.428h5.12v2.571h-5.12V7.286z"/></g><defs><clipPath id="mclip0_9214_4758"><path fill="#fff" transform="translate(7 6)" d="M0 0h16v18H0z"/></clipPath></defs></svg><svg fill="none" viewBox="0 0 43 43" id="icon-search" xmlns="http://www.w3.org/2000/svg"><g clip-path="url(#nclip0_11007_2794)"><path fill-rule="evenodd" clip-rule="evenodd" d="M18.47 4.478a14.875 14.875 0 109.209 26.558l6.39 6.391a1.75 1.75 0 002.475-2.474l-6.39-6.392A14.875 14.875 0 0018.47 4.479zM7.095 19.353a11.375 11.375 0 1122.75 0 11.375 11.375 0 01-22.75 0z" fill="currentColor"/></g><defs><clipPath id="nclip0_11007_2794"><path fill="#fff" transform="translate(.095 .978)" d="M0 0h42v42H0z"/></clipPath></defs></svg><svg fill="none" viewBox="0 0 24 20" id="icon-tg" xmlns="http://www.w3.org/2000/svg"><path d="M12.791 15.672c-.954.906-1.86 1.791-2.795 2.642-.24.219-.58.331-.983.553.072-1.117.13-2.047.194-2.976.052-.763.09-1.529.178-2.287.027-.236.14-.521.311-.675 3.168-2.861 6.351-5.705 9.529-8.554.22-.199.422-.419.669-.664-.444-.251-.725-.069-1 .103-1.974 1.231-3.948 2.466-5.922 3.7-2.107 1.315-4.216 2.627-6.318 3.951-.241.153-.452.199-.734.11-1.62-.517-3.249-1.01-4.87-1.523-.436-.14-1.02-.227-1.049-.786-.03-.595.544-.79 1.004-.97 2.253-.879 4.513-1.74 6.772-2.603C12.572 3.86 17.369 2.03 22.165.2c.131-.05.26-.105.396-.141.838-.224 1.485.215 1.436 1.08-.041.756-.224 1.507-.383 2.253-1.08 5.075-2.17 10.148-3.259 15.22-.023.107-.05.212-.08.317-.318 1.099-1.079 1.378-2.032.721-.708-.487-1.391-1.008-2.086-1.515l-3.366-2.458v-.004z" fill="currentColor"/></svg><svg fill="none" viewBox="0 0 30 30" id="icon-video" xmlns="http://www.w3.org/2000/svg"><rect x=".968" y=".968" width="28.064" height="28.064" rx="14.032" fill="#054975"/><rect x=".968" y=".968" width="28.064" height="28.064" rx="14.032" stroke="#047BC1" stroke-width="1.935"/><path d="M18.543 11.643C20.514 13.072 21.5 13.782 21.5 15c0 1.217-.986 1.93-2.957 3.356a28.79 28.79 0 01-1.58 1.072c-.47.29-.949.564-1.436.823-1.967 1.062-2.948 1.593-3.83 1.006-.882-.587-.962-1.816-1.122-4.27A32.277 32.277 0 0110.5 15c0-.611.029-1.292.075-1.987.158-2.455.24-3.683 1.122-4.268.88-.59 1.863-.059 3.828 1 .512.276 1.005.555 1.439.826.497.31 1.036.68 1.58 1.072z" stroke="#fff" stroke-width="2"/></svg><svg fill="none" viewBox="0 0 26 15" id="icon-vk" xmlns="http://www.w3.org/2000/svg"><path d="M8.596.903c.343-.592.848-.843 1.418-.86 1.333-.04 2.669-.07 3.998-.006.88.043 1.208.482 1.21 1.4.001 1.138-.045 2.277-.052 3.414-.003.55-.008 1.108.072 1.65.117.789.628.965 1.198.433 1.07-.996 1.723-2.29 2.4-3.562.336-.634.615-1.303.877-1.973.213-.547.52-.802 1.14-.788 1.352.032 2.706-.014 4.06-.038.969-.018 1.343.438.895 1.317-.572 1.125-1.274 2.186-1.968 3.24-.536.816-1.164 1.567-1.716 2.373-.572.837-.524 1.22.165 1.95.95 1.007 1.923 1.99 2.84 3.027.329.374.581.85.754 1.324.223.61-.06 1.058-.689 1.09-1.402.071-2.808.127-4.211.098-.767-.016-1.407-.465-1.939-1.021-.483-.507-.938-1.043-1.407-1.562a9.419 9.419 0 00-.427-.442c-.97-.95-1.545-.368-1.841.574-.131.418-.133.88-.165 1.325-.06.772-.326 1.049-1.079 1.06-1.557.025-3.11.08-4.574-.637-1.972-.965-3.504-2.415-4.78-4.212C2.911 7.452 1.416 4.626.138 1.672-.171.956.03.635.812.614 1.945.584 3.08.582 4.213.558c.666-.014 1.08.274 1.376.908a102.976 102.976 0 002.242 4.453c.204.384.522.723.84 1.026.642.612 1.237.445 1.35-.441.141-1.122.138-2.261.182-3.394.01-.237-.055-.478-.092-.717-.115-.762-.503-1.261-1.287-1.379-.063-.01-.119-.057-.225-.11h-.003z" fill="currentColor"/></svg><svg fill="none" viewBox="0 0 24 17" id="icon-yt" xmlns="http://www.w3.org/2000/svg"><path d="M9.97.048a41.002 41.002 0 013.952 0c2.099.099 4.198.193 6.295.326 2.139.135 3.156 1.063 3.444 3.19.463 3.414.463 6.836-.069 10.247-.263 1.688-1.247 2.622-2.914 2.803-3.71.404-7.435.44-11.16.337a101.509 101.509 0 01-6.02-.342c-1.9-.166-2.851-1.062-3.124-2.992C-.115 10.156-.15 6.681.42 3.224.725 1.394 1.773.486 3.626.374 5.74.247 7.852.148 9.97.048h.002zm-.326 4.85v7.228l6.208-3.615-6.208-3.614v.001z" fill="currentColor"/></svg></svg>