<?xml version="1.0" encoding="utf-8"?><svg viewBox="0 0 43 43" xmlns="http://www.w3.org/2000/svg" xmlns:xlink="http://www.w3.org/1999/xlink"><style>:root>svg{display:none}:root>svg:target{display:block}</style><svg fill="none" viewBox="0 0 28 10" id="icon-arrow-next" xmlns="http://www.w3.org/2000/svg"><rect x="22.523" y=".084" width="6.778" height="1.174" rx=".587" transform="rotate(45 22.523 .084)" fill="currentColor"/><rect x="21.793" y="9.051" width="6.834" height=".958" rx=".479" transform="rotate(-45 21.793 9.05)" fill="currentColor"/><rect y="4.465" width="27" height="1" rx=".5" fill="currentColor"/></svg><svg fill="none" viewBox="0 0 28 11" id="icon-arrow-prev" xmlns="http://www.w3.org/2000/svg"><rect width="6.778" height="1.174" rx=".587" transform="scale(-1 1) rotate(45 -3 -5.536)" fill="currentColor"/><rect width="6.834" height=".958" rx=".479" transform="scale(-1 1) rotate(-45 8.666 11.4)" fill="currentColor"/><rect width="27" height="1" rx=".5" transform="matrix(-1 0 0 1 27.315 4.88)" fill="currentColor"/></svg><svg fill="none" viewBox="0 0 12 8" id="icon-caret" xmlns="http://www.w3.org/2000/svg"><path d="M5.575 4.9l3.9-3.9a.948.948 0 01.7-.275c.284 0 .517.091.7.275a.948.948 0 01.275.7.948.948 0 01-.275.7L6.275 7c-.1.1-.208.17-.325.212a1.107 1.107 0 01-.375.063c-.133 0-.258-.021-.375-.063A.877.877 0 014.875 7l-4.6-4.6A.948.948 0 010 1.7c0-.284.092-.517.275-.7a.948.948 0 01.7-.275c.284 0 .517.091.7.275l3.9 3.9z" fill="currentColor"/></svg><svg fill="none" viewBox="0 0 12 9" id="icon-checkbox-mark-white" xmlns="http://www.w3.org/2000/svg"><path d="M4.092 6.711L1.58 4.046.5 5.191 4.092 9 11.5 1.144 10.42 0 4.093 6.711z" fill="#fff"/></svg><svg fill="none" viewBox="0 0 30 30" id="icon-list" xmlns="http://www.w3.org/2000/svg"><rect x=".484" y=".484" width="29.032" height="29.032" rx="14.516" fill="currentColor"/><rect x=".484" y=".484" width="29.032" height="29.032" rx="14.516" stroke="currentColor" stroke-width=".968"/><path d="M18.192 13.685l-1.716-1.668a.774.774 0 01-.175-.856.785.785 0 01.437-.425.825.825 0 01.879.17l1.141 1.11 2.865-2.786a.818.818 0 01.57-.23c.214 0 .42.083.57.23a.774.774 0 01.237.555.774.774 0 01-.236.555l-3.431 3.338a.814.814 0 01-1.141.007zm-4.718-2.59H7.809a.8.8 0 00-.809.788.8.8 0 00.81.787h5.664a.8.8 0 00.809-.787.8.8 0 00-.81-.787zM21.8 15.59a.808.808 0 00-.57-.23.825.825 0 00-.571.23l-1.522 1.48-1.521-1.48a.818.818 0 00-.57-.23.818.818 0 00-.571.23.774.774 0 00-.236.555c0 .209.085.408.236.555l1.521 1.48-1.521 1.48a.785.785 0 00-.236.555.767.767 0 00.236.555.818.818 0 00.88.17.809.809 0 00.261-.17l1.521-1.48 1.522 1.48a.818.818 0 001.141 0 .774.774 0 00.236-.555.774.774 0 00-.236-.555l-1.522-1.48 1.522-1.48a.785.785 0 00.236-.555.766.766 0 00-.236-.555zm-8.327 1.803H7.809A.8.8 0 007 18.18a.8.8 0 00.81.788h5.664a.8.8 0 00.809-.788.8.8 0 00-.81-.787z" fill="#fff"/></svg><svg fill="none" viewBox="0 0 43 43" id="icon-search" xmlns="http://www.w3.org/2000/svg"><g clip-path="url(#fclip0_11007_2794)"><path fill-rule="evenodd" clip-rule="evenodd" d="M18.47 4.478a14.875 14.875 0 109.209 26.558l6.39 6.391a1.75 1.75 0 002.475-2.474l-6.39-6.392A14.875 14.875 0 0018.47 4.479zM7.095 19.353a11.375 11.375 0 1122.75 0 11.375 11.375 0 01-22.75 0z" fill="currentColor"/></g><defs><clipPath id="fclip0_11007_2794"><path fill="#fff" transform="translate(.095 .978)" d="M0 0h42v42H0z"/></clipPath></defs></svg><svg fill="none" viewBox="0 0 24 20" id="icon-tg" xmlns="http://www.w3.org/2000/svg"><path d="M12.791 15.672c-.954.906-1.86 1.791-2.795 2.642-.24.219-.58.331-.983.553.072-1.117.13-2.047.194-2.976.052-.763.09-1.529.178-2.287.027-.236.14-.521.311-.675 3.168-2.861 6.351-5.705 9.529-8.554.22-.199.422-.419.669-.664-.444-.251-.725-.069-1 .103-1.974 1.231-3.948 2.466-5.922 3.7-2.107 1.315-4.216 2.627-6.318 3.951-.241.153-.452.199-.734.11-1.62-.517-3.249-1.01-4.87-1.523-.436-.14-1.02-.227-1.049-.786-.03-.595.544-.79 1.004-.97 2.253-.879 4.513-1.74 6.772-2.603C12.572 3.86 17.369 2.03 22.165.2c.131-.05.26-.105.396-.141.838-.224 1.485.215 1.436 1.08-.041.756-.224 1.507-.383 2.253-1.08 5.075-2.17 10.148-3.259 15.22-.023.107-.05.212-.08.317-.318 1.099-1.079 1.378-2.032.721-.708-.487-1.391-1.008-2.086-1.515l-3.366-2.458v-.004z" fill="currentColor"/></svg><svg fill="none" viewBox="0 0 26 15" id="icon-vk" xmlns="http://www.w3.org/2000/svg"><path d="M8.596.903c.343-.592.848-.843 1.418-.86 1.333-.04 2.669-.07 3.998-.006.88.043 1.208.482 1.21 1.4.001 1.138-.045 2.277-.052 3.414-.003.55-.008 1.108.072 1.65.117.789.628.965 1.198.433 1.07-.996 1.723-2.29 2.4-3.562.336-.634.615-1.303.877-1.973.213-.547.52-.802 1.14-.788 1.352.032 2.706-.014 4.06-.038.969-.018 1.343.438.895 1.317-.572 1.125-1.274 2.186-1.968 3.24-.536.816-1.164 1.567-1.716 2.373-.572.837-.524 1.22.165 1.95.95 1.007 1.923 1.99 2.84 3.027.329.374.581.85.754 1.324.223.61-.06 1.058-.689 1.09-1.402.071-2.808.127-4.211.098-.767-.016-1.407-.465-1.939-1.021-.483-.507-.938-1.043-1.407-1.562a9.419 9.419 0 00-.427-.442c-.97-.95-1.545-.368-1.841.574-.131.418-.133.88-.165 1.325-.06.772-.326 1.049-1.079 1.06-1.557.025-3.11.08-4.574-.637-1.972-.965-3.504-2.415-4.78-4.212C2.911 7.452 1.416 4.626.138 1.672-.171.956.03.635.812.614 1.945.584 3.08.582 4.213.558c.666-.014 1.08.274 1.376.908a102.976 102.976 0 002.242 4.453c.204.384.522.723.84 1.026.642.612 1.237.445 1.35-.441.141-1.122.138-2.261.182-3.394.01-.237-.055-.478-.092-.717-.115-.762-.503-1.261-1.287-1.379-.063-.01-.119-.057-.225-.11h-.003z" fill="currentColor"/></svg><svg fill="none" viewBox="0 0 24 17" id="icon-yt" xmlns="http://www.w3.org/2000/svg"><path d="M9.97.048a41.002 41.002 0 013.952 0c2.099.099 4.198.193 6.295.326 2.139.135 3.156 1.063 3.444 3.19.463 3.414.463 6.836-.069 10.247-.263 1.688-1.247 2.622-2.914 2.803-3.71.404-7.435.44-11.16.337a101.509 101.509 0 01-6.02-.342c-1.9-.166-2.851-1.062-3.124-2.992C-.115 10.156-.15 6.681.42 3.224.725 1.394 1.773.486 3.626.374 5.74.247 7.852.148 9.97.048h.002zm-.326 4.85v7.228l6.208-3.615-6.208-3.614v.001z" fill="currentColor"/></svg></svg>