<svg width="1111" height="331" fill="none" xmlns="http://www.w3.org/2000/svg"><mask id="a" style="mask-type:luminance" maskUnits="userSpaceOnUse" x="0" y="0" width="1111" height="332"><path d="M.28 331.001H1111V0H.28v331z" fill="#fff"/></mask><g mask="url(#a)"><path d="M-79.597 781.875H1107.54v-896.771H-79.597v896.771z" fill="#7AB6DD"/><mask id="b" style="mask-type:luminance" maskUnits="userSpaceOnUse" x="-81" y="-115" width="1189" height="897"><path d="M-80.01 781.878h1187.55v-896.771H-80.01v896.771z" fill="#fff"/></mask><g mask="url(#b)"><path d="M84.123 1.51C39.276 1.51 2.92 37.88 2.92 82.746c0 44.866 36.356 81.236 81.203 81.236s81.203-36.37 81.203-81.236c0-44.865-36.356-81.236-81.203-81.236z" fill="#C8E7FA"/><mask id="c" style="mask-type:luminance" maskUnits="userSpaceOnUse" x="2" y="1" width="164" height="163"><path d="M84.124 1.509c-44.847 0-81.203 36.37-81.203 81.236 0 44.866 36.356 81.236 81.203 81.236s81.203-36.37 81.203-81.236c0-44.865-36.356-81.236-81.203-81.236z" fill="#fff"/></mask><g mask="url(#c)" fill="#fff"><path d="M161.062 166.97h3.423V1.528h-3.422l-.001 165.442zm-8.28 0h3.423V1.528h-3.423V166.97zm-8.277 0h3.423V1.528h-3.423V166.97zm-8.28 0h3.422V1.528h-3.422V166.97zm-8.276 0h3.423V1.528h-3.423V166.97zm-8.28 0h3.423V1.528h-3.423V166.97zm-8.279 0h3.422l.001-165.442h-3.423V166.97zm-8.278 0h3.423V1.528h-3.423V166.97zm-8.282 0h3.423V1.528H94.83V166.97zm-8.277 0h3.423V1.528h-3.423V166.97zm-8.278 0h3.422V1.528h-3.422V166.97zm-8.276 0h3.423V1.528h-3.423V166.97zm-8.282 0h3.423V1.528h-3.423V166.97zm-8.277 0h3.422V1.528H53.44V166.97zm-8.28 0h3.422V1.528H45.16V166.97zm-8.278 0h3.423V1.528h-3.423V166.97zm-8.277 0h3.422V1.528h-3.422V166.97zm-8.285 0h3.423V1.528H20.32V166.97zm-8.276 0h3.423V1.528h-3.423V166.97zm-8.279 0h3.422V1.528H3.766V166.97z"/></g><path d="M251.216 1.51c-44.847 0-81.203 36.37-81.203 81.236 0 44.866 36.356 81.236 81.203 81.236s81.203-36.37 81.203-81.236c0-44.865-36.356-81.236-81.203-81.236z" fill="#C8E7FA"/><mask id="d" style="mask-type:luminance" maskUnits="userSpaceOnUse" x="170" y="1" width="163" height="163"><path d="M251.216 1.51c-44.847 0-81.203 36.37-81.203 81.236 0 44.866 36.356 81.236 81.203 81.236s81.203-36.37 81.203-81.236c0-44.865-36.356-81.236-81.203-81.236z" fill="#fff"/></mask><g mask="url(#d)" fill="#fff"><path d="M328.153 166.971h3.423V1.529h-3.423v165.442zm-8.282 0h3.423V1.529h-3.423v165.442zm-8.275 0h3.423V1.529h-3.423v165.442zm-8.281 0h3.423V1.529h-3.423v165.442zm-8.277 0h3.423V1.529h-3.423v165.442zm-8.279 0h3.423V1.529h-3.423v165.442zm-8.28 0h3.422V1.529h-3.422v165.442zm-8.278 0h3.423V1.529h-3.423v165.442zm-8.28 0h3.423V1.529h-3.423v165.442zm-8.278 0h3.422V1.529h-3.422v165.442zm-8.277 0h3.423V1.529h-3.423v165.442zm-8.278 0h3.423V1.529h-3.423v165.442zm-8.282 0h3.423V1.529h-3.423v165.442zm-8.278 0h3.423V1.529h-3.423v165.442zm-8.279 0h3.423V1.529h-3.423v165.442zm-8.278 0h3.423V1.529h-3.423v165.442zm-8.278 0h3.423V1.529h-3.423v165.442zm-8.278 0h3.423V1.529h-3.423v165.442zm-8.279 0h3.423V1.529h-3.423v165.442zm-8.281 0h3.423V1.529h-3.423v165.442z"/></g><path d="M418.31 1.51c-44.848 0-81.204 36.37-81.204 81.236 0 44.866 36.356 81.236 81.204 81.236 44.847 0 81.203-36.37 81.203-81.236 0-44.865-36.356-81.236-81.203-81.236z" fill="#C8E7FA"/><mask id="e" style="mask-type:luminance" maskUnits="userSpaceOnUse" x="337" y="1" width="163" height="163"><path d="M418.309 1.51c-44.848 0-81.203 36.37-81.203 81.236 0 44.866 36.355 81.236 81.203 81.236 44.847 0 81.203-36.37 81.203-81.236 0-44.865-36.356-81.236-81.203-81.236z" fill="#fff"/></mask><g mask="url(#e)" fill="#fff"><path d="M495.249 166.972h3.423V1.53h-3.423v165.442zm-8.28 0h3.423V1.53h-3.423v165.442zm-8.278 0h3.423V1.53h-3.423v165.442zm-8.28 0h3.423V1.53h-3.423v165.442zm-8.275 0h3.423V1.53h-3.423v165.442zm-8.28 0h3.423V1.53h-3.422l-.001 165.442zm-8.282 0h3.423V1.53h-3.423v165.442zm-8.275 0h3.423V1.53h-3.423v165.442zm-8.282 0h3.422V1.53h-3.422v165.442zm-8.278 0h3.423V1.53h-3.423v165.442zm-8.278 0h3.423V1.53h-3.423v165.442zm-8.279 0h3.422l.001-165.442h-3.423v165.442zm-8.278 0h3.423V1.53h-3.423v165.442zm-8.278 0h3.423V1.53h-3.423v165.442zm-8.281 0h3.423V1.53h-3.423v165.442zm-8.28 0h3.422V1.53h-3.422v165.442zm-8.276 0h3.423V1.53h-3.423v165.442zm-8.278 0h3.423V1.53h-3.423v165.442zm-8.281 0h3.422V1.53h-3.422v165.442zm-8.279 0h3.423V1.53h-3.423v165.442z"/></g><path d="M585.404 1.51c-44.847 0-81.203 36.37-81.203 81.236 0 44.866 36.356 81.236 81.203 81.236 44.848 0 81.203-36.37 81.203-81.236 0-44.865-36.355-81.236-81.203-81.236z" fill="#C8E7FA"/><mask id="f" style="mask-type:luminance" maskUnits="userSpaceOnUse" x="504" y="1" width="163" height="163"><path d="M585.405 1.51c-44.847 0-81.203 36.37-81.203 81.236 0 44.866 36.356 81.236 81.203 81.236 44.848 0 81.203-36.37 81.203-81.236 0-44.865-36.355-81.236-81.203-81.236z" fill="#fff"/></mask><g mask="url(#f)" fill="#fff"><path d="M662.342 166.969h3.423V1.527h-3.423V166.97zm-8.28 0h3.422V1.527h-3.422V166.97zm-8.278 0h3.423V1.527h-3.423V166.97zm-8.28 0h3.423V1.527h-3.423V166.97zm-8.275 0h3.422V1.527h-3.422V166.97zm-8.28 0h3.423V1.527h-3.423V166.97zm-8.28 0h3.423V1.527h-3.423V166.97zm-8.277 0h3.422V1.527h-3.422V166.97zm-8.281 0h3.423V1.527h-3.423V166.97zm-8.279 0h3.423V1.527h-3.423V166.97zm-8.277 0h3.423V1.527h-3.423V166.97zm-8.281 0h3.423V1.527h-3.423V166.97zm-8.278 0h3.423V1.527h-3.423V166.97zm-8.277 0h3.423V1.527h-3.423V166.97zm-8.28 0h3.422V1.527h-3.422V166.97zm-8.278 0h3.423V1.527h-3.423V166.97zm-8.279 0h3.423V1.527h-3.423V166.97zm-8.278 0h3.422V1.527h-3.422V166.97zm-8.282 0h3.423V1.527h-3.423V166.97zm-8.278 0h3.423V1.527h-3.423V166.97z"/></g><path d="M752.496 1.51c-44.847 0-81.203 36.37-81.203 81.236 0 44.866 36.356 81.236 81.203 81.236s81.203-36.37 81.203-81.236c0-44.865-36.356-81.236-81.203-81.236z" fill="#C8E7FA"/><mask id="g" style="mask-type:luminance" maskUnits="userSpaceOnUse" x="671" y="1" width="163" height="163"><path d="M752.496 1.51c-44.847 0-81.203 36.37-81.203 81.236 0 44.866 36.356 81.236 81.203 81.236s81.203-36.37 81.203-81.236c0-44.865-36.356-81.236-81.203-81.236z" fill="#fff"/></mask><g mask="url(#g)" fill="#fff"><path d="M829.43 166.972h3.423V1.53h-3.423v165.442zm-8.278 0h3.423V1.53h-3.423v165.442zm-8.278 0h3.423V1.53h-3.423v165.442zm-8.281 0h3.423V1.53h-3.423v165.442zm-8.278 0h3.422V1.53h-3.422v165.442zm-8.28 0h3.423V1.53h-3.423v165.442zm-8.28 0h3.423V1.53h-3.423v165.442zm-8.275 0h3.422V1.53h-3.422v165.442zm-8.283 0h3.423V1.53h-3.423v165.442zm-8.275 0h3.423V1.53h-3.423v165.442zm-8.277 0h3.422V1.53h-3.422v165.442zm-8.28 0h3.423V1.53h-3.423v165.442zm-8.281 0h3.423V1.53h-3.423v165.442zm-8.279 0h3.423V1.53h-3.423v165.442zm-8.28 0h3.423V1.53h-3.423v165.442zm-8.276 0h3.423V1.53h-3.423v165.442zm-8.279 0h3.423V1.53h-3.423v165.442zm-8.297 0h3.423V1.53h-3.423v165.442zm-8.276 0h3.422V1.53h-3.422v165.442zm-8.28 0h3.423V1.53h-3.423v165.442z"/></g><path d="M919.592 1.51c-44.847 0-81.203 36.37-81.203 81.236 0 44.866 36.356 81.236 81.203 81.236s81.198-36.37 81.198-81.236c0-44.865-36.351-81.236-81.198-81.236z" fill="#C8E7FA"/><mask id="h" style="mask-type:luminance" maskUnits="userSpaceOnUse" x="838" y="1" width="163" height="163"><path d="M919.592 1.51c-44.847 0-81.203 36.37-81.203 81.236 0 44.866 36.356 81.236 81.203 81.236s81.198-36.37 81.198-81.236c0-44.865-36.351-81.236-81.198-81.236z" fill="#fff"/></mask><g mask="url(#h)" fill="#fff"><path d="M996.526 166.969h3.423V1.527h-3.423V166.97zm-8.28 0h3.423V1.527h-3.423V166.97zm-8.277 0h3.423V1.527h-3.423V166.97zm-8.28 0h3.422V1.527h-3.422V166.97zm-8.278 0h3.423V1.527h-3.423V166.97zm-8.279 0h3.423V1.527h-3.423V166.97zm-8.28 0h3.422V1.527h-3.422V166.97zm-8.278 0h3.423V1.527h-3.423V166.97zm-8.28 0h3.423V1.527h-3.423V166.97zm-8.277 0h3.422V1.527h-3.422V166.97zm-8.279 0h3.423V1.527h-3.423V166.97zm-8.279 0h3.423V1.527h-3.423V166.97zm-8.28 0h3.423V1.527h-3.423V166.97zm-8.293 0h3.423V1.527h-3.423V166.97zm-8.281 0h3.422V1.527h-3.422V166.97zm-8.278 0h3.423V1.527h-3.423V166.97zm-8.28 0h3.423V1.527h-3.423V166.97zm-8.278 0h3.422V1.527h-3.422V166.97zm-8.28 0h3.423V1.527h-3.423V166.97zm-8.277 0h3.423V1.527h-3.423V166.97z"/></g><path d="M1086.69 1.51c-44.85 0-81.21 36.37-81.21 81.236 0 44.866 36.36 81.236 81.21 81.236 44.84 0 81.2-36.37 81.2-81.236 0-44.865-36.36-81.236-81.2-81.236z" fill="#C8E7FA"/><mask id="i" style="mask-type:luminance" maskUnits="userSpaceOnUse" x="1005" y="1" width="163" height="163"><path d="M1086.68 1.509c-44.85 0-81.2 36.37-81.2 81.236 0 44.866 36.35 81.236 81.2 81.236s81.2-36.37 81.2-81.236c0-44.865-36.35-81.236-81.2-81.236z" fill="#fff"/></mask><g mask="url(#i)" fill="#fff"><path d="M1105.67 166.971h3.42V1.529h-3.42v165.442zm-8.28 0h3.42V1.529h-3.42v165.442zm-8.28 0h3.42V1.529h-3.42v165.442zm-8.28 0h3.42V1.529h-3.42v165.442zm-8.29 0h3.42V1.529h-3.42v165.442zm-8.28 0h3.42V1.529h-3.42v165.442zm-8.28 0h3.42V1.529h-3.42v165.442zm-8.28 0h3.42V1.529h-3.42v165.442zm-8.28 0h3.42V1.529h-3.42v165.442zm-8.28 0h3.42V1.529h-3.42v165.442zm-8.28 0h3.42V1.529h-3.42v165.442zm-8.28 0h3.42V1.529h-3.42v165.442zm-8.27 0h3.42V1.529h-3.42v165.442z"/></g><path d="M84.127 168.675c-44.847 0-81.203 36.371-81.203 81.236 0 44.866 36.356 81.236 81.203 81.236s81.203-36.37 81.203-81.236c0-44.865-36.356-81.236-81.203-81.236z" fill="#C8E7FA"/><mask id="j" style="mask-type:luminance" maskUnits="userSpaceOnUse" x="2" y="168" width="164" height="164"><path d="M84.129 168.678c-44.847 0-81.203 36.37-81.203 81.236 0 44.866 36.356 81.236 81.203 81.236s81.203-36.37 81.203-81.236c0-44.866-36.356-81.236-81.203-81.236z" fill="#fff"/></mask><g mask="url(#j)" fill="#fff"><path d="M161.063 334.133h3.423V168.691h-3.422l-.001 165.442zm-8.28 0h3.423V168.691h-3.423v165.442zm-8.277 0h3.423V168.691h-3.423v165.442zm-8.28 0h3.422V168.691h-3.422v165.442zm-8.278 0h3.423V168.691h-3.423v165.442zm-8.279 0h3.423V168.691h-3.423v165.442zm-8.278 0h3.422l.001-165.442h-3.423v165.442zm-8.278 0h3.423V168.691h-3.423v165.442zm-8.282 0h3.423V168.691H94.83v165.442zm-8.277 0h3.423V168.691h-3.423v165.442zm-8.278 0H81.7V168.691h-3.422v165.442zm-8.277 0h3.423V168.691h-3.423v165.442zm-8.281 0h3.423V168.691h-3.423v165.442zm-8.278 0h3.423V168.691h-3.422v165.442zm-8.28 0h3.422V168.691H45.16v165.442zm-8.281 0h3.423V168.691h-3.423v165.442zm-8.274 0h3.423V168.691h-3.422v165.442zm-8.28 0h3.423V168.691h-3.423v165.442zm-8.281 0h3.423V168.691h-3.423v165.442zm-8.278 0h3.422V168.691H3.767v165.442z"/></g><path d="M251.216 168.676c-44.847 0-81.203 36.37-81.203 81.236 0 44.866 36.356 81.236 81.203 81.236s81.203-36.37 81.203-81.236c0-44.865-36.356-81.236-81.203-81.236z" fill="#C8E7FA"/><mask id="k" style="mask-type:luminance" maskUnits="userSpaceOnUse" x="170" y="168" width="163" height="164"><path d="M251.215 168.678c-44.847 0-81.203 36.37-81.203 81.236 0 44.866 36.356 81.236 81.203 81.236s81.203-36.37 81.203-81.236c0-44.866-36.356-81.236-81.203-81.236z" fill="#fff"/></mask><g mask="url(#k)" fill="#fff"><path d="M328.154 334.134h3.423V168.692h-3.423v165.442zm-8.28 0h3.423V168.692h-3.423v165.442zm-8.275 0h3.422l.001-165.442h-3.423v165.442zm-8.283 0h3.423V168.692h-3.423v165.442zm-8.277 0h3.423V168.692h-3.423v165.442zm-8.277 0h3.423V168.692h-3.423v165.442zm-8.283 0h3.423V168.692h-3.422l-.001 165.442zm-8.277 0h3.423V168.692h-3.423v165.442zm-8.28 0h3.423V168.692h-3.423v165.442zm-8.278 0h3.422V168.692h-3.422v165.442zm-8.278 0h3.423V168.692h-3.423v165.442zm-8.279 0h3.423V168.692h-3.423v165.442zm-8.28 0h3.422l.001-165.442h-3.423v165.442zm-8.278 0h3.423V168.692h-3.423v165.442zm-8.279 0h3.423V168.692h-3.423v165.442zm-8.28 0h3.423V168.692h-3.423v165.442zm-8.276 0h3.423V168.692h-3.423v165.442zm-8.278 0h3.423V168.692h-3.423v165.442zm-8.277 0h3.423V168.692h-3.423v165.442zm-8.283 0h3.423V168.692h-3.423v165.442z"/></g><path d="M418.31 168.673c-44.848 0-81.204 36.371-81.204 81.236 0 44.866 36.356 81.236 81.204 81.236 44.847.001 81.203-36.37 81.203-81.236 0-44.865-36.356-81.236-81.203-81.236z" fill="#C8E7FA"/><mask id="l" style="mask-type:luminance" maskUnits="userSpaceOnUse" x="337" y="168" width="163" height="164"><path d="M418.309 168.674c-44.848 0-81.203 36.371-81.203 81.236 0 44.866 36.355 81.236 81.203 81.236 44.847 0 81.203-36.37 81.203-81.236 0-44.865-36.356-81.236-81.203-81.236z" fill="#fff"/></mask><g mask="url(#l)" fill="#fff"><path d="M495.249 334.132h3.423V168.69h-3.423v165.442zm-8.28 0h3.423V168.69h-3.423v165.442zm-8.278 0h3.423V168.69h-3.423v165.442zm-8.28 0h3.423V168.69h-3.423v165.442zm-8.275 0h3.423V168.69h-3.423v165.442zm-8.28 0h3.423V168.69h-3.422l-.001 165.442zm-8.282 0h3.423V168.69h-3.423v165.442zm-8.275 0h3.423V168.69h-3.423v165.442zm-8.282 0h3.422V168.69h-3.422v165.442zm-8.278 0h3.423V168.69h-3.423v165.442zm-8.278 0h3.423V168.69h-3.423v165.442zm-8.279 0h3.422l.001-165.442h-3.423v165.442zm-8.278 0h3.423V168.69h-3.423v165.442zm-8.278 0h3.423V168.69h-3.423v165.442zm-8.281 0h3.423V168.69h-3.423v165.442zm-8.28 0h3.422V168.69h-3.422v165.442zm-8.276 0h3.423V168.69h-3.423v165.442zm-8.278 0h3.423V168.69h-3.423v165.442zm-8.281 0h3.422V168.69h-3.422v165.442zm-8.279 0h3.423V168.69h-3.423v165.442z"/></g><path d="M585.405 168.674c-44.847 0-81.203 36.371-81.203 81.236 0 44.866 36.356 81.236 81.203 81.236 44.848 0 81.203-36.37 81.203-81.236 0-44.865-36.355-81.236-81.203-81.236z" fill="#C8E7FA"/><mask id="m" style="mask-type:luminance" maskUnits="userSpaceOnUse" x="504" y="168" width="163" height="164"><path d="M585.405 168.679c-44.847 0-81.203 36.37-81.203 81.236 0 44.866 36.356 81.236 81.203 81.236 44.848 0 81.203-36.37 81.203-81.236 0-44.866-36.355-81.236-81.203-81.236z" fill="#fff"/></mask><g mask="url(#m)" fill="#fff"><path d="M662.341 334.134h3.423V168.692h-3.423v165.442zm-8.28 0h3.422V168.692h-3.422v165.442zm-8.278 0h3.423V168.692h-3.423v165.442zm-8.28 0h3.423V168.692h-3.423v165.442zm-8.277 0h3.422V168.692h-3.422v165.442zm-8.28 0h3.423V168.692h-3.423v165.442zm-8.278 0h3.423V168.692h-3.423v165.442zm-8.277 0h3.422l.001-165.442h-3.423v165.442zm-8.281 0h3.423V168.692h-3.423v165.442zm-8.279 0h3.423V168.692h-3.423v165.442zm-8.278 0h3.423V168.692h-3.423v165.442zm-8.28 0h3.423V168.692h-3.422l-.001 165.442zm-8.278 0h3.423V168.692h-3.423v165.442zm-8.277 0h3.423V168.692h-3.423v165.442zm-8.281 0h3.422V168.692h-3.422v165.442zm-8.281 0h3.423V168.692h-3.423v165.442zm-8.275 0h3.423V168.692h-3.423v165.442zm-8.282 0h3.422l.001-165.442h-3.423v165.442zm-8.278 0h3.423V168.692h-3.423v165.442zm-8.278 0h3.423V168.692h-3.423v165.442z"/></g><path d="M752.496 168.672c-44.847 0-81.203 36.371-81.203 81.236 0 44.866 36.356 81.237 81.203 81.237s81.203-36.371 81.203-81.237c0-44.865-36.356-81.236-81.203-81.236z" fill="#C8E7FA"/><mask id="n" style="mask-type:luminance" maskUnits="userSpaceOnUse" x="671" y="168" width="163" height="164"><path d="M752.495 168.67c-44.847 0-81.203 36.371-81.203 81.236 0 44.866 36.356 81.237 81.203 81.237s81.203-36.371 81.203-81.237c0-44.865-36.356-81.236-81.203-81.236z" fill="#fff"/></mask><g mask="url(#n)" fill="#fff"><path d="M829.434 334.129h3.422V168.687h-3.422v165.442zm-8.278 0h3.423V168.687h-3.423v165.442zm-8.278 0h3.423V168.687h-3.423v165.442zm-8.281 0h3.423V168.687h-3.423v165.442zm-8.279 0h3.423V168.687h-3.423v165.442zm-8.279 0h3.423V168.687h-3.423v165.442zm-8.28 0h3.423V168.687h-3.423v165.442zm-8.276 0h3.423V168.687h-3.423v165.442zm-8.282 0h3.423V168.687h-3.423v165.442zm-8.275 0h3.423V168.687h-3.423v165.442zm-8.278 0h3.423V168.687h-3.422l-.001 165.442zm-8.279 0h3.423V168.687h-3.423v165.442zm-8.281 0h3.423V168.687h-3.423v165.442zm-8.279 0h3.422V168.687h-3.422v165.442zm-8.28 0h3.423V168.687h-3.423v165.442zm-8.276 0h3.423V168.687h-3.423v165.442zm-8.279 0h3.422l.001-165.442h-3.423v165.442zm-8.297 0h3.423V168.687h-3.423v165.442zm-8.277 0h3.423V168.687H680.4v165.442zm-8.279 0h3.423V168.687h-3.423v165.442z"/></g><path d="M919.591 168.672c-44.847 0-81.203 36.371-81.203 81.236 0 44.866 36.356 81.237 81.203 81.237s81.199-36.371 81.199-81.237c0-44.865-36.352-81.236-81.199-81.236z" fill="#C8E7FA"/><mask id="o" style="mask-type:luminance" maskUnits="userSpaceOnUse" x="838" y="168" width="163" height="164"><path d="M919.588 168.67c-44.847 0-81.203 36.371-81.203 81.236 0 44.866 36.356 81.237 81.203 81.237s81.202-36.371 81.202-81.237c0-44.865-36.355-81.236-81.202-81.236z" fill="#fff"/></mask><g mask="url(#o)" fill="#fff"><path d="M996.525 334.131h3.423V168.689h-3.423v165.442zm-8.279 0h3.423V168.689h-3.423v165.442zm-8.276 0h3.423V168.689h-3.423v165.442zm-8.282 0h3.422V168.689h-3.422v165.442zm-8.277 0h3.423V168.689h-3.423v165.442zm-8.28 0h3.423V168.689h-3.423v165.442zm-8.278 0h3.422V168.689h-3.422v165.442zm-8.278 0h3.423V168.689h-3.423v165.442zm-8.28 0h3.423V168.689h-3.423v165.442zm-8.279 0h3.422l.001-165.442h-3.423v165.442zm-8.278 0h3.423V168.689h-3.423v165.442zm-8.28 0h3.423V168.689h-3.423v165.442zm-8.277 0h3.423V168.689h-3.423v165.442zm-8.296 0h3.423V168.689h-3.423v165.442zm-8.279 0h3.422V168.689h-3.422v165.442zm-8.28 0h3.423V168.689h-3.423v165.442zm-8.28 0h3.423V168.689h-3.423v165.442zm-8.275 0h3.422V168.689h-3.422v165.442zm-8.279 0h3.423V168.689h-3.423v165.442zm-8.279 0h3.423V168.689h-3.423v165.442z"/></g><path d="M1086.69 168.676c-44.85 0-81.21 36.37-81.21 81.236 0 44.866 36.36 81.236 81.21 81.236 44.84 0 81.2-36.37 81.2-81.236 0-44.865-36.36-81.236-81.2-81.236z" fill="#C8E7FA"/><mask id="p" style="mask-type:luminance" maskUnits="userSpaceOnUse" x="1005" y="168" width="163" height="164"><path d="M1086.68 168.679c-44.84 0-81.2 36.37-81.2 81.236 0 44.866 36.36 81.236 81.2 81.236 44.85 0 81.21-36.37 81.21-81.236 0-44.866-36.36-81.236-81.21-81.236z" fill="#fff"/></mask><g mask="url(#p)" fill="#fff"><path d="M1105.67 334.134h3.42V168.692h-3.42v165.442zm-8.28 0h3.42V168.692h-3.42v165.442zm-8.28 0h3.42V168.692h-3.42v165.442zm-8.28 0h3.42V168.692h-3.42v165.442zm-8.29 0h3.42V168.692h-3.42v165.442zm-8.28 0h3.42V168.692h-3.42v165.442zm-8.28 0h3.42V168.692h-3.42v165.442zm-8.28 0h3.42V168.692h-3.42v165.442zm-8.28 0h3.42V168.692h-3.42v165.442zm-8.28 0h3.42V168.692h-3.42v165.442zm-8.28 0h3.42V168.692h-3.42v165.442zm-8.28 0h3.43V168.692h-3.43v165.442zm-8.28 0h3.43V168.692h-3.43v165.442z"/></g><path d="M334.374 251.648c-45.062 0-81.591 36.544-81.591 81.624s36.529 81.624 81.591 81.624c45.061 0 81.591-36.544 81.591-81.624s-36.53-81.624-81.591-81.624z" fill="#C8E7FA"/><mask id="q" style="mask-type:luminance" maskUnits="userSpaceOnUse" x="252" y="251" width="164" height="164"><path d="M334.374 251.648c-45.062 0-81.591 36.544-81.591 81.624s36.529 81.624 81.591 81.624c45.061 0 81.591-36.544 81.591-81.624s-36.53-81.624-81.591-81.624z" fill="#fff"/></mask><g mask="url(#q)" fill="#fff"><path d="M411.682 417.899h3.422l.001-166.251h-3.423v166.251zm-8.313 0h3.423V251.648h-3.423v166.251zm-8.329 0h3.423V251.648h-3.423v166.251zm-8.312 0h3.422V251.648h-3.422v166.251zm-8.311 0h3.423V251.648h-3.423v166.251zm-8.331 0h3.423V251.648h-3.423v166.251zm-8.313 0h3.423V251.648h-3.422l-.001 166.251zm-8.33 0h3.423V251.648h-3.423v166.251zm-8.312 0h3.423V251.648h-3.423v166.251zm-8.311 0h3.423V251.648h-3.423v166.251zm-8.329 0h3.423V251.648h-3.423v166.251zm-8.314 0h3.423V251.648h-3.423v166.251zm-8.315 0h3.423V251.648h-3.423v166.251zm-8.325 0h3.423V251.648h-3.423v166.251zm-8.315 0h3.423V251.648h-3.423v166.251zm-8.329 0h3.422V251.648h-3.422v166.251zm-8.315 0h3.423V251.648h-3.423v166.251zm-8.31 0h3.422V251.648h-3.422v166.251zm-8.33 0h3.423V251.648h-3.422l-.001 166.251zm-8.312 0h3.423V251.648h-3.423v166.251z"/></g><path d="M1089.03 166.111h-4.71c0 44.869-36.35 81.236-81.2 81.236v4.707c44.85 0 81.2 36.367 81.2 81.236h4.71c0-44.869 36.35-81.236 81.2-81.236v-4.706c-44.85 0-81.2-36.368-81.2-81.237zM921.951-1.051h-4.704c0 44.869-36.353 81.236-81.203 81.236v4.707c44.85 0 81.203 36.367 81.203 81.236h4.704c0-44.869 36.353-81.236 81.199-81.236v-4.707c-44.846 0-81.199-36.367-81.199-81.236z" fill="#7AB6DD"/><path d="M1089.03-1.051h-4.71c0 44.869-36.35 81.236-81.2 81.236v4.707c44.85 0 81.2 36.367 81.2 81.236h4.71c0-44.869 36.35-81.236 81.2-81.236v-4.707c-44.85 0-81.2-36.367-81.2-81.236zM754.856 166.111h-4.704c0 44.869-36.352 81.236-81.203 81.236v4.707c44.851 0 81.203 36.367 81.203 81.236h4.704c0-44.869 36.353-81.236 81.204-81.236v-4.706c-44.851 0-81.204-36.368-81.204-81.237z" fill="#7AB6DD"/><path d="M587.764 166.111h-4.705c0 44.869-36.352 81.236-81.203 81.236v4.707c44.851 0 81.203 36.367 81.203 81.236h4.705c0-44.869 36.352-81.236 81.203-81.236v-4.706c-44.851 0-81.203-36.368-81.203-81.237z" fill="#7AB6DD"/><path d="M587.764-1.051h-4.705c0 44.869-36.352 81.236-81.203 81.236v4.707c44.851 0 81.203 36.367 81.203 81.236h4.705c0-44.869 36.352-81.236 81.203-81.236v-4.707c-44.851 0-81.203-36.367-81.203-81.236zM420.668 166.111h-4.704c0 44.869-36.353 81.236-81.203 81.236v4.707c44.85 0 81.203 36.367 81.203 81.236h4.704c0-44.869 36.353-81.236 81.203-81.236v-4.706c-44.85 0-81.203-36.368-81.203-81.237z" fill="#7AB6DD"/><path d="M253.576 166.111h-4.704c0 44.869-36.353 81.236-81.203 81.236v4.707c44.85 0 81.203 36.367 81.203 81.236h4.704c0-44.869 36.353-81.236 81.203-81.236v-4.706c-44.85 0-81.203-36.368-81.203-81.237z" fill="#7AB6DD"/><path d="M253.576-1.051h-4.704c0 44.869-36.353 81.236-81.203 81.236v4.707c44.85 0 81.203 36.367 81.203 81.236h4.704c0-44.869 36.353-81.236 81.203-81.236v-4.707c-44.85 0-81.203-36.367-81.203-81.236zM86.481 166.111h-4.704c0 44.869-36.352 81.236-81.203 81.236v4.707c44.85 0 81.203 36.367 81.203 81.236h4.704c0-44.869 36.353-81.236 81.204-81.236v-4.706c-44.851 0-81.204-36.368-81.204-81.237z" fill="#7AB6DD"/><path d="M-80.613 166.111h-4.705c0 44.869-36.352 81.236-81.203 81.236v4.707c44.851 0 81.203 36.367 81.203 81.236h4.705c0-44.869 36.352-81.236 81.203-81.236v-4.706c-44.85 0-81.203-36.368-81.203-81.237z" fill="#7AB6DD"/></g></g></svg>